<svg width="42" height="42" viewBox="0 0 42 42" fill="none" xmlns="http://www.w3.org/2000/svg">
<path fill-rule="evenodd" clip-rule="evenodd" d="M11.2663 5.12247C14.0412 2.93894 17.4694 1.75122 21.0004 1.75C24.5315 1.75122 27.9596 2.93894 30.7346 5.12247C33.5095 7.30599 35.4702 10.3587 36.3019 13.7903C37.1336 17.222 36.788 20.8336 35.3206 24.0453C33.8532 27.2569 31.3491 29.8824 28.2104 31.5L25.0954 37.73C24.7181 38.4938 24.1346 39.1369 23.411 39.5865C22.6873 40.0361 21.8524 40.2744 21.0004 40.2744C20.1485 40.2744 19.3135 40.0361 18.5899 39.5865C17.8663 39.1369 17.2828 38.4938 16.9054 37.73L13.7904 31.5C10.6518 29.8824 8.1477 27.2569 6.6803 24.0453C5.21291 20.8336 4.86731 17.222 5.69898 13.7903C6.53066 10.3587 8.49137 7.30599 11.2663 5.12247ZM28.8754 17.5C28.8754 21.8492 25.3497 25.375 21.0004 25.375C16.6512 25.375 13.1254 21.8492 13.1254 17.5C13.1254 13.1508 16.6512 9.625 21.0004 9.625C25.3497 9.625 28.8754 13.1508 28.8754 17.5Z" fill="#CE9A5D"/>
</svg>
