<svg width="48" height="48" viewBox="0 0 48 48" fill="none" xmlns="http://www.w3.org/2000/svg">
<g clip-path="url(#clip0_212_4142)">
<path d="M24.615 36.0074C24.4184 36.0083 24.2235 35.9704 24.0416 35.8959C23.8596 35.8213 23.6942 35.7115 23.5548 35.5728C23.4154 35.4341 23.3048 35.2692 23.2294 35.0876C23.1539 34.9061 23.115 34.7114 23.115 34.5147V34.5C23.1165 34.2037 23.2057 33.9144 23.3714 33.6687C23.5371 33.423 23.7718 33.2319 24.046 33.1195C24.3203 33.0071 24.6216 32.9784 24.9121 33.0371C25.2026 33.0958 25.4692 33.2393 25.6782 33.4493C25.8873 33.6594 26.0294 33.9267 26.0867 34.2175C26.144 34.5082 26.1138 34.8094 26.0001 35.0831C25.8864 35.3568 25.6941 35.5906 25.4476 35.7551C25.2011 35.9196 24.9114 36.0074 24.615 36.0074ZM25.5 48H1.5C1.10218 48 0.720644 47.842 0.43934 47.5607C0.158035 47.2794 0 46.8979 0 46.5V39C0.00397028 35.4208 1.42756 31.9894 3.95844 29.4585C6.48932 26.9276 9.9208 25.504 13.5 25.5C14.6346 25.5014 15.7647 25.6425 16.8648 25.92C17.2425 26.0241 17.5646 26.2719 17.762 26.6103C17.9594 26.9488 18.0166 27.351 17.9213 27.731C17.826 28.1111 17.5857 28.4388 17.2519 28.644C16.9182 28.8492 16.5173 28.9156 16.1352 28.8291C15.2735 28.6124 14.3885 28.5019 13.5 28.5C10.7163 28.5034 8.04751 29.6107 6.07911 31.5792C4.1107 33.5476 3.00337 36.2163 3 39V45H25.5C25.8978 45 26.2794 45.1581 26.5607 45.4394C26.842 45.7207 27 46.1022 27 46.5C27 46.8979 26.842 47.2794 26.5607 47.5607C26.2794 47.842 25.8978 48 25.5 48ZM22.4883 17.5562C22.2663 17.5564 22.0449 17.5319 21.8283 17.483C16.3617 16.1787 10.6653 16.1767 5.1978 17.4771C4.7519 17.5823 4.28788 17.5842 3.84111 17.4828C3.39434 17.3814 2.97661 17.1794 2.61975 16.8921C2.26977 16.6137 1.98727 16.2598 1.79336 15.8568C1.59946 15.4539 1.49917 15.0122 1.5 14.565V11.64C1.50312 10.9788 1.72302 10.3369 2.126 9.81268C2.52898 9.28846 3.09278 8.91088 3.73095 8.73784L4.00635 8.67004C10.1737 7.1159 16.629 7.10534 22.8014 8.63929C22.9038 8.65684 23.0113 8.68324 23.1192 8.71099C23.79 8.85562 24.3915 9.22464 24.8243 9.75715C25.2571 10.2897 25.4955 10.9538 25.5 11.64V14.535C25.5003 15.3347 25.1833 16.1018 24.6187 16.6681C24.0541 17.2343 23.288 17.5541 22.4883 17.5562ZM13.5 10.5C10.5874 10.5028 7.6857 10.8559 4.85745 11.5518L4.49745 11.6382L4.5 14.565C10.4176 13.1521 16.5846 13.1505 22.503 14.5605L22.5 11.64V11.6385L22.3593 11.6136C22.2965 11.6063 22.1943 11.5799 22.1323 11.5653C19.3098 10.856 16.4103 10.4982 13.5 10.5Z" fill="#8B8E9E"/>
<path d="M22.5 11.61C22.3761 11.6103 22.2526 11.5952 22.1324 11.565C16.4607 10.1571 10.5313 10.1526 4.85748 11.5518C4.63667 11.6063 4.40636 11.6098 4.18399 11.562C3.96163 11.5143 3.75305 11.4166 3.57405 11.2763C3.39506 11.136 3.25036 10.9567 3.1509 10.7522C3.05145 10.5477 2.99986 10.3232 3.00003 10.0958V6.705C3.00182 4.92727 3.70881 3.22287 4.96586 1.96582C6.2229 0.708778 7.92731 0.00178696 9.70503 0L17.295 0C19.0728 0.00178696 20.7772 0.708778 22.0342 1.96582C23.2913 3.22287 23.9982 4.92727 24 6.705V10.11C24 10.5078 23.842 10.8894 23.5607 11.1707C23.2794 11.452 22.8979 11.61 22.5 11.61ZM13.5 7.5C16.0181 7.49921 18.5301 7.74538 21 8.235V6.705C20.999 5.72268 20.6084 4.78087 19.9138 4.08627C19.2192 3.39166 18.2774 3.00099 17.295 3H9.70503C8.72271 3.00099 7.78091 3.39166 7.0863 4.08627C6.39169 4.78087 6.00103 5.72268 6.00003 6.705V8.22945C8.47074 7.74554 10.9824 7.50125 13.5 7.5ZM13.5 28.5C10.7163 28.4966 8.04754 27.3893 6.07914 25.4209C4.11074 23.4525 3.00341 20.7837 3.00003 18C2.99799 17.2207 3.08745 16.4439 3.26658 15.6855C3.35944 15.2986 3.6022 14.9643 3.94147 14.7564C4.28073 14.5484 4.68872 14.4838 5.07566 14.5766C5.4626 14.6695 5.79681 14.9122 6.00477 15.2515C6.21272 15.5908 6.27739 15.9988 6.18453 16.3857C6.05964 16.9147 5.99771 17.4565 6.00003 18C6.00238 19.9884 6.79331 21.8947 8.19932 23.3007C9.60534 24.7067 11.5116 25.4977 13.5 25.5C14.3476 25.5018 15.1889 25.3551 15.9858 25.0663C16.1709 24.9988 16.3674 24.9684 16.5642 24.9768C16.7611 24.9853 16.9543 25.0324 17.1329 25.1155C17.3115 25.1986 17.472 25.3161 17.6052 25.4612C17.7384 25.6063 17.8417 25.7763 17.9092 25.9613C17.9767 26.1464 18.0072 26.3429 17.9987 26.5397C17.9903 26.7365 17.9432 26.9298 17.8601 27.1084C17.777 27.287 17.6595 27.4475 17.5144 27.5807C17.3692 27.7139 17.1993 27.8172 17.0142 27.8847C15.888 28.2942 14.6984 28.5025 13.5 28.5ZM21.285 24C21.0205 23.9998 20.7608 23.9296 20.5322 23.7966C20.3036 23.6636 20.1142 23.4726 19.9832 23.2428C19.8522 23.013 19.7843 22.7527 19.7864 22.4882C19.7885 22.2237 19.8605 21.9645 19.995 21.7368C20.6628 20.6054 21.0102 19.3137 21 18C21.0024 17.4565 20.9404 16.9147 20.8155 16.3857C20.7227 15.9988 20.7873 15.5908 20.9953 15.2515C21.2033 14.9122 21.5375 14.6695 21.9244 14.5766C22.3114 14.4838 22.7193 14.5484 23.0586 14.7564C23.3979 14.9643 23.6406 15.2986 23.7335 15.6855C23.9126 16.4439 24.0021 17.2207 24 18C24.0044 19.8499 23.5133 21.6673 22.5777 23.2632C22.4448 23.4877 22.2557 23.6737 22.029 23.8029C21.8024 23.9321 21.5459 24 21.285 24Z" fill="#8B8E9E"/>
<path d="M43.5 48H19.5C18.3069 47.9987 17.1631 47.5242 16.3195 46.6805C15.4758 45.8369 15.0013 44.6931 15 43.5V25.5C15.0013 24.3069 15.4758 23.1631 16.3195 22.3195C17.1631 21.4758 18.3069 21.0013 19.5 21H43.5C44.6931 21.0013 45.8369 21.4758 46.6805 22.3195C47.5242 23.1631 47.9987 24.3069 48 25.5V43.5C47.9987 44.6931 47.5242 45.8369 46.6805 46.6805C45.8369 47.5242 44.6931 47.9987 43.5 48ZM19.5 24C19.1022 24.0002 18.7209 24.1583 18.4396 24.4396C18.1584 24.7209 18.0002 25.1022 18 25.5V43.5C18.0002 43.8978 18.1584 44.2791 18.4396 44.5604C18.7209 44.8417 19.1022 44.9998 19.5 45H43.5C43.8978 44.9998 44.2791 44.8417 44.5604 44.5604C44.8417 44.2791 44.9998 43.8978 45 43.5V25.5C44.9998 25.1022 44.8417 24.7209 44.5604 24.4396C44.2791 24.1583 43.8978 24.0002 43.5 24H19.5Z" fill="#8B8E9E"/>
<path d="M40.5 40.5H22.5C22.1022 40.5 21.7206 40.342 21.4393 40.0607C21.158 39.7794 21 39.3978 21 39C21 38.6022 21.158 38.2206 21.4393 37.9393C21.7206 37.658 22.1022 37.5 22.5 37.5H40.5C40.8978 37.5 41.2794 37.658 41.5607 37.9393C41.842 38.2206 42 38.6022 42 39C42 39.3978 41.842 39.7794 41.5607 40.0607C41.2794 40.342 40.8978 40.5 40.5 40.5Z" fill="#EC4015"/>
<path d="M39 40.5H24C23.6022 40.5 23.2206 40.342 22.9393 40.0607C22.658 39.7794 22.5 39.3978 22.5 39V37.5C22.5 35.1131 23.4482 32.8239 25.136 31.136C26.8239 29.4482 29.1131 28.5 31.5 28.5C33.8869 28.5 36.1761 29.4482 37.864 31.136C39.5518 32.8239 40.5 35.1131 40.5 37.5V39C40.5 39.3978 40.342 39.7794 40.0607 40.0607C39.7794 40.342 39.3978 40.5 39 40.5ZM25.5 37.5H37.5C37.5 35.9087 36.8679 34.3826 35.7426 33.2574C34.6174 32.1321 33.0913 31.5 31.5 31.5C29.9087 31.5 28.3826 32.1321 27.2574 33.2574C26.1321 34.3826 25.5 35.9087 25.5 37.5Z" fill="#EC4015"/>
<path d="M31.5 31.5C31.1022 31.5 30.7206 31.342 30.4393 31.0607C30.158 30.7794 30 30.3978 30 30V28.5C30 28.1022 30.158 27.7206 30.4393 27.4393C30.7206 27.158 31.1022 27 31.5 27C31.8978 27 32.2794 27.158 32.5607 27.4393C32.842 27.7206 33 28.1022 33 28.5V30C33 30.3978 32.842 30.7794 32.5607 31.0607C32.2794 31.342 31.8978 31.5 31.5 31.5Z" fill="#EC4015"/>
</g>
<defs>
<clipPath id="clip0_212_4142">
<rect width="48" height="48" fill="white"/>
</clipPath>
</defs>
</svg>
