<svg width="53" height="42" viewBox="0 0 53 42" fill="none" xmlns="http://www.w3.org/2000/svg">
<path d="M0 42L53 34.9046V0L0 7.09538V42ZM2.74564 9.50381L50.2583 3.15V32.4962L2.74564 38.85V9.50381Z" fill="#F43E36"/>
<path d="M7.21688 20.211C7.67526 20.4409 8.15761 20.6192 8.65508 20.7426C9.03358 20.8263 9.42343 20.8454 9.80825 20.799C10.1433 20.7662 10.4614 20.6357 10.7235 20.4236C10.8286 20.3424 10.914 20.2383 10.9733 20.1192C11.0326 20.0001 11.0643 19.869 11.066 19.7359C11.066 19.3605 10.6607 18.9917 9.84485 18.6347C9.71411 18.5782 9.61474 18.5284 9.53891 18.5034L8.92179 18.241C8.39701 18.0374 7.93482 17.6988 7.58166 17.2592C7.28422 16.8515 7.13056 16.356 7.14497 15.8509C7.14433 15.4883 7.21819 15.1294 7.36194 14.7968C7.50569 14.4642 7.71624 14.1648 7.98043 13.9176C8.56782 13.3519 9.32666 12.9994 10.1364 12.9161C10.4875 12.8704 10.8423 12.8599 11.1954 12.8846C11.6208 12.9172 12.0436 12.9777 12.4611 13.0658V15.2248C12.0594 15.022 11.6373 14.8627 11.202 14.7497C10.8743 14.6558 10.5319 14.6242 10.1926 14.6565C9.92536 14.6828 9.67167 14.7873 9.46308 14.9571C9.37926 15.0273 9.31223 15.1155 9.26697 15.2153C9.22171 15.315 9.19937 15.4237 9.20159 15.5333C9.19901 15.6895 9.25447 15.8411 9.35717 15.9585C9.48744 16.1011 9.64969 16.2104 9.83047 16.2774L10.9026 16.7276C11.5855 16.9639 12.2058 17.3535 12.716 17.8669C13.0374 18.2773 13.2032 18.7889 13.1841 19.3106C13.1918 19.7352 13.1148 20.157 12.9576 20.5513C12.8004 20.9455 12.5662 21.3042 12.2689 21.6062C11.6173 22.2602 10.7613 22.669 9.84485 22.7638C9.47481 22.8076 9.10191 22.8221 8.72961 22.8071C8.28604 22.7844 7.84447 22.7322 7.40777 22.6509L7.21688 20.211ZM17.6255 13.8979L17.3261 13.9412V16.3942L17.7183 16.3378C18.1794 16.3009 18.6195 16.1289 18.9839 15.843C19.1255 15.7228 19.2383 15.5721 19.3139 15.4022C19.3895 15.2322 19.4259 15.0473 19.4206 14.8612C19.4388 14.6911 19.4079 14.5192 19.3317 14.3661C19.2554 14.213 19.137 14.0851 18.9905 13.9976C18.5558 13.8274 18.0799 13.7931 17.6255 13.8992V13.8979ZM15.1413 21.744V12.5408L17.4947 12.2218C18.0649 12.1275 18.6444 12.1024 19.2206 12.147C19.6224 12.1882 20.0101 12.3186 20.3554 12.5289C20.6902 12.7252 20.9641 13.0111 21.1464 13.3545C21.3343 13.7086 21.4305 14.1044 21.4262 14.5056C21.4355 14.9448 21.352 15.381 21.1811 15.7855C21.0103 16.19 20.7561 16.5536 20.4352 16.8523C19.6889 17.525 18.747 17.9392 17.7484 18.0336C17.6294 18.0519 17.5431 18.0585 17.4869 18.0651C17.4307 18.0716 17.3744 18.0651 17.3248 18.0782V21.4448L15.1413 21.744ZM24.2935 17.5899L26.6992 17.2644L25.5094 14.5423L24.2935 17.5899ZM20.8588 20.9749L25.5395 10.8581L25.6702 10.8398L30.2384 19.7109L27.9517 20.0181L27.3725 18.7607L23.6515 19.2608L23.0592 20.6809L20.8588 20.9749ZM38.0857 12.3662C37.7371 12.04 37.3285 11.785 36.8829 11.6154C36.4711 11.471 36.0313 11.426 35.599 11.4842C34.8507 11.574 34.1678 11.9559 33.6979 12.5473C33.2011 13.1592 32.9382 13.929 32.9566 14.7182C32.9336 15.0764 32.9874 15.4354 33.1144 15.7709C33.2413 16.1065 33.4386 16.4108 33.6927 16.6633C33.9497 16.8929 34.256 17.0597 34.5878 17.1508C34.9196 17.2419 35.2679 17.2547 35.6055 17.1883C36.0953 17.1188 36.5671 16.9552 36.9953 16.7066C37.4997 16.413 37.9646 16.0557 38.3786 15.6435L38.2348 18.1084C37.8446 18.4285 37.4126 18.6935 36.9509 18.8959C36.4882 19.0995 35.9991 19.2365 35.4983 19.3028C34.9822 19.3765 34.4575 19.3618 33.9463 19.2594C33.4583 19.1589 32.9932 18.968 32.5748 18.6964C31.9953 18.3202 31.5264 17.7955 31.2164 17.1765C30.8967 16.5139 30.7363 15.7851 30.7483 15.0489C30.7467 14.377 30.8649 13.7103 31.0974 13.0802C31.3318 12.4521 31.6733 11.8699 32.1068 11.3595C32.5444 10.8499 33.0701 10.4239 33.6587 10.1021C34.2332 9.78578 34.8608 9.57801 35.51 9.48918C35.9984 9.41984 36.4944 9.42604 36.9809 9.50757C37.4513 9.58838 37.9045 9.74906 38.3211 9.98269L38.0857 12.3662ZM40.1776 18.3722V9.16895L45.8245 8.41162V10.3069L42.3035 10.782V12.4463L45.3198 12.0394V13.9241L42.3035 14.331V16.1554L45.8742 15.6737V17.6136L40.1776 18.3722Z" fill="#5D5073"/>
<path d="M17.5446 30.2097L19.9569 29.8842L18.7606 27.1621L17.5446 30.2097ZM14.11 33.5946L18.7841 23.4779L18.9149 23.4595L23.4909 32.3307L21.2042 32.6378L20.625 31.3739L16.904 31.8739L16.3117 33.2941L14.11 33.5946ZM27.0537 24.3415L26.7543 24.3848V26.8431L27.1466 26.7867C27.6076 26.7498 28.0477 26.5778 28.4122 26.2919C28.5537 26.1716 28.6664 26.0209 28.742 25.851C28.8176 25.681 28.8541 25.4962 28.8489 25.3102C28.8671 25.14 28.8362 24.9681 28.7599 24.815C28.6837 24.6619 28.5652 24.534 28.4187 24.4465C27.9849 24.2731 27.5088 24.2364 27.0537 24.3415V24.3415ZM24.5696 32.1876V22.9844L26.923 22.6654C27.4932 22.571 28.0726 22.5459 28.6488 22.5906C29.0507 22.6318 29.4383 22.7623 29.7837 22.9726C30.1185 23.1689 30.3923 23.4547 30.5747 23.7981C30.763 24.1521 30.8597 24.5479 30.8558 24.9492C30.865 25.3884 30.7815 25.8247 30.6107 26.2292C30.4399 26.6336 30.1856 26.9972 29.8647 27.296C29.1185 27.9688 28.1766 28.3829 27.1779 28.4772C27.059 28.489 26.9727 28.5021 26.9165 28.5087C26.8602 28.5153 26.804 28.5087 26.7543 28.5205V31.8871L24.5696 32.1876ZM35.0841 23.2627L34.7847 23.306V25.7642L35.1769 25.7078C35.6379 25.6709 36.078 25.4988 36.4425 25.213C36.5841 25.0928 36.6969 24.9421 36.7725 24.7722C36.8481 24.6022 36.8845 24.4173 36.8792 24.2312C36.8974 24.0611 36.8665 23.8892 36.7903 23.7361C36.714 23.583 36.5956 23.4551 36.449 23.3676C36.0151 23.1931 35.5386 23.1551 35.0828 23.2587L35.0841 23.2627ZM32.5999 31.1088V21.9055L34.9533 21.5866C35.5235 21.4921 36.103 21.467 36.6792 21.5118C37.081 21.5529 37.4687 21.6834 37.814 21.8937C38.1488 22.09 38.4227 22.3758 38.605 22.7193C38.7934 23.0732 38.8901 23.469 38.8861 23.8703C38.8954 24.3096 38.8119 24.7458 38.641 25.1503C38.4702 25.5548 38.216 25.9183 37.8951 26.2171C37.1488 26.8898 36.2069 27.3039 35.2083 27.3983C35.0893 27.4115 35.003 27.4233 34.9468 27.4298C34.8906 27.4364 34.8343 27.4298 34.7847 27.443V30.8003L32.5999 31.1088Z" fill="#5D5073"/>
</svg>
