<svg width="226" height="70" viewBox="0 0 226 70" fill="none" xmlns="http://www.w3.org/2000/svg">
<g clip-path="url(#clip0_1_36)">
<path d="M179.02 0.00610352L175.788 21.6075L171.949 0.00610352H165.761L173.376 37.9098L171.03 53.0448H177.253L185.207 0.00610352H179.02Z" fill="#2D5BAA"/>
<path d="M55.1522 46.3623H58.6293V24.2191H55.1522V46.3623ZM55.1522 17.5479H58.6293V6.68974H55.1522V17.5479ZM49.8292 53.0328V0.0185604H61.4681C61.8163 0.0177562 62.1596 0.101278 62.4686 0.261991C62.7776 0.422703 63.0431 0.655828 63.2424 0.941446C63.713 1.55008 63.9633 2.30037 63.9522 3.06966V14.993C64.0108 15.6201 63.8195 16.245 63.42 16.7319C63.0304 17.1122 62.5883 17.4346 62.1071 17.6895V17.8318C62.6679 18.1584 63.1235 18.6388 63.42 19.2161C63.7412 19.7413 63.9243 20.3393 63.9522 20.9543V49.7686C63.91 50.546 63.6245 51.2905 63.1362 51.8969C62.9412 52.2271 62.6672 52.5038 62.3389 52.7021C62.0105 52.9003 61.6381 53.0139 61.255 53.0328L49.8292 53.0328Z" fill="#2D5BAA"/>
<path d="M193.637 31.7424H197.115V6.69042H193.637V31.7424ZM193.637 38.4129V53.0328H188.314V0.0185547H199.74C200.095 0.0265503 200.441 0.137434 200.734 0.337753C201.073 0.558593 201.372 0.834651 201.62 1.15447C201.88 1.48541 202.084 1.85701 202.224 2.25431C202.357 2.60594 202.429 2.97764 202.437 3.35347V35.0773C202.429 35.4536 202.357 35.8258 202.224 36.1778C202.085 36.5751 201.881 36.9465 201.62 37.277C201.373 37.5971 201.073 37.873 200.734 38.093C200.441 38.2938 200.096 38.405 199.74 38.4129H193.637Z" fill="#2D5BAA"/>
<path d="M102.975 0.00610352L99.7425 21.6075L95.9032 0.00610352H89.7159L97.3304 37.9098L94.9844 53.0448H101.208L109.162 0.00610352H102.975Z" fill="#2D5BAA"/>
<path d="M116.034 0.0184326L108.065 53.051H113.915L113.918 53.0326L119.939 6.6903H122.119V53.0326H127.442V0.0184326H116.034Z" fill="#2D5BAA"/>
<path d="M37.9853 0.0184326L31.3897 32.1636V0.0184326H26.0668V53.0326H31.3897L37.9853 20.1647V53.0326H43.3083V0.0184326H37.9853Z" fill="#2D5BAA"/>
<path d="M214.915 11.3407L217.557 31.7239L211.831 31.7361L214.915 11.3407ZM211.831 0L203.92 53.051H208.648L210.866 38.3147H218.412L220.321 53.051H225.721L223.811 38.3147H225.721V31.7239H222.957L218.844 0H211.831Z" fill="#2D5BAA"/>
<path d="M81.2058 0L77.6341 17.656H75.7536V0H70.4307L70.4313 53.0326H75.7536V24.3449H77.6341L82.5711 53.051H87.9342L81.5026 21.0004L86.3756 0H81.2058Z" fill="#2D5BAA"/>
<path d="M142.732 46.3799H139.255V24.1558H142.732V46.3799ZM147.842 19.7203C147.702 19.3233 147.498 18.9518 147.239 18.6205C146.99 18.301 146.691 18.025 146.352 17.8038C146.058 17.6031 145.713 17.4921 145.357 17.4846H139.255L139.254 0.00012207H133.931L133.932 53.0511H145.357C145.713 53.0433 146.058 52.9321 146.352 52.7312C146.691 52.5109 146.991 52.235 147.239 51.9152C147.498 51.5843 147.702 51.2129 147.842 50.816C147.974 50.4639 148.046 50.0917 148.055 49.7155V20.8195C148.046 20.4437 147.974 20.0721 147.842 19.7203Z" fill="#2D5BAA"/>
<path d="M2.3814 0.0184326V31.7239H0V38.3148H2.3814V53.0326H7.70433V38.3148V31.7239V6.6903H14.2237V53.0326H19.5467V0.0184326H2.3814Z" fill="#2D5BAA"/>
<path d="M73.25 66.5676C73.3393 66.5816 73.4305 66.576 73.5175 66.5513C73.6044 66.5265 73.6849 66.4832 73.7535 66.4243C73.8221 66.3654 73.8771 66.2924 73.9147 66.2102C73.9523 66.128 73.9716 66.0386 73.9713 65.9482C73.971 65.8579 73.9511 65.7686 73.9129 65.6867C73.8748 65.6047 73.8193 65.532 73.7504 65.4736C73.6814 65.4152 73.6006 65.3724 73.5135 65.3483C73.4264 65.3241 73.3351 65.3191 73.2459 65.3337H71.6649V66.5676H73.25ZM73.399 64.2202C73.6277 64.2154 73.855 64.2563 74.0677 64.3405C74.2804 64.4247 74.4741 64.5504 74.6375 64.7105C74.801 64.8705 74.9308 65.0615 75.0195 65.2724C75.1081 65.4832 75.1538 65.7097 75.1538 65.9384C75.1538 66.1671 75.1081 66.3935 75.0195 66.6044C74.9308 66.8153 74.801 67.0063 74.6375 67.1663C74.4741 67.3263 74.2804 67.4521 74.0677 67.5363C73.855 67.6205 73.6277 67.6614 73.399 67.6565H71.6649V69.9998H70.4589V64.2202H73.399Z" fill="#2D5BAA"/>
<path d="M79.9807 64.2161V69.9998H84.0507V68.887H81.1908V67.3938H83.3204V66.281H81.1908V65.3288H84.0507V64.2161H79.9807Z" fill="#2D5BAA"/>
<path d="M94.3435 67.9711C94.1617 68.5696 93.7888 69.092 93.2819 69.4584C92.775 69.8248 92.162 70.015 91.5368 70C91.1522 70.0072 90.77 69.9376 90.4127 69.7954C90.0553 69.6532 89.7298 69.4412 89.4553 69.1717C89.1808 68.9023 88.9627 68.5809 88.8139 68.2262C88.665 67.8715 88.5884 67.4907 88.5884 67.1061C88.5884 66.7215 88.665 66.3407 88.8139 65.986C88.9627 65.6313 89.1808 65.3099 89.4553 65.0405C89.7298 64.771 90.0553 64.559 90.4127 64.4168C90.77 64.2746 91.1522 64.205 91.5368 64.2122C92.1628 64.1964 92.7766 64.3869 93.2838 64.7542C93.791 65.1216 94.1633 65.6454 94.3435 66.2451L93.194 66.5956C93.0875 66.2993 92.9019 66.0377 92.6575 65.8391C92.413 65.6406 92.1189 65.5127 91.807 65.4692C91.4951 65.4257 91.1772 65.4684 90.8878 65.5925C90.5983 65.7166 90.3483 65.9175 90.1648 66.1735C89.9813 66.4294 89.8713 66.7306 89.8466 67.0446C89.8219 67.3586 89.8835 67.6733 90.0248 67.9548C90.1661 68.2362 90.3816 68.4737 90.6481 68.6416C90.9146 68.8094 91.2219 68.9012 91.5368 68.9069C91.9186 68.9127 92.291 68.7879 92.5924 68.5532C92.8937 68.3186 93.1059 67.9882 93.194 67.6165L94.3435 67.9711Z" fill="#2D5BAA"/>
<path d="M98.7964 64.212V65.3296H100.696V69.9998H101.906V65.3296H103.81V64.212H98.7964Z" fill="#2D5BAA"/>
<path d="M111.32 68.9068C111.68 68.9285 112.038 68.8414 112.349 68.6568C112.659 68.4723 112.907 68.1988 113.06 67.8718C113.213 67.5448 113.264 67.1794 113.207 66.823C113.15 66.4665 112.987 66.1354 112.739 65.8726C112.492 65.6098 112.171 65.4273 111.819 65.349C111.466 65.2706 111.099 65.2999 110.763 65.433C110.427 65.5661 110.14 65.797 109.937 66.0957C109.734 66.3943 109.626 66.747 109.626 67.108C109.612 67.339 109.646 67.5703 109.725 67.7877C109.804 68.0052 109.926 68.2042 110.085 68.3726C110.243 68.5411 110.435 68.6753 110.647 68.7672C110.859 68.859 111.088 68.9066 111.32 68.9068ZM111.32 64.2162C111.889 64.2272 112.443 64.4062 112.911 64.7306C113.379 65.0551 113.741 65.5106 113.952 66.04C114.162 66.5695 114.211 67.1492 114.093 67.7066C113.975 68.2639 113.696 68.774 113.289 69.1729C112.882 69.5718 112.367 69.8418 111.807 69.9489C111.248 70.0559 110.669 69.9954 110.144 69.7749C109.619 69.5543 109.17 69.1836 108.855 68.7091C108.539 68.2347 108.371 67.6777 108.371 67.108C108.366 66.7221 108.44 66.3392 108.587 65.9824C108.734 65.6257 108.952 65.3024 109.227 65.0321C109.503 64.7619 109.83 64.5503 110.19 64.41C110.55 64.2698 110.934 64.2038 111.32 64.2162Z" fill="#2D5BAA"/>
<path d="M122.242 66.5676C122.331 66.5817 122.422 66.5762 122.509 66.5515C122.596 66.5268 122.677 66.4835 122.746 66.4246C122.814 66.3657 122.869 66.2926 122.907 66.2104C122.945 66.1281 122.964 66.0387 122.964 65.9482C122.963 65.8578 122.944 65.7685 122.905 65.6865C122.867 65.6045 122.812 65.5317 122.743 65.4733C122.674 65.4149 122.593 65.3721 122.505 65.348C122.418 65.3239 122.327 65.319 122.238 65.3337H120.657V66.5676H122.242ZM122.391 64.2202C122.619 64.2154 122.847 64.2563 123.059 64.3405C123.272 64.4247 123.466 64.5504 123.629 64.7105C123.793 64.8705 123.923 65.0615 124.011 65.2724C124.1 65.4832 124.145 65.7097 124.145 65.9384C124.145 66.1671 124.1 66.3935 124.011 66.6044C123.923 66.8153 123.793 67.0063 123.629 67.1663C123.466 67.3263 123.272 67.4521 123.059 67.5363C122.847 67.6205 122.619 67.6614 122.391 67.6565H120.657V69.9998H119.451V64.2202H122.391Z" fill="#2D5BAA"/>
<path d="M131.236 65.7204L132.151 68.0317H130.317L131.236 65.7204ZM130.639 64.2163L128.344 70H129.538L129.884 69.1248H132.583L132.934 70H134.123L131.833 64.2163H130.639Z" fill="#2D5BAA"/>
<path d="M142.852 64.2161V66.281H140.258V64.2161H139.052V69.9998H140.258V67.3985H142.852V69.9998H144.062V64.2161H142.852Z" fill="#2D5BAA"/>
<path d="M159.194 64.2202L155.714 67.8866V64.2202H154.504V69.9998H155.108L158.593 66.3341V69.9998H159.799V64.2202H159.194Z" fill="#2D5BAA"/>
<path d="M170.241 64.212V69.9998H171.451V65.3296H174.044V69.9998H175.255V64.212H170.241Z" fill="#2D5BAA"/>
<path d="M183.084 65.7204L183.999 68.0317H182.164L183.084 65.7204ZM182.486 64.2163L180.191 70H181.385L181.733 69.1248H184.431L184.781 70H185.971L183.68 64.2163H182.486Z" fill="#2D5BAA"/>
<path d="M192.106 68.8864H193.687C193.775 68.8939 193.864 68.8839 193.949 68.8569C194.033 68.8299 194.111 68.7865 194.179 68.7292C194.246 68.6719 194.302 68.6018 194.342 68.5229C194.382 68.4441 194.406 68.358 194.413 68.2697C194.408 68.1812 194.385 68.0946 194.345 68.0152C194.306 67.9357 194.251 67.8651 194.183 67.8075C194.116 67.7498 194.037 67.7064 193.953 67.6798C193.868 67.6531 193.779 67.6438 193.691 67.6525H192.106V68.8864ZM193.84 66.5635C194.069 66.5587 194.296 66.5995 194.508 66.6836C194.721 66.7676 194.915 66.8932 195.078 67.053C195.241 67.2128 195.371 67.4036 195.46 67.6142C195.549 67.8248 195.595 68.051 195.595 68.2796C195.595 68.5081 195.55 68.7344 195.462 68.9453C195.373 69.1561 195.244 69.3472 195.081 69.5074C194.918 69.6676 194.725 69.7936 194.512 69.8782C194.3 69.9627 194.073 70.0041 193.844 69.9998H190.899V64.2202H195.054V65.3337H192.106V66.5635H193.84Z" fill="#2D5BAA"/>
<path d="M148.054 0.0183542V6.69022H154.494V53.0326H159.817V6.69022H164.217L162.93 0.00610352L148.054 0.0183542Z" fill="#2D5BAA"/>
</g>
<defs>
<clipPath id="clip0_1_36">
<rect width="225.721" height="70" fill="white"/>
</clipPath>
</defs>
</svg>
