<svg width="31" height="39" viewBox="0 0 31 39" fill="none" xmlns="http://www.w3.org/2000/svg">
<g id="Bag" clip-path="url(#clip0_7_139)">
<g id="38-Bag">
<path id="Vector (Stroke)" fill-rule="evenodd" clip-rule="evenodd" d="M2.45169 11.8512C2.47624 11.4503 2.80857 11.1377 3.21026 11.1377H27.7934C28.1951 11.1377 28.5274 11.4503 28.5519 11.8512L30.0884 36.9358C30.1012 37.1451 30.027 37.3503 29.8834 37.503C29.7398 37.6557 29.5394 37.7423 29.3298 37.7423H1.67382C1.46419 37.7423 1.26386 37.6557 1.12024 37.503C0.976605 37.3503 0.902425 37.1451 0.915241 36.9358L2.45169 11.8512ZM3.92514 12.6577L2.48179 36.2223H28.5218L27.0785 12.6577H3.92514Z" fill="#D9D9D9"/>
<path id="Vector (Stroke)_2" fill-rule="evenodd" clip-rule="evenodd" d="M15.5018 3.25108C14.0785 3.25108 12.7102 3.82791 11.6989 4.8598C10.6871 5.89222 10.1161 7.29568 10.1161 8.76223V15.0334C10.1161 15.4531 9.77581 15.7934 9.35607 15.7934C8.93633 15.7934 8.59607 15.4531 8.59607 15.0334V8.76223C8.59607 6.90235 9.31999 5.11563 10.6133 3.79591C11.9072 2.47567 13.6653 1.73108 15.5018 1.73108C17.3384 1.73108 19.0965 2.47567 20.3904 3.79591C21.6837 5.11563 22.4076 6.90235 22.4076 8.76223V15.0334C22.4076 15.4531 22.0674 15.7934 21.6476 15.7934C21.2279 15.7934 20.8876 15.4531 20.8876 15.0334V8.76223C20.8876 7.29568 20.3165 5.89222 19.3048 4.8598C18.2935 3.82791 16.9252 3.25108 15.5018 3.25108Z" fill="#D9D9D9"/>
</g>
</g>
<defs>
<clipPath id="clip0_7_139">
<rect width="30.4" height="38" fill="white" transform="translate(0.0305176 0.75)"/>
</clipPath>
</defs>
</svg>
