<svg width="23" height="22" viewBox="0 0 23 22" fill="none" xmlns="http://www.w3.org/2000/svg">
<g id="uil:search">
<path id="Vector" d="M19.9793 18.1765L16.6558 14.8798C17.9459 13.2712 18.5706 11.2295 18.4016 9.17451C18.2325 7.11946 17.2826 5.20729 15.747 3.83117C14.2114 2.45504 12.2069 1.71957 10.1457 1.77597C8.08447 1.83237 6.12321 2.67636 4.66517 4.1344C3.20713 5.59244 2.36313 7.55371 2.30673 9.61492C2.25033 11.6761 2.9858 13.6806 4.36193 15.2162C5.73805 16.7518 7.65022 17.7018 9.70526 17.8708C11.7603 18.0399 13.802 17.4151 15.4106 16.125L18.7072 19.4217C18.7905 19.5056 18.8896 19.5723 18.9987 19.6178C19.1079 19.6632 19.225 19.6867 19.3433 19.6867C19.4615 19.6867 19.5786 19.6632 19.6878 19.6178C19.7969 19.5723 19.896 19.5056 19.9793 19.4217C20.1408 19.2546 20.231 19.0314 20.231 18.7991C20.231 18.5667 20.1408 18.3435 19.9793 18.1765ZM10.3849 16.125C9.14468 16.125 7.93228 15.7572 6.90105 15.0682C5.86981 14.3791 5.06606 13.3998 4.59144 12.2539C4.11681 11.1081 3.99263 9.84722 4.23459 8.6308C4.47655 7.41437 5.07379 6.29702 5.95079 5.42002C6.82778 4.54303 7.94513 3.94579 9.16156 3.70383C10.378 3.46187 11.6388 3.58605 12.7847 4.06068C13.9305 4.5353 14.9099 5.33905 15.5989 6.37029C16.288 7.40152 16.6558 8.61392 16.6558 9.85417C16.6558 11.5173 15.9951 13.1123 14.8191 14.2883C13.6431 15.4643 12.0481 16.125 10.3849 16.125Z" fill="#857F7F"/>
</g>
</svg>
