<svg width="22" height="22" viewBox="0 0 22 22" fill="none" xmlns="http://www.w3.org/2000/svg">
<g id="Viber" clip-path="url(#clip0_7_124)">
<path id="Vector" d="M11.0153 0.0782471C5.85401 0.0782471 0.343506 0.786757 0.343506 9.29859C0.343506 13.802 1.93457 16.5778 5.1943 17.7619V19.9457C5.1961 20.2468 5.2894 20.5404 5.46182 20.7873C5.63425 21.0342 5.87764 21.2228 6.15971 21.3281C6.44177 21.4333 6.74918 21.4503 7.04113 21.3768C7.33307 21.3032 7.59576 21.1426 7.79433 20.9162L9.91898 18.5189H11.0153C16.1765 18.5189 21.687 17.8104 21.687 9.29859C21.687 0.786757 16.1765 0.0782471 11.0153 0.0782471ZM11.0153 6.87218C11.5299 6.87218 12.0234 7.07669 12.3873 7.44072C12.7512 7.80475 12.9556 8.29849 12.9556 8.8133C12.9556 8.94201 12.9045 9.06544 12.8135 9.15645C12.7225 9.24746 12.5991 9.29859 12.4705 9.29859C12.3418 9.29859 12.2185 9.24746 12.1275 9.15645C12.0365 9.06544 11.9854 8.94201 11.9854 8.8133C11.9854 8.5559 11.8832 8.30903 11.7013 8.12701C11.5193 7.945 11.2726 7.84274 11.0153 7.84274C10.8866 7.84274 10.7632 7.79162 10.6723 7.70061C10.5813 7.6096 10.5302 7.48617 10.5302 7.35746C10.5302 7.22876 10.5813 7.10532 10.6723 7.01432C10.7632 6.92331 10.8866 6.87218 11.0153 6.87218ZM10.5302 5.41634C10.5302 5.28763 10.5813 5.1642 10.6723 5.07319C10.7632 4.98218 10.8866 4.93106 11.0153 4.93106C12.0445 4.93106 13.0315 5.34008 13.7593 6.06814C14.487 6.7962 14.8959 7.78367 14.8959 8.8133C14.8959 8.94201 14.8448 9.06544 14.7538 9.15645C14.6628 9.24746 14.5395 9.29859 14.4108 9.29859C14.2822 9.29859 14.1588 9.24746 14.0678 9.15645C13.9768 9.06544 13.9257 8.94201 13.9257 8.8133C13.9257 8.04108 13.6191 7.30048 13.0733 6.75443C12.5275 6.20838 11.7872 5.90162 11.0153 5.90162C10.8866 5.90162 10.7632 5.85049 10.6723 5.75948C10.5813 5.66848 10.5302 5.54504 10.5302 5.41634ZM15.8661 13.1808C15.7503 13.8663 15.3933 14.4876 14.8595 14.9327C14.3257 15.3777 13.6504 15.617 12.9556 15.6072C11.4324 15.6072 8.50255 13.7826 7.28014 12.55C6.05774 11.3174 4.22414 8.39596 4.22414 6.87218C4.21444 6.17711 4.45362 5.50151 4.89845 4.96749C5.34328 4.43347 5.9644 4.07628 6.64954 3.96049H7.6197C7.71061 3.96031 7.79975 3.98569 7.87694 4.03374C7.95413 4.08179 8.01627 4.15058 8.05627 4.23225C8.05627 4.23225 8.63837 5.41634 9.02643 6.17338C9.4145 6.93041 8.64807 8.00774 8.18239 8.47361C8.46005 9.19614 8.87892 9.85605 9.4145 10.4147C9.97295 10.9505 10.6326 11.3696 11.3548 11.6473C11.8116 11.1218 12.4414 10.7775 13.1302 10.6768C13.3092 10.677 13.4856 10.7202 13.6444 10.803L15.5847 11.7735C15.6663 11.8135 15.7351 11.8757 15.7831 11.9529C15.8312 12.0301 15.8565 12.1193 15.8564 12.2103L15.8661 13.1808ZM16.3511 9.29859C16.2225 9.29859 16.0991 9.24746 16.0081 9.15645C15.9172 9.06544 15.8661 8.94201 15.8661 8.8133C15.8661 7.52626 15.355 6.29193 14.4453 5.38185C13.5356 4.47177 12.3018 3.96049 11.0153 3.96049C10.8866 3.96049 10.7632 3.90937 10.6723 3.81836C10.5813 3.72735 10.5302 3.60392 10.5302 3.47521C10.5302 3.34651 10.5813 3.22308 10.6723 3.13207C10.7632 3.04106 10.8866 2.98993 11.0153 2.98993C12.5591 2.98993 14.0397 3.60347 15.1313 4.69556C16.2229 5.78765 16.8362 7.26885 16.8362 8.8133C16.8362 8.94201 16.7851 9.06544 16.6941 9.15645C16.6032 9.24746 16.4798 9.29859 16.3511 9.29859Z" fill="#BBBBBB"/>
</g>
<defs>
<clipPath id="clip0_7_124">
<rect width="21.3435" height="21.3435" fill="white" transform="translate(0.343506 0.0782471)"/>
</clipPath>
</defs>
</svg>
