<svg width="23" height="22" viewBox="0 0 23 22" fill="none" xmlns="http://www.w3.org/2000/svg">
<g id="Whatsapp" clip-path="url(#clip0_7_127)">
<path id="Vector" d="M11.3614 0.0782471H11.3561C5.47197 0.0782471 0.687026 4.86453 0.687026 10.75C0.683372 12.9977 1.3949 15.1884 2.71866 17.005L1.38869 20.9695L5.49065 19.6582C7.23064 20.8126 9.27335 21.4262 11.3614 21.4218C17.2456 21.4218 22.0305 16.6341 22.0305 10.75C22.0305 4.86586 17.2456 0.0782471 11.3614 0.0782471ZM17.5711 15.1481C17.3136 15.8751 16.2918 16.4781 15.4767 16.6541C14.9191 16.7729 14.1908 16.8676 11.739 15.8511C8.6028 14.5518 6.58317 11.365 6.42576 11.1582C6.27502 10.9514 5.15849 9.47072 5.15849 7.93933C5.15849 6.40793 5.93619 5.66224 6.24968 5.34209C6.50713 5.0793 6.93267 4.95924 7.34086 4.95924C7.47293 4.95924 7.59165 4.96591 7.69837 4.97125C8.01185 4.98459 8.16926 5.00326 8.37602 5.49816C8.63348 6.11846 9.26044 7.64986 9.33515 7.80726C9.41118 7.96467 9.48722 8.17811 9.3805 8.38487C9.28045 8.59831 9.19241 8.69302 9.035 8.87444C8.8776 9.05586 8.72819 9.19459 8.57078 9.38935C8.42671 9.55877 8.26397 9.74019 8.44539 10.0537C8.62681 10.3605 9.25378 11.3836 10.1769 12.2054C11.3681 13.2659 12.3339 13.6047 12.6794 13.7488C12.9369 13.8555 13.2437 13.8301 13.4318 13.63C13.6705 13.3726 13.9654 12.9457 14.2655 12.5255C14.4789 12.224 14.7484 12.1867 15.0312 12.2934C15.3193 12.3934 16.8441 13.1471 17.1575 13.3032C17.471 13.4606 17.6778 13.5353 17.7538 13.6674C17.8285 13.7995 17.8285 14.4197 17.5711 15.1481Z" fill="#BBBBBB"/>
</g>
<defs>
<clipPath id="clip0_7_127">
<rect width="21.3435" height="21.3435" fill="white" transform="translate(0.687012 0.0782471)"/>
</clipPath>
</defs>
</svg>
