<svg width="77" height="49" viewBox="0 0 77 49" fill="none" xmlns="http://www.w3.org/2000/svg">
<rect width="76.6792" height="48.7233" fill="#161414"/>
<g clip-path="url(#clip0_1_215)">
<path d="M32.2993 16.027L25.2932 32.7417H20.722L17.2747 19.4007C17.0651 18.5801 16.8845 18.2791 16.2468 17.9335C15.2077 17.3693 13.4907 16.8408 11.9811 16.5108L12.0837 16.027H19.4421C19.923 16.0265 20.3882 16.1979 20.7537 16.5103C21.1193 16.8227 21.3611 17.2555 21.4356 17.7305L23.2573 27.4035L27.7571 16.027H32.2993ZM50.2114 27.2853C50.2293 22.8725 44.1106 22.6295 44.153 20.6583C44.1664 20.0585 44.7372 19.4207 45.9859 19.258C47.4493 19.119 48.9231 19.3778 50.2516 20.0072L51.0097 16.4618C49.7163 15.9755 48.3466 15.7241 46.9648 15.7192C42.6902 15.7192 39.6822 17.9937 39.6555 21.247C39.6287 23.6529 41.8028 24.9931 43.4417 25.7958C45.1274 26.6141 45.6938 27.1404 45.6849 27.8718C45.6737 28.9956 44.3425 29.4884 43.0983 29.5085C40.9242 29.5419 39.6644 28.922 38.6565 28.4538L37.8738 32.1151C38.8839 32.5789 40.7481 32.9847 42.6813 33.0026C47.2235 33.0026 50.1958 30.7594 50.2114 27.2853ZM61.4966 32.7417H65.4969L62.0072 16.027H58.3146C57.9201 16.0233 57.5335 16.1383 57.2051 16.3569C56.8767 16.5756 56.6216 16.8879 56.4728 17.2534L49.9862 32.7417H54.5261L55.4292 30.2443H60.977L61.4966 32.7417ZM56.6735 26.8193L58.9479 20.5423L60.259 26.8193H56.6735ZM38.4781 16.027L34.9037 32.7417H30.5779L34.1567 16.027H38.4781Z" fill="white"/>
</g>
<defs>
<clipPath id="clip0_1_215">
<rect width="54" height="18" fill="white" transform="translate(11.6415 15.2075)"/>
</clipPath>
</defs>
</svg>
