<svg width="78" height="49" viewBox="0 0 78 49" fill="none" xmlns="http://www.w3.org/2000/svg">
<rect x="0.358459" width="76.6792" height="48.7233" fill="#161414"/>
<g clip-path="url(#clip0_1_220)">
<path d="M33.3126 23.6798C33.3126 19.1216 35.4467 15.0615 38.7701 12.445C36.3398 10.5317 33.2724 9.38965 29.9392 9.38965C22.0479 9.38965 15.6511 15.7874 15.6511 23.6798C15.6511 31.572 22.0479 37.9697 29.9392 37.9697C33.2725 37.9697 36.3398 36.8276 38.7701 34.9143C35.4467 32.2979 33.3126 28.2377 33.3126 23.6798Z" fill="white" fill-opacity="0.69"/>
<path d="M61.8897 23.6798C61.8897 31.572 55.4929 37.9697 47.6016 37.9697C44.2683 37.9697 41.201 36.8276 38.7698 34.9143C42.0941 32.2979 44.2282 28.2377 44.2282 23.6798C44.2282 19.1216 42.0941 15.0615 38.7698 12.445C41.201 10.5317 44.2685 9.38965 47.6016 9.38965C55.4929 9.38965 61.8897 15.7874 61.8897 23.6798Z" fill="white"/>
<circle cx="47.5255" cy="23.6314" r="14.2417" fill="white"/>
</g>
<defs>
<clipPath id="clip0_1_220">
<rect width="48" height="38" fill="white" transform="translate(15.0001 5)"/>
</clipPath>
</defs>
</svg>
