<svg width="73" height="48" viewBox="0 0 73 48" fill="none" xmlns="http://www.w3.org/2000/svg">
<g id="unionpay-svgrepo-com 1" clip-path="url(#clip0_1_229)">
<rect id="Rectangle 19" x="12.6859" y="10.7581" width="52.6578" height="27.2065" fill="white"/>
<path id="Vector" d="M45.5792 33.2143H46.8579L47.2225 31.9465H45.9529L45.5792 33.2143Z" fill="#161414"/>
<path id="Vector_2" d="M46.6018 29.7251L46.159 31.2261C46.159 31.2261 46.6412 30.9725 46.9069 30.8913C47.1726 30.8305 47.566 30.7797 47.566 30.7797L47.8712 29.7352H46.5921L46.6018 29.7251Z" fill="#161414"/>
<path id="Vector_3" d="M47.227 27.5754L46.8186 28.8429C46.8186 28.8429 47.2746 28.6467 47.5309 28.5843C47.7873 28.5216 48.1674 28.5039 48.1674 28.5039L48.4617 27.5843H47.2364L47.227 27.5754Z" fill="#161414"/>
<path id="Vector_4" d="M39.3891 28.8425C39.3891 28.8425 39.8713 28.3863 40.6979 28.2444C40.8848 28.2039 42.0656 28.2239 42.0656 28.2239L42.2428 27.6155H39.7532L39.389 28.8527L39.3891 28.8425Z" fill="#161414"/>
<path id="Vector_5" d="M41.7304 29.3098H39.2606L39.113 29.827H41.2582C41.514 29.7966 41.5632 29.8371 41.5828 29.8169L41.7403 29.3099L41.7304 29.3098Z" fill="#161414"/>
<path id="Vector_6" d="M34.7957 21.7583C34.7662 21.9407 34.6087 22.6203 34.4021 22.9043C34.2544 23.1172 34.0871 23.249 33.8903 23.249C33.8314 23.249 33.4967 23.249 33.4869 22.7318C33.4869 22.4784 33.5361 22.2146 33.5951 21.9307C33.7723 21.1093 33.9887 20.4299 34.5299 20.4299C34.9531 20.4298 34.9825 20.9368 34.7957 21.7583Z" fill="#161414"/>
<path id="Vector_7" d="M51.9735 21.8944C51.9341 22.0668 51.7766 22.7563 51.57 23.0403C51.4321 23.2431 51.0977 23.375 50.9108 23.375C50.8519 23.375 50.527 23.375 50.5074 22.868C50.5074 22.6144 50.5565 22.3508 50.6155 22.0669C50.7927 21.2657 51.0093 20.5863 51.5504 20.5863C51.9736 20.5863 52.1604 21.0832 51.9736 21.9046L51.9735 21.8944Z" fill="#161414"/>
<path id="Vector_8" d="M47.875 18.4787C47.757 19.0364 47.4027 19.5131 46.9502 19.7361C46.5762 19.9287 46.1236 19.949 45.6513 19.949H45.3462L45.3658 19.8273C45.3658 19.8273 45.9268 17.3125 45.9268 17.3226L45.9464 17.1907L45.9562 17.0894L46.1824 17.1097C46.1824 17.1097 47.3436 17.211 47.3633 17.211C47.816 17.3937 48.0129 17.8601 47.875 18.4787Z" fill="#161414"/>
<path id="Vector_9" d="M68.7895 1.57739H5.07912C2.97975 1.57739 1.27637 3.3154 1.27637 5.45953V43.4014C1.27637 45.5459 2.97893 47.2836 5.07912 47.2836H68.7895C70.8889 47.2836 72.5924 45.5455 72.5924 43.4014V5.45953C72.5924 3.31504 70.8897 1.57739 68.7895 1.57739ZM51.6883 19.4816C51.9477 19.5846 52.1247 19.7434 52.2499 19.9312C52.2555 19.8875 52.2613 19.8431 52.267 19.7978L52.3261 19.7471C53.1428 19.6253 53.369 19.5949 54.2251 19.4327L54.2448 19.5036C54.0872 20.1729 53.9398 20.8321 53.7823 21.4912C53.4675 22.8804 53.3593 23.5904 53.2412 24.3205L53.1624 24.3813V24.371C52.3358 24.3609 52.0998 24.3609 51.3419 24.4015L51.2927 24.3407L51.3584 24.0857C51.0978 24.2988 50.8177 24.4432 50.5172 24.4605C50.2122 24.4808 49.9073 24.4401 49.5727 24.2881C48.5198 23.8723 48.687 22.6757 48.8347 22.0267C48.9724 21.3777 49.2283 20.6983 49.74 20.2116C50.468 19.5221 51.3242 19.3294 51.6883 19.4816ZM43.6731 18.6714C43.6731 18.6613 44.2044 16.1464 44.2044 16.1464C44.2044 16.1464 44.2438 15.9539 44.2634 15.8422C44.4995 15.8726 45.0898 15.8828 46.566 15.8625L47.1367 15.8523C48.288 15.8625 49.2819 15.8727 49.7837 16.5926C49.9805 16.8664 50.0493 17.2112 50.0493 17.5662C50.0493 17.8399 50.01 18.1035 49.9608 18.3267C49.7541 19.2393 49.3015 19.9999 48.6325 20.507C47.6484 21.2473 46.3988 21.2473 45.2868 21.2473H45.1686C45.0899 21.2979 45.0113 21.4095 45.0113 21.4095C45.0014 21.4501 44.7455 22.5453 44.7455 22.5453C44.7357 22.5453 44.4406 24.0358 44.3913 24.2894C44.165 24.2589 43.6434 24.2589 42.3543 24.2792C42.4136 24.0257 43.6731 18.6714 43.6731 18.6714ZM37.1379 22.4937C37.4725 20.9625 37.5512 20.3743 37.6495 19.5935L37.7084 19.5529C38.4959 19.4414 38.6926 19.4109 39.5387 19.2386L39.6077 19.3197L39.4896 19.8065C39.6275 19.7152 39.775 19.6239 39.9128 19.5529C40.3163 19.35 40.759 19.2893 41.0048 19.2893C41.3789 19.2893 41.7823 19.4009 41.9594 19.847C42.1169 20.2425 42.0087 20.7292 41.7922 21.6927L41.6839 22.1794C41.4577 23.2543 41.4281 23.447 41.3099 24.1771L41.2313 24.2379L41.2411 24.2481C40.5622 24.2379 40.3259 24.2379 39.5289 24.2785L39.4994 24.2176C39.5683 23.9031 39.6471 23.599 39.7159 23.2846L39.8044 22.8587C39.9521 22.1997 40.0997 21.4187 40.1095 21.1856C40.1292 21.0436 40.1685 20.6887 39.7848 20.6887C39.6175 20.6887 39.4405 20.7697 39.2732 20.8508C39.1846 21.2058 38.9878 22.1996 38.8893 22.6457C38.7024 23.5989 38.6827 23.7105 38.5942 24.177L38.5353 24.2378C37.8367 24.2277 37.5907 24.2277 36.7838 24.2682L36.7444 24.1972C36.8822 23.6295 37.01 23.0616 37.1379 22.4937ZM37.8215 27.0179L37.4967 28.1231H35.0761L34.8104 28.3565C34.6923 28.4682 34.6629 28.4275 34.5151 28.5087C34.3775 28.5796 34.0921 28.7215 33.7181 28.7215H32.9408L33.2556 27.6569H33.4918C33.6887 27.6569 33.8265 27.6365 33.8953 27.596C33.974 27.5452 34.0626 27.4338 34.1511 27.2512L34.5939 26.4197H36.3553L36.0554 27.0179H37.8215ZM22.6606 21.1763C22.4243 22.0585 22.1489 23.0624 21.096 23.7013C20.4958 24.0764 19.6003 24.2895 18.6458 24.2895C17.9078 24.2895 16.599 24.1678 16.1366 23.3363C15.989 23.0826 15.9201 22.7684 15.9201 22.3932L16.0873 21.1153L16.176 20.7301L17.1798 16.1361C17.1798 16.1361 17.2289 15.8827 17.2388 15.8421C17.2585 15.8725 17.6027 15.8929 19.5217 15.8725C19.5217 15.8826 19.5217 15.9029 19.5119 15.9333C19.3348 16.4707 18.3507 20.5473 18.3507 20.5473C18.3507 20.5574 18.1638 21.7642 18.1638 21.7642L18.1737 21.9671C18.2327 22.5653 18.5869 22.8797 19.2069 22.8797C19.5906 22.8797 19.9252 22.7682 20.2106 22.5248C20.7025 22.109 20.8502 21.4599 21.0569 20.5574C21.0569 20.5574 22.0015 16.0855 22.0507 15.8421V15.8523C22.1884 15.8828 22.5918 15.8929 23.9892 15.8828C23.9792 15.8929 23.9792 15.9131 23.9695 15.9436C23.7924 16.4911 22.7789 20.7198 22.7789 20.7198L22.6606 21.1763ZM28.2145 21.6927L28.1063 22.1794C27.8897 23.2543 27.8504 23.447 27.7322 24.1771L27.6536 24.2379L27.6633 24.2481C26.9844 24.2379 26.7384 24.2379 25.9414 24.2785L25.9117 24.2176C25.9806 23.9031 26.0593 23.599 26.1184 23.2846L26.2168 22.8587C26.3643 22.1997 26.5021 21.4187 26.5218 21.1856C26.5415 21.0436 26.5808 20.6887 26.1872 20.6887C26.0199 20.6887 25.8527 20.7697 25.6756 20.8508C25.5771 21.2058 25.3902 22.1996 25.2917 22.6457C25.0949 23.5989 25.0851 23.7105 24.9965 24.177L24.9375 24.2378C24.2388 24.2277 23.9929 24.2277 23.186 24.2682L23.1466 24.1972C23.2844 23.6294 23.4123 23.0615 23.5402 22.4936C23.8747 20.9624 23.9634 20.3743 24.0518 19.5934L24.1207 19.5528C24.9079 19.4413 25.0949 19.4108 25.9509 19.2385L26.0197 19.3196L25.8919 19.8064C26.0394 19.7151 26.1772 19.6238 26.3248 19.5528C26.7283 19.35 27.1711 19.2892 27.4171 19.2892C27.7909 19.2892 28.2042 19.4008 28.3716 19.8469C28.5293 20.2426 28.4308 20.7292 28.2145 21.6927ZM31.1056 21.3911C31.0269 21.7258 30.9482 22.0603 30.8793 22.3951C30.7316 23.105 30.6628 23.3686 30.6334 23.5612C30.594 23.7437 30.5841 23.8351 30.525 24.2001L30.4856 24.2304L30.4463 24.2609L30.4266 24.2507C30.0133 24.2507 29.7477 24.2405 29.4919 24.2507C29.236 24.2507 28.99 24.271 28.6063 24.2811L28.5866 24.2507L28.5669 24.2101C28.6752 23.8044 28.7244 23.6625 28.7833 23.5205C28.8326 23.3785 28.8817 23.2366 28.9802 22.8209C29.0981 22.2833 29.177 21.9081 29.2261 21.5735C29.2852 21.259 29.3147 20.9853 29.3541 20.6709L29.3835 20.6507L29.413 20.6202C29.8264 20.5594 30.0822 20.5188 30.3479 20.4782C30.6137 20.4377 30.8891 20.387 31.3123 20.3059L31.3319 20.3465L31.3417 20.387L31.1056 21.3911ZM31.1858 19.9915C30.7332 20.316 30.0543 20.3769 29.6804 20.1537C29.2966 19.9104 29.3458 19.4642 29.7984 19.1498C30.2511 18.8254 30.9301 18.7543 31.3138 18.9876C31.6976 19.2207 31.6384 19.6669 31.1858 19.9915ZM31.8135 21.8912C31.9513 21.2422 32.1973 20.5626 32.7188 20.0658C33.447 19.3763 34.3719 19.3357 34.7656 19.3357C35.4149 19.3357 36.0447 19.4878 36.399 19.9543C36.6253 20.2584 36.8122 20.7655 36.5761 21.8405H36.5858C36.5071 22.1752 36.3004 22.9661 35.838 23.4935C35.2378 24.1425 34.4407 24.3655 33.6634 24.3655C33.3583 24.3655 32.8859 24.325 32.5613 24.1831C31.4985 23.7367 31.6659 22.5503 31.8135 21.8912ZM35.457 34.7536H33.4692C33.3119 34.7536 33.1938 34.7332 33.0166 34.6927C32.8493 34.6522 32.7707 34.571 32.7018 34.4594C32.6329 34.3378 32.5147 34.2464 32.5935 33.9828L33.1642 32.0359H32.1803L32.505 30.9204H33.4889L33.7546 30.018H32.7707L33.0857 28.953L33.066 28.943H37.3856L37.0707 30.0079H35.3487L35.0831 30.9102H36.8543L36.5296 32.0055H34.7681L34.3352 33.476C34.2861 33.6382 34.7584 33.6585 34.9256 33.6585L35.8112 33.5368L35.457 34.7536ZM42.7721 31.6703C42.7132 31.8833 42.6639 32.0456 42.5064 32.1875C42.3392 32.3296 42.1523 32.4816 41.6997 32.4816L40.8632 32.5222L40.8534 33.293C40.8436 33.5058 40.9027 33.4854 40.932 33.5261C40.9715 33.5667 41.0009 33.577 41.0403 33.5972L41.306 33.5768L42.1031 33.5363L41.7685 34.6721H40.8534C40.2138 34.6721 39.7315 34.6517 39.5839 34.5301C39.4265 34.4286 39.4069 34.307 39.4069 34.0839L39.4658 31.062H40.932L40.9123 31.6805H41.2665C41.3847 31.6805 41.4734 31.6704 41.5225 31.64C41.5716 31.6096 41.6012 31.5589 41.6209 31.4879L41.7685 31.0012H42.9058L42.9099 30.9809L42.9198 31.0012H42.9058L42.7721 31.6703ZM42.9015 30.2328C42.8131 30.3748 42.7048 30.5066 42.4884 30.6283C42.2817 30.7399 42.0947 30.8108 41.9176 30.821C41.7601 30.831 41.5043 30.8413 41.1697 30.8413H38.818L38.1587 33.1027C38.0998 33.3257 38.0702 33.4371 38.1096 33.498C38.139 33.5489 38.2276 33.6097 38.3358 33.6097L39.369 33.5083L39.0147 34.7454H37.8537C37.4797 34.7454 37.214 34.7353 37.0271 34.725C36.85 34.7049 36.6629 34.725 36.535 34.6238C36.4269 34.5224 36.2596 34.3905 36.2694 34.2587C36.2793 34.137 36.3284 33.9341 36.4073 33.6502L38.5228 26.43H40.0284L39.8119 27.2108C39.8119 27.2108 40.2842 26.8154 40.6188 26.6733C40.9533 26.5516 41.7011 26.43 41.7011 26.43L44.1415 26.4199L43.3051 29.2796C43.1673 29.7663 43 30.0807 42.9015 30.2328ZM54.9874 29.7369H53.2654L52.9998 30.6192H54.7217L54.4363 31.5825H52.5766L52.2421 31.988H52.9998L53.1867 33.205C53.2064 33.3267 53.2064 33.4078 53.2456 33.4586C53.2851 33.4991 53.5114 33.5194 53.6392 33.5194H53.8655L53.5113 34.7059H52.9307C52.8422 34.7059 52.7044 34.6958 52.5175 34.6958C52.3403 34.6754 52.2223 34.574 52.1042 34.5132C51.996 34.4625 51.8386 34.3307 51.7992 34.0974L51.622 32.8805L50.7758 34.0771C50.51 34.4522 50.1461 34.7464 49.5261 34.7464H48.3454L48.4576 34.3701H48.0683L47.9601 34.7251H46.3856L46.4939 34.3701H43.3057L43.6205 33.2954H43.9451L45.6181 27.5759L45.9526 26.4198H47.5566L47.3893 26.9978C47.3893 26.9978 47.8123 26.6836 48.2257 26.5719C48.5521 26.4817 50.1347 26.4381 50.7269 26.4244L50.7225 26.4198H52.4346L52.4543 27.079C52.4446 27.1905 52.533 27.2412 52.7397 27.2412H53.0841L52.7693 28.3263H51.8443C51.0473 28.3872 50.7422 28.0322 50.7619 27.6367L50.7485 27.0944L50.607 27.5657H50.056L50.0657 27.5758L48.4126 33.2039H48.8554L48.7113 33.6916H49.1128C49.2407 33.6916 49.3588 33.641 49.4473 33.5903C49.5359 33.5497 49.6146 33.5091 49.6933 33.3775L50.9331 31.5825H49.2995L49.575 30.6192H51.4447L51.7103 29.7369H49.8704L50.1851 28.6518H55.3021L54.9874 29.7369ZM56.1531 26.2967L56.0251 26.4489H56.0116L55.3632 27.5963C55.1564 27.9917 54.7628 28.2959 54.1528 28.2959L53.0998 28.2756L53.405 27.221H53.6116C53.7198 27.221 53.7985 27.2109 53.8576 27.1805C53.9166 27.1602 53.9462 27.1196 53.9954 27.0588L54.389 26.4199H54.439L54.4312 26.3982C54.9625 25.5769 55.0903 25.2221 55.6415 24.289C55.5432 23.2445 55.4939 22.9099 55.4152 22.2204C55.366 21.8147 55.3069 21.3989 55.2577 20.9831C55.1593 20.1414 55.1791 20.2631 55.0806 19.7257L55.0707 19.7155C55.0707 19.6852 55.0707 19.6547 55.0806 19.6243L55.1395 19.5634C55.9465 19.4518 55.966 19.4214 56.8517 19.2491L56.9205 19.3302L57.0387 21.6626C57.0486 21.7134 57.0486 21.7437 57.0486 21.7945C57.5109 20.7196 57.5012 21.0136 58.072 19.6447V19.6548C58.072 19.6345 58.0817 19.6245 58.0817 19.6143L58.1407 19.5534C58.9083 19.4418 59.0657 19.4114 59.9021 19.239L59.9709 19.3202L59.9809 19.3302C59.9809 19.3301 56.5958 25.3131 56.1531 26.2967Z" fill="#161414"/>
</g>
<defs>
<clipPath id="clip0_1_229">
<rect width="72" height="47" fill="white" transform="translate(0.679321 0.817627)"/>
</clipPath>
</defs>
</svg>
