<svg width="31" height="40" viewBox="0 0 31 40" fill="none" xmlns="http://www.w3.org/2000/svg">
<path id="Vector" d="M15.7211 0.300049C11.6857 0.30481 7.81691 1.90998 4.96343 4.76346C2.10995 7.61694 0.504777 11.4857 0.500016 15.5211C0.495183 18.8189 1.57238 22.0272 3.56638 24.6538C3.56638 24.6538 3.9815 25.2004 4.0493 25.2792L15.7211 39.0447L27.3985 25.2723C27.4593 25.199 27.8758 24.6538 27.8758 24.6538L27.8772 24.6496C29.8702 22.0242 30.9469 18.8174 30.9422 15.5211C30.9374 11.4857 29.3323 7.61694 26.4788 4.76346C23.6253 1.90998 19.7565 0.30481 15.7211 0.300049ZM15.7211 21.0561C14.6264 21.0561 13.5563 20.7315 12.6461 20.1233C11.7358 19.5151 11.0264 18.6507 10.6075 17.6393C10.1886 16.6279 10.079 15.515 10.2925 14.4413C10.5061 13.3677 11.0332 12.3814 11.8073 11.6073C12.5814 10.8333 13.5676 10.3061 14.6413 10.0926C15.715 9.87898 16.8279 9.98859 17.8392 10.4075C18.8506 10.8264 19.7151 11.5359 20.3232 12.4461C20.9314 13.3563 21.2561 14.4264 21.2561 15.5211C21.2542 16.9885 20.6705 18.3953 19.6329 19.4329C18.5953 20.4705 17.1885 21.0543 15.7211 21.0561Z" fill="#161414"/>
</svg>
