<svg width="32" height="32" viewBox="0 0 32 32" fill="none" xmlns="http://www.w3.org/2000/svg">
<g id="basket">
<path id="Vector" d="M25.3331 16.0004H6.66648C6.23581 16.0004 5.82648 15.9151 5.43848 15.7871L6.43314 25.7324C6.52938 26.7204 6.99058 27.6369 7.7266 28.3029C8.46261 28.9689 9.42054 29.3365 10.4131 29.3338H21.5865C22.5791 29.3365 23.537 28.9689 24.273 28.3029C25.009 27.6369 25.4702 26.7204 25.5665 25.7324L26.5611 15.7884C26.1718 15.9151 25.7638 16.0004 25.3331 16.0004Z" fill="#7AC8C9"/>
<path id="Vector_2" d="M25.3337 16H6.66699C5.60613 16 4.58871 15.5786 3.83857 14.8284C3.08842 14.0783 2.66699 13.0609 2.66699 12C2.66699 10.9391 3.08842 9.92172 3.83857 9.17157C4.58871 8.42143 5.60613 8 6.66699 8H25.3337C26.3945 8 27.4119 8.42143 28.1621 9.17157C28.9122 9.92172 29.3337 10.9391 29.3337 12C29.3337 13.0609 28.9122 14.0783 28.1621 14.8284C27.4119 15.5786 26.3945 16 25.3337 16Z" fill="#D8D8FF"/>
<path id="Vector_3" d="M25.3337 16H6.66699C5.60613 16 4.58871 15.5786 3.83857 14.8284C3.08842 14.0783 2.66699 13.0609 2.66699 12C2.66699 10.9391 3.08842 9.92172 3.83857 9.17157C4.58871 8.42143 5.60613 8 6.66699 8H25.3337C26.3945 8 27.4119 8.42143 28.1621 9.17157C28.9122 9.92172 29.3337 10.9391 29.3337 12C29.3337 13.0609 28.9122 14.0783 28.1621 14.8284C27.4119 15.5786 26.3945 16 25.3337 16Z" fill="#DBF1F1"/>
<path id="Vector_4" d="M20.5098 7.99965H23.4911L21.1938 3.40365C21.0357 3.08716 20.7584 2.84642 20.4228 2.7344C20.2567 2.67893 20.0812 2.65673 19.9065 2.66907C19.7317 2.68141 19.5611 2.72805 19.4044 2.80631C19.0879 2.96438 18.8472 3.2417 18.7352 3.57727C18.6232 3.91283 18.649 4.27916 18.8071 4.59565L20.5098 7.99965ZM11.4911 7.99965L13.1938 4.59565L13.1964 4.59031C13.3538 4.27347 13.3788 3.90709 13.2661 3.57177C13.1533 3.23646 12.9119 2.95968 12.5951 2.80231C12.2783 2.64495 11.9119 2.6199 11.5766 2.73267C11.2412 2.84545 10.9645 3.0868 10.8071 3.40365L8.50977 7.99965H11.4911ZM13.3338 18.6663C12.9801 18.6663 12.641 18.8068 12.391 19.0568C12.1409 19.3069 12.0004 19.646 12.0004 19.9996V22.6663C12.0004 23.0199 12.1409 23.3591 12.391 23.6091C12.641 23.8592 12.9801 23.9996 13.3338 23.9996C13.6874 23.9996 14.0265 23.8592 14.2766 23.6091C14.5266 23.3591 14.6671 23.0199 14.6671 22.6663V19.9996C14.6671 19.646 14.5266 19.3069 14.2766 19.0568C14.0265 18.8068 13.6874 18.6663 13.3338 18.6663ZM18.6671 18.6663C18.3135 18.6663 17.9743 18.8068 17.7243 19.0568C17.4742 19.3069 17.3338 19.646 17.3338 19.9996V22.6663C17.3338 23.0199 17.4742 23.3591 17.7243 23.6091C17.9743 23.8592 18.3135 23.9996 18.6671 23.9996C19.0207 23.9996 19.3599 23.8592 19.6099 23.6091C19.86 23.3591 20.0004 23.0199 20.0004 22.6663V19.9996C20.0004 19.646 19.86 19.3069 19.6099 19.0568C19.3599 18.8068 19.0207 18.6663 18.6671 18.6663Z" fill="#538889"/>
</g>
</svg>
