<svg width="16" height="16" viewBox="0 0 16 16" fill="none" xmlns="http://www.w3.org/2000/svg">
<g id="basket">
<path id="Vector" d="M12.6663 3.99973H11.733L10.5997 1.73306C10.4663 1.39973 10.0663 1.26639 9.73301 1.46639C9.39967 1.59973 9.26634 1.99973 9.46634 2.33306L10.2663 3.99973H5.73301L6.59967 2.26639C6.73301 1.93306 6.59967 1.53306 6.33301 1.39973C5.99967 1.26639 5.59967 1.39973 5.39967 1.73306L4.26634 3.99973H3.33301C2.19967 3.99973 1.33301 4.86639 1.33301 5.99973C1.33301 6.86639 1.93301 7.59973 2.73301 7.86639L3.19967 12.8664C3.33301 13.8664 4.19967 14.6664 5.19967 14.6664H10.7997C11.7997 14.6664 12.6663 13.8664 12.7997 12.8664L13.2663 7.86639C14.0663 7.59973 14.6663 6.86639 14.6663 5.99973C14.6663 4.86639 13.7997 3.99973 12.6663 3.99973ZM7.33301 11.3331C7.33301 11.7331 7.06634 11.9997 6.66634 11.9997C6.26634 11.9997 5.99967 11.7331 5.99967 11.3331V9.99973C5.99967 9.59973 6.26634 9.33306 6.66634 9.33306C7.06634 9.33306 7.33301 9.59973 7.33301 9.99973V11.3331ZM9.99967 11.3331C9.99967 11.7331 9.73301 11.9997 9.33301 11.9997C8.93301 11.9997 8.66634 11.7331 8.66634 11.3331V9.99973C8.66634 9.59973 8.93301 9.33306 9.33301 9.33306C9.73301 9.33306 9.99967 9.59973 9.99967 9.99973V11.3331ZM12.6663 6.66639H3.33301C2.93301 6.66639 2.66634 6.39973 2.66634 5.99973C2.66634 5.59973 2.93301 5.33306 3.33301 5.33306H12.6663C13.0663 5.33306 13.333 5.59973 13.333 5.99973C13.333 6.39973 13.0663 6.66639 12.6663 6.66639Z" fill="#7AC8C9"/>
</g>
</svg>
