<svg width="16" height="16" viewBox="0 0 16 16" fill="none" xmlns="http://www.w3.org/2000/svg">
<g id="Bin">
<path id="Vector" d="M13.473 3.38617H10.553V1.82617C10.553 1.55284 10.333 1.32617 10.053 1.32617H5.94637C5.67304 1.32617 5.44637 1.55284 5.44637 1.82617V3.38617H2.52637C2.25303 3.38617 2.02637 3.60617 2.02637 3.88617C2.02637 4.1595 2.25303 4.38617 2.52637 4.38617H3.29304V12.7928C3.29304 13.8262 4.13304 14.6595 5.16637 14.6595H10.6064C11.633 14.6595 12.473 13.8262 12.473 12.7928V4.38617H13.473C13.7464 4.38617 13.973 4.1595 13.973 3.88617C13.973 3.60617 13.7464 3.38617 13.473 3.38617ZM6.12637 11.4262V6.4995C6.12637 6.22617 6.35304 5.9995 6.62637 5.9995C6.90637 5.9995 7.12637 6.22617 7.12637 6.4995V11.4262C7.12637 11.6995 6.90637 11.9262 6.62637 11.9262C6.35304 11.9262 6.12637 11.6995 6.12637 11.4262ZM9.87304 11.4262C9.87304 11.6995 9.64637 11.9262 9.37304 11.9262C9.09304 11.9262 8.87304 11.6995 8.87304 11.4262V6.4995C8.87304 6.2195 9.09304 5.9995 9.37304 5.9995C9.64637 5.9995 9.87304 6.2195 9.87304 6.4995V11.4262ZM6.44637 2.32617H9.55304V3.38617H6.44637V2.32617Z" fill="#FF4B23"/>
</g>
</svg>
