<svg width="16" height="12" viewBox="0 0 16 12" fill="none" xmlns="http://www.w3.org/2000/svg">
<path d="M15.0156 1.24266C14.3698 0.585779 13.3243 0.585779 12.6784 1.24266L6.8322 7.18875L3.32319 3.62142C2.97309 3.26534 2.50629 3.10275 2.04908 3.13201C1.66061 3.15803 1.28013 3.32062 0.984387 3.62142C0.338538 4.27831 0.338538 5.34168 0.984387 5.99856L5.61883 10.7122C5.63322 10.7268 5.64761 10.7431 5.66199 10.7577C6.07924 11.1821 6.66434 11.3317 7.19988 11.2081C7.49243 11.1398 7.77219 10.9902 8.0008 10.7577L15.0156 3.62142C15.6615 2.96454 15.6615 1.89954 15.0156 1.24266Z" fill="white"/>
</svg>
