<svg width="12" height="12" viewBox="0 0 12 12" fill="none" xmlns="http://www.w3.org/2000/svg">
<path id="Union" d="M11.6138 0.287074C11.2194 -0.100478 10.5855 -0.0949312 10.198 0.299464L5.98761 4.58416L1.70292 0.373803C1.30852 -0.0137495 0.674627 -0.00820375 0.287074 0.386193C-0.100478 0.780587 -0.0949312 1.41448 0.299464 1.80203L4.58416 6.01239L0.373803 10.2971C-0.0137495 10.6915 -0.00820237 11.3254 0.386193 11.7129C0.780587 12.1005 1.41448 12.0949 1.80203 11.7005L6.01239 7.41584L10.2971 11.6262C10.6915 12.0137 11.3254 12.0082 11.7129 11.6138C12.1005 11.2194 12.0949 10.5855 11.7005 10.198L7.41584 5.98761L11.6262 1.70292C12.0137 1.30852 12.0082 0.674626 11.6138 0.287074Z" fill="#AABAC2"/>
</svg>
