<svg width="32" height="32" viewBox="0 0 32 32" fill="none" xmlns="http://www.w3.org/2000/svg">
<g id="download-folder">
<path id="Vector" d="M25.3337 8H16.9337L16.5337 6.8C16.0003 5.06667 14.4003 4 12.8003 4H6.66699C4.40033 4 2.66699 5.73333 2.66699 8V25.3333C2.66699 27.6 4.40033 29.3333 6.66699 29.3333H25.3337C27.6003 29.3333 29.3337 27.6 29.3337 25.3333V12C29.3337 9.73333 27.6003 8 25.3337 8ZM19.6003 20.9333L16.9337 23.6C16.4003 24.1333 15.6003 24.1333 15.067 23.6L12.4003 20.9333C11.867 20.4 11.867 19.6 12.4003 19.0667C12.9337 18.5333 13.7337 18.5333 14.267 19.0667L14.667 19.4667V16C14.667 15.2 15.2003 14.6667 16.0003 14.6667C16.8003 14.6667 17.3337 15.2 17.3337 16V19.4667L17.7337 19.0667C18.267 18.5333 19.067 18.5333 19.6003 19.0667C20.1337 19.6 20.1337 20.4 19.6003 20.9333Z" fill="#AABAC2"/>
</g>
</svg>
