<svg width="32" height="32" viewBox="0 0 32 32" fill="none" xmlns="http://www.w3.org/2000/svg">
<g id="gear" clip-path="url(#clip0_140_6555)">
<path id="Vector" d="M31.0002 20.0001C29.3002 19.0001 28.3002 17.6001 28.3002 16.0001C28.3002 14.4001 29.3002 13.0001 31.0002 12.0001C31.9002 11.5001 32.2002 10.4001 31.8002 9.4001V9.30011C31.4002 8.40011 30.4002 7.80011 29.4002 8.10011C27.5002 8.60011 25.8002 8.2001 24.7002 7.2001C23.6002 6.1001 23.3002 4.4001 23.8002 2.5001C24.0002 1.5001 23.5002 0.500105 22.6002 0.100105C21.7002 -0.299895 20.6002 0.100105 20.0002 0.900105C19.0002 2.6001 17.6002 3.6001 16.0002 3.6001C14.4002 3.6001 13.0002 2.6001 12.0002 0.900105C11.5002 0.000104904 10.4002 -0.299895 9.4002 0.100105C8.5002 0.600105 8.0002 1.6001 8.2002 2.6001C8.7002 4.5001 8.4002 6.20011 7.3002 7.30011C6.2002 8.30011 4.5002 8.6001 2.6002 8.2001C1.6002 8.0001 0.600203 8.5001 0.200203 9.4001V9.5001C-0.199797 10.4001 0.200203 11.5001 1.0002 12.1001C2.7002 13.1001 3.7002 14.5001 3.7002 16.1001C3.7002 17.6001 2.8002 19.0001 1.0002 20.1001C0.100203 20.6001 -0.199797 21.7001 0.200203 22.7001V22.8001C0.600203 23.7001 1.6002 24.3001 2.6002 24.0001C4.5002 23.5001 6.2002 23.8001 7.3002 24.9001C8.4002 26.0001 8.7002 27.7001 8.2002 29.6001C8.0002 30.6001 8.5002 31.6001 9.4002 32.0001C10.3002 32.4001 11.4002 32.0001 12.0002 31.2001C13.0002 29.5001 14.4002 28.5001 16.0002 28.5001C17.6002 28.5001 19.0002 29.5001 20.0002 31.2001C20.5002 32.1001 21.6002 32.4001 22.6002 32.0001C23.5002 31.6001 24.1002 30.6001 23.8002 29.6001C23.3002 27.7001 23.6002 26.0001 24.7002 24.9001C25.8002 23.8001 27.5002 23.5001 29.4002 24.0001C30.4002 24.2001 31.4002 23.7001 31.8002 22.8001C32.2002 21.6001 31.9002 20.5001 31.0002 20.0001ZM16.0002 25.0001C11.1002 25.0001 7.0002 21.0001 7.0002 16.0001C7.0002 11.0001 11.0002 7.0001 16.0002 7.0001C20.9002 7.0001 25.0002 11.0001 25.0002 16.0001C25.0002 21.0001 20.9002 25.0001 16.0002 25.0001Z" fill="#8DA0AA"/>
<path id="Vector_2" d="M15.9996 21.4001C18.9819 21.4001 21.3996 18.9824 21.3996 16.0001C21.3996 13.0178 18.9819 10.6001 15.9996 10.6001C13.0173 10.6001 10.5996 13.0178 10.5996 16.0001C10.5996 18.9824 13.0173 21.4001 15.9996 21.4001Z" fill="#7AC8C9"/>
</g>
<defs>
<clipPath id="clip0_140_6555">
<rect width="32" height="32" fill="white"/>
</clipPath>
</defs>
</svg>
