<svg width="32" height="32" viewBox="0 0 32 32" fill="none" xmlns="http://www.w3.org/2000/svg">
<g id="Emoji">
<path id="Vector" d="M24.8886 28.4442C24.8886 30.4077 23.2967 31.9997 21.3331 31.9997H3.55552C1.59198 31.9997 0 30.333 0 24.8887V3.55552C0 1.59198 1.59198 0 3.55552 0H21.3331C23.2967 0 24.8886 1.59198 24.8886 3.55552V28.4442Z" fill="#CCD6DD"/>
<path id="Vector_2" d="M27.5545 32.0001H3.55469C7.11021 32.0001 7.11021 24.889 7.11021 24.889C7.11021 22.9255 8.70219 21.3335 10.6657 21.3335H28.4433C30.4069 21.3335 31.9989 23.1113 31.9989 24.889C31.9989 24.889 32.2211 32.0001 27.5545 32.0001Z" fill="#E1E8ED"/>
<path id="Vector_3" d="M21.3323 6.22286C21.3323 6.71353 20.935 7.11174 20.4434 7.11174H4.44357C3.95291 7.11174 3.55469 6.71353 3.55469 6.22286C3.55469 5.7322 3.95291 5.33398 4.44357 5.33398H20.4434C20.935 5.33398 21.3323 5.7322 21.3323 6.22286ZM21.3323 9.77839C21.3323 10.269 20.935 10.6673 20.4434 10.6673H4.44357C3.95291 10.6673 3.55469 10.269 3.55469 9.77839C3.55469 9.28772 3.95291 8.88951 4.44357 8.88951H20.4434C20.935 8.88951 21.3323 9.28772 21.3323 9.77839ZM21.3323 13.3339C21.3323 13.8246 20.935 14.2228 20.4434 14.2228H4.44357C3.95291 14.2228 3.55469 13.8246 3.55469 13.3339C3.55469 12.8432 3.95291 12.445 4.44357 12.445H20.4434C20.935 12.445 21.3323 12.8432 21.3323 13.3339ZM21.3323 16.8894C21.3323 17.381 20.935 17.7783 20.4434 17.7783H4.44357C3.95291 17.7783 3.55469 17.381 3.55469 16.8894C3.55469 16.3979 3.95291 16.0005 4.44357 16.0005H20.4434C20.935 16.0005 21.3323 16.3979 21.3323 16.8894Z" fill="#99AAB5"/>
</g>
</svg>
