<svg width="21" height="21" viewBox="0 0 21 21" fill="none" xmlns="http://www.w3.org/2000/svg">
<g clip-path="url(#clip0_392_678)">
<path d="M10.5 2.55408C5.89585 2.55408 2.16669 6.28324 2.16669 10.8874C2.16669 15.4916 5.89585 19.2207 10.5 19.2207C15.1042 19.2207 18.8334 15.4916 18.8334 10.8874C18.8334 6.28324 15.1042 2.55408 10.5 2.55408ZM11.3334 14.2207C11.3334 14.681 10.9603 15.0541 10.5 15.0541C10.0398 15.0541 9.66669 14.681 9.66669 14.2207V10.8874C9.66669 10.4272 10.0398 10.0541 10.5 10.0541C10.9603 10.0541 11.3334 10.4272 11.3334 10.8874V14.2207ZM11.3334 7.55408C11.3334 8.01431 10.9603 8.38741 10.5 8.38741C10.0398 8.38741 9.66669 8.01431 9.66669 7.55408C9.66669 7.09384 10.0398 6.72074 10.5 6.72074C10.9603 6.72074 11.3334 7.09384 11.3334 7.55408Z" fill="#CE9A5D"/>
</g>
<defs>
<clipPath id="clip0_392_678">
<rect width="20" height="20" fill="white" transform="translate(0.5 0.88739)"/>
</clipPath>
</defs>
</svg>
