<svg width="16" height="16" viewBox="0 0 16 16" fill="none" xmlns="http://www.w3.org/2000/svg">
<g id="Information" clip-path="url(#clip0_244_1110)">
<path id="Vector" d="M7.2 11.2C7.2 11.6418 7.55817 12 8 12C8.44183 12 8.8 11.6418 8.8 11.2V8C8.8 7.55817 8.44183 7.2 8 7.2C7.55817 7.2 7.2 7.55817 7.2 8V11.2ZM8 0C3.58 0 0 3.58 0 8C0 12.42 3.58 16 8 16C12.42 16 16 12.42 16 8C16 3.58 12.42 0 8 0ZM8 14.4C4.472 14.4 1.6 11.528 1.6 8C1.6 4.472 4.472 1.6 8 1.6C11.528 1.6 14.4 4.472 14.4 8C14.4 11.528 11.528 14.4 8 14.4ZM7.2 4.8C7.2 5.24183 7.55817 5.6 8 5.6C8.44183 5.6 8.8 5.24183 8.8 4.8C8.8 4.35817 8.44183 4 8 4C7.55817 4 7.2 4.35817 7.2 4.8Z" fill="#7AC8C9"/>
</g>
<defs>
<clipPath id="clip0_244_1110">
<rect width="16" height="16" fill="white"/>
</clipPath>
</defs>
</svg>
