<svg width="20" height="21" viewBox="0 0 20 21" fill="none" xmlns="http://www.w3.org/2000/svg">
<path d="M12.5 7.55408H16.1666L11.6666 3.05408V6.72074C11.6666 7.22074 12 7.55408 12.5 7.55408ZM11 14.8874L14 11.8874C14.75 11.1374 15.8333 11.0541 16.6666 11.6374V9.22074H12.5C11.0833 9.22074 9.99998 8.13741 9.99998 6.72074V2.55408H5.83331C4.41665 2.55408 3.33331 3.63741 3.33331 5.05408V16.7207C3.33331 18.1374 4.41665 19.2207 5.83331 19.2207H10.5833C10.5 18.9707 10.4166 18.6374 10.4166 18.3874V16.3874C10.4166 15.8041 10.6666 15.3041 11 14.8874ZM7.49998 7.55408H8.33331C8.83331 7.55408 9.16665 7.88741 9.16665 8.38741C9.16665 8.88741 8.83331 9.22074 8.33331 9.22074H7.49998C6.99998 9.22074 6.66665 8.88741 6.66665 8.38741C6.66665 7.88741 6.99998 7.55408 7.49998 7.55408ZM7.49998 15.8874C6.99998 15.8874 6.66665 15.5541 6.66665 15.0541C6.66665 14.5541 6.99998 14.2207 7.49998 14.2207C7.99998 14.2207 8.33331 14.5541 8.33331 15.0541C8.33331 15.5541 7.99998 15.8874 7.49998 15.8874ZM7.49998 12.5541C6.99998 12.5541 6.66665 12.2207 6.66665 11.7207C6.66665 11.2207 6.99998 10.8874 7.49998 10.8874H10.8333C11.3333 10.8874 11.6666 11.2207 11.6666 11.7207C11.6666 12.2207 11.3333 12.5541 10.8333 12.5541H7.49998ZM18.0833 14.8041L16.0833 12.8041C15.75 12.4707 15.25 12.4707 14.9166 12.8041L11.9166 15.8041C11.75 15.9707 11.6666 16.1374 11.6666 16.3874V18.3874C11.6666 18.8874 12 19.2207 12.5 19.2207H14.5C14.75 19.2207 14.9166 19.1374 15.0833 18.9707L18.0833 15.9707C18.4166 15.6374 18.4166 15.1374 18.0833 14.8041Z" fill="#CE9A5D"/>
</svg>
