<svg width="32" height="32" viewBox="0 0 32 32" fill="none" xmlns="http://www.w3.org/2000/svg">
<g id="Mail" clip-path="url(#clip0_237_516)">
<path id="Vector" d="M26.666 5.3335H5.33268C3.85935 5.3335 2.67935 6.52683 2.67935 8.00016L2.66602 24.0002C2.66602 25.4735 3.85935 26.6668 5.33268 26.6668H26.666C28.1394 26.6668 29.3327 25.4735 29.3327 24.0002V8.00016C29.3327 6.52683 28.1394 5.3335 26.666 5.3335ZM26.666 10.1126C26.666 10.4574 26.4884 10.7778 26.196 10.9606L17.0593 16.671C16.4108 17.0763 15.5879 17.0763 14.9394 16.671L5.80268 10.9606C5.5103 10.7778 5.33268 10.4574 5.33268 10.1126V9.80441C5.33268 9.01898 6.19663 8.54013 6.86268 8.95641L15.4694 14.3356C15.7936 14.5382 16.2051 14.5382 16.5293 14.3356L25.136 8.95641C25.8021 8.54013 26.666 9.01897 26.666 9.80441V10.1126Z" fill="#7AC8C9"/>
</g>
<defs>
<clipPath id="clip0_237_516">
<rect width="32" height="32" fill="white"/>
</clipPath>
</defs>
</svg>
