<svg width="20" height="20" viewBox="0 0 20 20" fill="none" xmlns="http://www.w3.org/2000/svg">
<g id="Phone" clip-path="url(#clip0_244_331)">
<path id="Vector" d="M8.25952 5.03959C8.02077 2.29334 5.15577 0.945843 5.03452 0.890843C4.92117 0.83756 4.79415 0.820536 4.67077 0.842093C1.36327 1.39084 0.865772 3.31584 0.845772 3.39584C0.818561 3.50732 0.822889 3.62418 0.858272 3.73334C4.80327 15.9733 13.002 18.2421 15.697 18.9883C15.9045 19.0458 16.0758 19.0921 16.2058 19.1346C16.3541 19.1831 16.5153 19.1737 16.657 19.1083C16.7395 19.0708 18.687 18.1533 19.1633 15.1608C19.1844 15.0302 19.1634 14.8962 19.1033 14.7783C19.0608 14.6958 18.042 12.7571 15.217 12.0721C15.1212 12.0476 15.0208 12.0467 14.9246 12.0696C14.8283 12.0924 14.7391 12.1383 14.6645 12.2033C13.7733 12.9646 12.542 13.7758 12.0108 13.8596C8.44952 12.1183 6.46077 8.77709 6.38577 8.14334C6.34202 7.78709 7.15827 6.53584 8.09702 5.51834C8.15602 5.4543 8.20096 5.37862 8.22895 5.29617C8.25694 5.21371 8.26735 5.12631 8.25952 5.03959Z" fill="#7AC8C9"/>
</g>
<defs>
<clipPath id="clip0_244_331">
<rect width="20" height="20" fill="white"/>
</clipPath>
</defs>
</svg>
