<svg width="53" height="42" viewBox="0 0 53 42" fill="none" xmlns="http://www.w3.org/2000/svg">
<g id="_2524085714304">
<path id="Path 1" d="M0 42L53 34.9046V0L0 7.09538V42ZM2.74564 9.50381L50.2583 3.15V32.4962L2.74564 38.85V9.50381Z" fill="#F43E36"/>
<g id="Group 1">
<path id="Path 2" d="M7.21639 20.2115C7.67478 20.4414 8.15712 20.6197 8.65459 20.7431C9.03309 20.8268 9.42294 20.8459 9.80776 20.7995C10.1428 20.7667 10.4609 20.6362 10.723 20.4241C10.8281 20.3429 10.9135 20.2388 10.9728 20.1197C11.0322 20.0006 11.0638 19.8695 11.0655 19.7364C11.0655 19.361 10.6602 18.9922 9.84437 18.6352C9.71362 18.5787 9.61425 18.5289 9.53842 18.5039L8.92131 18.2414C8.39652 18.0379 7.93433 17.6993 7.58117 17.2597C7.28373 16.852 7.13008 16.3565 7.14448 15.8514C7.14384 15.4888 7.2177 15.1299 7.36145 14.7973C7.5052 14.4646 7.71575 14.1653 7.97994 13.9181C8.56733 13.3524 9.32617 12.9999 10.1359 12.9166C10.487 12.8709 10.8418 12.8604 11.195 12.8851C11.6203 12.9177 12.0431 12.9782 12.4606 13.0662V15.2253C12.0589 15.0225 11.6368 14.8632 11.2015 14.7502C10.8738 14.6563 10.5314 14.6247 10.1921 14.657C9.92487 14.6833 9.67118 14.7878 9.46259 14.9575C9.37877 15.0278 9.31174 15.116 9.26648 15.2158C9.22122 15.3155 9.19888 15.4242 9.20111 15.5337C9.19852 15.69 9.25398 15.8416 9.35669 15.959C9.48695 16.1016 9.6492 16.2109 9.82998 16.2779L10.9021 16.7281C11.5851 16.9644 12.2053 17.354 12.7155 17.8674C13.0369 18.2778 13.2027 18.7894 13.1836 19.3111C13.1913 19.7357 13.1143 20.1575 12.9571 20.5518C12.7999 20.946 12.5658 21.3047 12.2684 21.6067C11.6168 22.2607 10.7609 22.6695 9.84437 22.7643C9.47432 22.8081 9.10142 22.8226 8.72912 22.8076C8.28556 22.7849 7.84398 22.7327 7.40729 22.6514L7.21639 20.2115ZM17.625 13.8984L17.3256 13.9417V16.3947L17.7178 16.3383C18.1789 16.3014 18.619 16.1294 18.9834 15.8435C19.125 15.7233 19.2378 15.5726 19.3134 15.4027C19.389 15.2327 19.4255 15.0478 19.4201 14.8617C19.4383 14.6915 19.4075 14.5197 19.3312 14.3666C19.2549 14.2135 19.1365 14.0856 18.99 13.9981C18.5553 13.8279 18.0795 13.7936 17.625 13.8997V13.8984ZM15.1408 21.7445V12.5412L17.4942 12.2223C18.0644 12.1279 18.6439 12.1028 19.2201 12.1475C19.6219 12.1887 20.0096 12.3191 20.3549 12.5294C20.6897 12.7257 20.9636 13.0115 21.1459 13.355C21.3338 13.7091 21.43 14.1049 21.4257 14.5061C21.435 14.9453 21.3515 15.3815 21.1807 15.786C21.0098 16.1905 20.7556 16.5541 20.4347 16.8528C19.6884 17.5255 18.7465 17.9396 17.7479 18.0341C17.6289 18.0524 17.5426 18.059 17.4864 18.0656C17.4302 18.0721 17.374 18.0656 17.3243 18.0787V21.4452L15.1408 21.7445ZM24.293 17.5904L26.6987 17.2649L25.5089 14.5428L24.293 17.5904ZM20.8583 20.9754L25.539 10.8586L25.6697 10.8402L30.2379 19.7114L27.9512 20.0186L27.372 18.7612L23.651 19.2612L23.0587 20.6814L20.8583 20.9754ZM38.0852 12.3667C37.7366 12.0404 37.3281 11.7855 36.8824 11.6159C36.4706 11.4715 36.0308 11.4265 35.5985 11.4847C34.8503 11.5745 34.1673 11.9564 33.6974 12.5478C33.2006 13.1596 32.9377 13.9295 32.9561 14.7187C32.9331 15.0769 32.9869 15.4359 33.1139 15.7714C33.2409 16.107 33.4381 16.4113 33.6922 16.6638C33.9492 16.8934 34.2555 17.0602 34.5873 17.1513C34.9191 17.2424 35.2674 17.2552 35.605 17.1888C36.0948 17.1193 36.5666 16.9557 36.9948 16.7071C37.4992 16.4135 37.9641 16.0562 38.3781 15.644L38.2343 18.1089C37.8441 18.429 37.4121 18.6939 36.9504 18.8964C36.4877 19.1 35.9987 19.237 35.4978 19.3032C34.9818 19.377 34.457 19.3623 33.9459 19.2599C33.4578 19.1594 32.9927 18.9685 32.5743 18.6969C31.9948 18.3207 31.5259 17.796 31.2159 17.177C30.8962 16.5144 30.7358 15.7856 30.7478 15.0494C30.7462 14.3775 30.8644 13.7107 31.0969 13.0807C31.3313 12.4526 31.6728 11.8704 32.1063 11.36C32.5439 10.8504 33.0696 10.4244 33.6582 10.1026C34.2327 9.78627 34.8603 9.5785 35.5096 9.48967C35.9979 9.42033 36.494 9.42653 36.9804 9.50806C37.4508 9.58887 37.904 9.74954 38.3206 9.98318L38.0852 12.3667ZM40.1772 18.3727V9.16944L45.824 8.41211V10.3074L42.3031 10.7825V12.4467L45.3193 12.0399V13.9246L42.3031 14.3315V16.1559L45.8737 15.6742V17.614L40.1772 18.3727Z" fill="white"/>
<path id="Path 3" d="M17.544 30.2097L19.9563 29.8842L18.76 27.1621L17.544 30.2097ZM14.1094 33.5946L18.7835 23.4779L18.9142 23.4595L23.4903 32.3307L21.2036 32.6378L20.6244 31.3739L16.9034 31.8739L16.3111 33.2941L14.1094 33.5946ZM27.0531 24.3415L26.7537 24.3848V26.8431L27.1459 26.7867C27.607 26.7498 28.0471 26.5778 28.4116 26.2919C28.5531 26.1716 28.6658 26.0209 28.7414 25.851C28.817 25.681 28.8535 25.4962 28.8482 25.3102C28.8664 25.14 28.8356 24.9681 28.7593 24.815C28.6831 24.6619 28.5646 24.534 28.4181 24.4465C27.9843 24.2731 27.5082 24.2364 27.0531 24.3415ZM24.569 32.1876V22.9844L26.9224 22.6654C27.4926 22.571 28.072 22.5459 28.6482 22.5906C29.05 22.6318 29.4377 22.7623 29.7831 22.9726C30.1178 23.1689 30.3917 23.4547 30.5741 23.7981C30.7624 24.1521 30.859 24.5479 30.8552 24.9492C30.8644 25.3884 30.7809 25.8247 30.6101 26.2292C30.4393 26.6336 30.185 26.9972 29.8641 27.296C29.1179 27.9688 28.1759 28.3829 27.1773 28.4772C27.0584 28.489 26.9721 28.5021 26.9158 28.5087C26.8596 28.5153 26.8034 28.5087 26.7537 28.5205V31.8871L24.569 32.1876ZM35.0835 23.2627L34.784 23.306V25.7642L35.1763 25.7078C35.6373 25.6709 36.0774 25.4988 36.4419 25.213C36.5835 25.0928 36.6963 24.9421 36.7719 24.7722C36.8475 24.6022 36.8839 24.4173 36.8786 24.2312C36.8968 24.0611 36.8659 23.8892 36.7897 23.7361C36.7134 23.583 36.595 23.4551 36.4484 23.3676C36.0145 23.1931 35.538 23.1551 35.0821 23.2587L35.0835 23.2627ZM32.5993 31.1088V21.9055L34.9527 21.5866C35.5229 21.4921 36.1024 21.467 36.6785 21.5118C37.0804 21.5529 37.4681 21.6834 37.8134 21.8937C38.1482 22.09 38.422 22.3758 38.6044 22.7193C38.7928 23.0732 38.8895 23.469 38.8855 23.8703C38.8948 24.3096 38.8113 24.7458 38.6404 25.1503C38.4696 25.5548 38.2154 25.9183 37.8945 26.2171C37.1482 26.8898 36.2063 27.3039 35.2077 27.3983C35.0887 27.4115 35.0024 27.4233 34.9462 27.4298C34.89 27.4364 34.8337 27.4298 34.784 27.443V30.8003L32.5993 31.1088Z" fill="white"/>
</g>
</g>
</svg>
