<svg width="32" height="32" viewBox="0 0 32 32" fill="none" xmlns="http://www.w3.org/2000/svg">
<g id="share">
<path id="Vector" d="M24.9332 18.8001C24.6665 18.6667 24.2665 18.6667 23.9998 18.6667C22.3998 18.6667 20.9331 19.3334 19.8665 20.6667L13.0665 17.6001C13.3332 16.6667 13.3332 15.6001 13.0665 14.5334L19.8665 11.4667C21.7332 13.7334 25.0665 14.0001 27.3332 12.1334C29.5998 10.2667 29.8665 6.93341 27.9998 4.66674C26.1332 2.40007 22.7998 2.13341 20.5331 4.00007C19.3332 4.93341 18.6665 6.40007 18.6665 8.00007C18.6665 8.26674 18.6665 8.66674 18.7998 8.93341L11.7332 12.1334C9.59982 10.1334 6.26648 10.1334 4.13315 12.2667C2.13315 14.4001 2.13315 17.7334 4.26648 19.8667C6.39982 21.8667 9.59982 21.8667 11.7332 19.8667L18.7998 23.0667C18.2665 26.0001 20.1332 28.8001 23.0665 29.2001C25.9998 29.7334 28.7998 27.8667 29.1998 24.9334C29.7332 22.0001 27.8665 19.3334 24.9332 18.8001Z" fill="#AABAC2"/>
</g>
</svg>
