<svg width="16" height="16" viewBox="0 0 16 16" fill="none" xmlns="http://www.w3.org/2000/svg">
<g id="Viber" clip-path="url(#clip0_244_498)">
<path id="Vector" d="M8.00033 0.666992C4.45366 0.666992 0.666992 1.15366 0.666992 7.00033C0.666992 10.0937 1.76033 12.0003 4.00033 12.8137V14.3137C4.00156 14.5205 4.06567 14.7222 4.18416 14.8917C4.30264 15.0613 4.4699 15.1909 4.66372 15.2632C4.85755 15.3355 5.06879 15.3472 5.26941 15.2967C5.47003 15.2462 5.65054 15.1358 5.78699 14.9803L7.24699 13.3337H8.00033C11.547 13.3337 15.3337 12.847 15.3337 7.00033C15.3337 1.15366 11.547 0.666992 8.00033 0.666992ZM8.00033 5.33366C8.35395 5.33366 8.69309 5.47413 8.94313 5.72418C9.19318 5.97423 9.33366 6.31337 9.33366 6.66699C9.33366 6.7554 9.29854 6.84018 9.23603 6.90269C9.17352 6.96521 9.08873 7.00033 9.00033 7.00033C8.91192 7.00033 8.82714 6.96521 8.76462 6.90269C8.70211 6.84018 8.66699 6.7554 8.66699 6.66699C8.66699 6.49018 8.59675 6.32061 8.47173 6.19559C8.34671 6.07056 8.17714 6.00033 8.00033 6.00033C7.91192 6.00033 7.82714 5.96521 7.76462 5.90269C7.70211 5.84018 7.66699 5.7554 7.66699 5.66699C7.66699 5.57859 7.70211 5.4938 7.76462 5.43129C7.82714 5.36878 7.91192 5.33366 8.00033 5.33366ZM7.66699 4.33366C7.66699 4.24525 7.70211 4.16047 7.76462 4.09796C7.82714 4.03544 7.91192 4.00033 8.00033 4.00033C8.70757 4.00033 9.38585 4.28128 9.88594 4.78137C10.386 5.28147 10.667 5.95975 10.667 6.66699C10.667 6.7554 10.6319 6.84018 10.5694 6.90269C10.5068 6.96521 10.4221 7.00033 10.3337 7.00033C10.2453 7.00033 10.1605 6.96521 10.098 6.90269C10.0354 6.84018 10.0003 6.7554 10.0003 6.66699C10.0003 6.13656 9.78961 5.62785 9.41454 5.25278C9.03947 4.87771 8.53076 4.66699 8.00033 4.66699C7.91192 4.66699 7.82714 4.63187 7.76462 4.56936C7.70211 4.50685 7.66699 4.42206 7.66699 4.33366ZM11.3337 9.66699C11.2541 10.1378 11.0088 10.5646 10.642 10.8703C10.2752 11.176 9.81109 11.3403 9.33366 11.3337C8.28699 11.3337 6.27366 10.0803 5.43366 9.23366C4.59366 8.38699 3.33366 6.38033 3.33366 5.33366C3.32699 4.85623 3.49135 4.39216 3.79702 4.02535C4.1027 3.65854 4.52952 3.41319 5.00033 3.33366H5.66699C5.72947 3.33353 5.79072 3.35097 5.84376 3.38397C5.8968 3.41698 5.9395 3.46422 5.96699 3.52033C5.96699 3.52033 6.36699 4.33366 6.63366 4.85366C6.90033 5.37366 6.37366 6.11366 6.05366 6.43366C6.24446 6.92996 6.53229 7.38324 6.90033 7.76699C7.28408 8.13503 7.73736 8.42286 8.23366 8.61366C8.54752 8.2527 8.98036 8.01617 9.45366 7.94699C9.57668 7.94711 9.69787 7.97684 9.80699 8.03366L11.1403 8.70033C11.1964 8.72781 11.2437 8.77051 11.2767 8.82356C11.3097 8.8766 11.3271 8.93785 11.327 9.00033L11.3337 9.66699ZM11.667 7.00033C11.5786 7.00033 11.4938 6.96521 11.4313 6.90269C11.3688 6.84018 11.3337 6.7554 11.3337 6.66699C11.3337 5.78294 10.9825 4.93509 10.3573 4.30997C9.73223 3.68485 8.88438 3.33366 8.00033 3.33366C7.91192 3.33366 7.82714 3.29854 7.76462 3.23603C7.70211 3.17352 7.66699 3.08873 7.66699 3.00033C7.66699 2.91192 7.70211 2.82714 7.76462 2.76462C7.82714 2.70211 7.91192 2.66699 8.00033 2.66699C9.06119 2.66699 10.0786 3.08842 10.8288 3.83857C11.5789 4.58871 12.0003 5.60613 12.0003 6.66699C12.0003 6.7554 11.9652 6.84018 11.9027 6.90269C11.8402 6.96521 11.7554 7.00033 11.667 7.00033Z" fill="#AABAC2"/>
</g>
<defs>
<clipPath id="clip0_244_498">
<rect width="16" height="16" fill="white"/>
</clipPath>
</defs>
</svg>
