<svg width="24" height="24" viewBox="0 0 24 24" fill="none" xmlns="http://www.w3.org/2000/svg">
<path fill-rule="evenodd" clip-rule="evenodd" d="M0.575419 11.0774C0.195563 11.6414 0.195563 12.3586 0.57542 12.9226C1.99261 15.0268 5.979 20 11.9999 20C18.0208 20 22.0072 15.0268 23.4243 12.9226C23.8042 12.3586 23.8042 11.6414 23.4243 11.0774C22.0072 8.97322 18.0208 4 11.9999 4C5.979 4 1.99261 8.97322 0.575419 11.0774ZM21.2253 12.5623C21.4766 12.2289 21.4766 11.7711 21.2253 11.4377C20.7744 10.8396 20.1838 10.1325 19.4653 9.43001C17.61 7.61595 15.0852 6 11.9999 6C8.91454 6 6.38977 7.61595 4.53448 9.43001C3.81599 10.1325 3.22532 10.8396 2.77442 11.4377C2.52314 11.7711 2.52314 12.2289 2.77442 12.5623C3.22532 13.1604 3.81599 13.8675 4.53448 14.57C6.38977 16.3841 8.91454 18 11.9999 18C15.0852 18 17.61 16.3841 19.4653 14.57C20.1838 13.8675 20.7744 13.1604 21.2253 12.5623Z" fill="#666F77"/>
<path fill-rule="evenodd" clip-rule="evenodd" d="M12 11C11.4477 11 11 11.4477 11 12C11 12.5523 11.4477 13 12 13C12.5523 13 13 12.5523 13 12C13 11.4477 12.5523 11 12 11ZM9 12C9 10.3431 10.3431 9 12 9C13.6569 9 15 10.3431 15 12C15 13.6569 13.6569 15 12 15C10.3431 15 9 13.6569 9 12Z" fill="#666F77"/>
</svg>
