<svg width="16" height="16" viewBox="0 0 16 16" fill="none" xmlns="http://www.w3.org/2000/svg">
<g id="Whatsapp" clip-path="url(#clip0_244_500)">
<path id="Vector" d="M8.00201 0H7.99801C3.58701 0 1.04969e-05 3.588 1.04969e-05 8C-0.0027286 9.68501 0.530659 11.3272 1.52301 12.689L0.526011 15.661L3.60101 14.678C4.90538 15.5434 6.43669 16.0034 8.00201 16C12.413 16 16 12.411 16 8C16 3.589 12.413 0 8.00201 0ZM12.657 11.297C12.464 11.842 11.698 12.294 11.087 12.426C10.669 12.515 10.123 12.586 8.28501 11.824C5.93401 10.85 4.42001 8.461 4.30201 8.306C4.18901 8.151 3.35201 7.041 3.35201 5.893C3.35201 4.745 3.93501 4.186 4.17001 3.946C4.36301 3.749 4.68201 3.659 4.98801 3.659C5.08701 3.659 5.17601 3.664 5.25601 3.668C5.49101 3.678 5.60901 3.692 5.76401 4.063C5.95701 4.528 6.42701 5.676 6.48301 5.794C6.54001 5.912 6.59701 6.072 6.51701 6.227C6.44201 6.387 6.37601 6.458 6.25801 6.594C6.14001 6.73 6.02801 6.834 5.91001 6.98C5.80201 7.107 5.68001 7.243 5.81601 7.478C5.95201 7.708 6.42201 8.475 7.11401 9.091C8.00701 9.886 8.73101 10.14 8.99001 10.248C9.18301 10.328 9.41301 10.309 9.55401 10.159C9.73301 9.966 9.95401 9.646 10.179 9.331C10.339 9.105 10.541 9.077 10.753 9.157C10.969 9.232 12.112 9.797 12.347 9.914C12.582 10.032 12.737 10.088 12.794 10.187C12.85 10.286 12.85 10.751 12.657 11.297Z" fill="#AABAC2"/>
</g>
<defs>
<clipPath id="clip0_244_500">
<rect width="16" height="16" fill="white"/>
</clipPath>
</defs>
</svg>
