<svg width="48" height="44" viewBox="0 0 48 44" fill="none" xmlns="http://www.w3.org/2000/svg">
<g id="Warning" clip-path="url(#clip0_258_2162)">
<path id="Vector" d="M46.8489 31.098L31.3529 4.24708C29.8183 1.5876 27.0695 0 24 0C20.9305 0 18.1817 1.5876 16.6471 4.24708L1.15109 31.098C-0.383878 33.7574 -0.383516 36.9327 1.15109 39.5921C2.68606 42.2515 5.4348 43.8392 8.50438 43.8392H39.4957C42.5652 43.8392 45.314 42.2516 46.8489 39.5921C48.3835 36.9327 48.3839 33.7574 46.8489 31.098Z" fill="#FE5722"/>
<path id="Vector_2" d="M46.8486 31.098L31.3526 4.24708C29.818 1.5876 27.0692 0 23.9997 0C23.0865 0 22.208 0.156444 21.375 0.423798C23.3417 1.0553 25.0253 2.3788 26.1032 4.24702L41.5993 31.0979C43.1342 33.7574 43.1339 36.9326 41.5993 39.5921C40.0643 42.2515 37.3155 43.8391 34.246 43.8391H39.4953C42.5648 43.8391 45.3136 42.2515 46.8485 39.5921C48.3831 36.9327 48.3836 33.7574 46.8486 31.098Z" fill="#ED481B"/>
<path id="Vector_3" d="M41.4252 33.8468L26.1954 7.45667C25.7373 6.66251 24.9167 6.18848 24.0002 6.18848C23.0837 6.18848 22.2631 6.66251 21.8051 7.45667L6.57529 33.8468C6.11683 34.6406 6.11683 35.5886 6.57529 36.3824C7.03334 37.1765 7.85393 37.6506 8.77044 37.6506H39.2301C40.1466 37.6506 40.9672 37.1765 41.4252 36.3824C41.8836 35.5886 41.8836 34.6406 41.4252 33.8468Z" fill="#FEC007"/>
<path id="Vector_4" d="M41.4247 33.8468L26.1949 7.45667C25.7368 6.66251 24.9162 6.18848 23.9997 6.18848C23.0832 6.18848 22.2626 6.66251 21.8046 7.45667L21.7969 7.46988L37.019 33.8468C37.4774 34.6406 37.4774 35.5886 37.019 36.3824C36.561 37.1766 35.7404 37.6506 34.8239 37.6506H39.2295C40.146 37.6506 40.9666 37.1766 41.4247 36.3824C41.8831 35.5886 41.8831 34.6406 41.4247 33.8468Z" fill="#EDAD0C"/>
<path id="Vector_5" d="M23.9998 27.2229C23.1716 27.2229 22.5 26.5512 22.5 25.7225V18.0268C22.5 17.1981 23.1716 16.5264 23.9998 16.5264C24.8281 16.5264 25.4996 17.1981 25.4996 18.0268V25.7225C25.4996 26.5512 24.8281 27.2229 23.9998 27.2229ZM23.9998 31.8153C23.6022 31.8153 23.2199 31.6578 22.9424 31.3727C22.6575 31.0952 22.5001 30.7125 22.5001 30.3149C22.5001 29.9173 22.6575 29.5347 22.9424 29.2572C23.4975 28.6945 24.5022 28.6945 25.057 29.2572C25.3422 29.5348 25.4996 29.9173 25.4996 30.3149C25.4996 30.705 25.3422 31.0951 25.057 31.3727C24.7797 31.6578 24.3971 31.8153 23.9998 31.8153Z" fill="#37474F"/>
</g>
<defs>
<clipPath id="clip0_258_2162">
<rect width="48" height="43.8392" fill="white"/>
</clipPath>
</defs>
</svg>
