<svg width="581" height="152" viewBox="0 0 581 152" fill="none" xmlns="http://www.w3.org/2000/svg">
<path d="M581 132.923C581 143.459 572.459 152 561.923 152L40 152C17.9086 152 1.39968e-06 134.091 3.12627e-06 112L8.75356e-06 39.9999C1.04801e-05 17.9086 17.9086 -5.50632e-05 40 -5.29029e-05L425.453 -1.52105e-05C447.544 -1.30503e-05 465.453 17.9086 465.453 40L465.453 73.8466C465.453 95.938 483.362 113.847 505.453 113.847L561.923 113.847C572.459 113.847 581 122.388 581 132.923Z" fill="#549DE5"/>
<g clip-path="url(#clip0_208_9629)">
<circle cx="528.5" cy="52.5" r="52" stroke="#535353"/>
<path d="M492.047 46.4H502.361V59H500.957V47.732H493.451V59H492.047V46.4ZM509.291 59.216C508.379 59.216 507.569 59.024 506.861 58.64C506.165 58.244 505.619 57.692 505.223 56.984C504.839 56.276 504.647 55.466 504.647 54.554C504.647 53.654 504.833 52.856 505.205 52.16C505.589 51.452 506.123 50.906 506.807 50.522C507.491 50.126 508.277 49.928 509.165 49.928C510.569 49.928 511.673 50.336 512.477 51.152C513.281 51.968 513.683 53.078 513.683 54.482C513.683 54.746 513.677 54.944 513.665 55.076H506.015C506.087 55.976 506.423 56.684 507.023 57.2C507.623 57.716 508.391 57.974 509.327 57.974C509.903 57.974 510.461 57.866 511.001 57.65C511.541 57.434 511.955 57.146 512.243 56.786L513.107 57.596C512.687 58.1 512.135 58.496 511.451 58.784C510.779 59.072 510.059 59.216 509.291 59.216ZM512.405 53.924C512.357 53.084 512.045 52.412 511.469 51.908C510.893 51.392 510.137 51.134 509.201 51.134C508.313 51.134 507.587 51.386 507.023 51.89C506.471 52.382 506.141 53.06 506.033 53.924H512.405ZM515.735 50.108H516.941L516.959 51.656C517.295 51.116 517.775 50.696 518.399 50.396C519.023 50.084 519.719 49.928 520.487 49.928C521.351 49.928 522.119 50.126 522.791 50.522C523.475 50.906 524.003 51.452 524.375 52.16C524.759 52.856 524.951 53.654 524.951 54.554C524.951 55.454 524.759 56.258 524.375 56.966C524.003 57.662 523.475 58.208 522.791 58.604C522.119 58.988 521.351 59.18 520.487 59.18C519.755 59.18 519.089 59.042 518.489 58.766C517.901 58.49 517.427 58.106 517.067 57.614V63.23H515.735V50.108ZM517.067 54.554C517.067 55.214 517.205 55.802 517.481 56.318C517.769 56.834 518.159 57.236 518.651 57.524C519.143 57.8 519.707 57.938 520.343 57.938C520.979 57.938 521.543 57.8 522.035 57.524C522.527 57.236 522.911 56.834 523.187 56.318C523.475 55.802 523.619 55.214 523.619 54.554C523.619 53.894 523.475 53.306 523.187 52.79C522.911 52.274 522.527 51.878 522.035 51.602C521.543 51.314 520.979 51.17 520.343 51.17C519.707 51.17 519.143 51.314 518.651 51.602C518.159 51.878 517.769 52.274 517.481 52.79C517.205 53.306 517.067 53.894 517.067 54.554ZM531.141 59.216C530.229 59.216 529.419 59.024 528.711 58.64C528.015 58.244 527.469 57.692 527.073 56.984C526.689 56.276 526.497 55.466 526.497 54.554C526.497 53.654 526.683 52.856 527.055 52.16C527.439 51.452 527.973 50.906 528.657 50.522C529.341 50.126 530.127 49.928 531.015 49.928C532.419 49.928 533.523 50.336 534.327 51.152C535.131 51.968 535.533 53.078 535.533 54.482C535.533 54.746 535.527 54.944 535.515 55.076H527.865C527.937 55.976 528.273 56.684 528.873 57.2C529.473 57.716 530.241 57.974 531.177 57.974C531.753 57.974 532.311 57.866 532.851 57.65C533.391 57.434 533.805 57.146 534.093 56.786L534.957 57.596C534.537 58.1 533.985 58.496 533.301 58.784C532.629 59.072 531.909 59.216 531.141 59.216ZM534.255 53.924C534.207 53.084 533.895 52.412 533.319 51.908C532.743 51.392 531.987 51.134 531.051 51.134C530.163 51.134 529.437 51.386 528.873 51.89C528.321 52.382 527.991 53.06 527.883 53.924H534.255ZM537.585 50.108H538.917V54.338L538.899 56.75L544.497 50.108H545.577V59H544.245V54.392L544.263 52.34L538.683 59H537.585V50.108ZM540.051 46.4C540.147 46.892 540.315 47.264 540.555 47.516C540.807 47.756 541.149 47.876 541.581 47.876C542.433 47.876 542.949 47.384 543.129 46.4L544.083 46.706C543.759 48.218 542.925 48.974 541.581 48.974C540.249 48.974 539.421 48.218 539.097 46.706L540.051 46.4ZM550.773 51.332H547.605V50.108H555.255V51.332H552.105V59H550.773V51.332ZM557.29 50.108H558.622V54.338L558.604 56.75L564.202 50.108H565.282V59H563.95V54.392L563.968 52.34L558.388 59H557.29V50.108Z" fill="black"/>
<a href="https://megamarket.ru/catalog/?q=diox&#38;suggestionType=history">
<rect fill="black" fill-opacity="0" x="0.355469" y="-7.344" width="76.2944" height="27.288"/>
</a>
</g>
<path d="M50 92.3458V58H55.1351L70.0075 83.0724H67.2462L81.8764 58H87.0114L87.1083 92.3458H81.1013L81.0529 67.4696H82.3123L69.9106 88.4205H67.1008L54.5053 67.4696H55.9586V92.3458H50ZM103.865 72.278H120.723V77.528H103.865V72.278ZM104.349 86.9976H123.485V92.3458H98.0515V58H122.807V63.3481H104.349V86.9976ZM132.007 92.3458V58H155.019L154.97 63.3972H136.706L138.16 61.8762L138.208 92.3458H132.007ZM150.91 92.3458L166.169 58H172.37L187.679 92.3458H181.09L167.962 61.3855H170.481L157.401 92.3458H150.91ZM157.934 84.3972L159.629 79.3925H177.941L179.637 84.3972H157.934Z" fill="white"/>
<path d="M203.71 92.3458V58H208.865L223.794 83.0724H221.022L235.709 58H240.863L240.959 92.3458H234.93L234.882 67.4696H236.146L223.697 88.4205H220.876L208.233 67.4696H209.692V92.3458H203.71ZM246.159 92.3458L261.477 58H267.702L283.067 92.3458H276.454L263.276 61.3855H265.805L252.674 92.3458H246.159ZM253.211 84.3972L254.911 79.3925H273.294L274.996 84.3972H253.211ZM288.288 92.3458V58H302.292C305.308 58 307.884 58.4907 310.024 59.472C312.196 60.4533 313.867 61.8598 315.034 63.6916C316.2 65.5234 316.784 67.6986 316.784 70.2173C316.784 72.736 316.2 74.9112 315.034 76.743C313.867 78.5747 312.196 79.9812 310.024 80.9626C307.884 81.944 305.308 82.4346 302.292 82.4346H291.789L294.61 79.4416V92.3458H288.288ZM294.61 80.1285L291.789 77.0373H302.001C304.788 77.0373 306.88 76.4486 308.275 75.271C309.701 74.0608 310.413 72.3762 310.413 70.2173C310.413 68.0257 309.701 66.3411 308.275 65.1635C306.88 63.986 304.788 63.3972 302.001 63.3972H291.789L294.61 60.257V80.1285ZM345.28 92.3458L333.755 75.6145L338.861 72.4252L352.428 92.3458H345.28ZM322.764 92.3458V58H328.989V92.3458H322.764ZM327.092 77.8715V72.3762H338.569V77.8715H327.092ZM339.445 75.9089L333.658 75.1238L345.28 58H351.99L339.445 75.9089ZM362.555 72.278H379.478V77.528H362.555V72.278ZM363.042 86.9976H382.249V92.3458H356.72V58H381.569V63.3481H363.042V86.9976ZM396.445 92.3458V61.8271L397.952 63.3972H385.212V58H414V63.3972H401.26L402.718 61.8271V92.3458H396.445Z" fill="white"/>
<defs>
<clipPath id="clip0_208_9629">
<rect width="105" height="105" fill="white" transform="translate(476)"/>
</clipPath>
</defs>
</svg>
