<svg width="581" height="152" viewBox="0 0 581 152" fill="none" xmlns="http://www.w3.org/2000/svg">
<path d="M-1.99902e-06 132.923C-7.22364e-07 143.459 8.54093 152 19.0767 152L541 152C563.091 152 581 134.091 581 112L581 39.9999C581 17.9086 563.091 -5.50632e-05 541 -5.29029e-05L155.547 -1.52105e-05C133.456 -1.30503e-05 115.547 17.9086 115.547 40L115.547 73.8466C115.547 95.938 97.6385 113.847 75.5471 113.847L19.0767 113.847C8.54093 113.847 -3.27568e-06 122.388 -1.99902e-06 132.923Z" fill="#549DE5"/>
<g clip-path="url(#clip0_208_9652)">
<circle cx="52.5" cy="52.5" r="52" stroke="#535353"/>
<path d="M16.0475 46.4H26.3615V59H24.9575V47.732H17.4515V59H16.0475V46.4ZM33.291 59.216C32.379 59.216 31.569 59.024 30.861 58.64C30.165 58.244 29.619 57.692 29.223 56.984C28.839 56.276 28.647 55.466 28.647 54.554C28.647 53.654 28.833 52.856 29.205 52.16C29.589 51.452 30.123 50.906 30.807 50.522C31.491 50.126 32.277 49.928 33.165 49.928C34.569 49.928 35.673 50.336 36.477 51.152C37.281 51.968 37.683 53.078 37.683 54.482C37.683 54.746 37.677 54.944 37.665 55.076H30.015C30.087 55.976 30.423 56.684 31.023 57.2C31.623 57.716 32.391 57.974 33.327 57.974C33.903 57.974 34.461 57.866 35.001 57.65C35.541 57.434 35.955 57.146 36.243 56.786L37.107 57.596C36.687 58.1 36.135 58.496 35.451 58.784C34.779 59.072 34.059 59.216 33.291 59.216ZM36.405 53.924C36.357 53.084 36.045 52.412 35.469 51.908C34.893 51.392 34.137 51.134 33.201 51.134C32.313 51.134 31.587 51.386 31.023 51.89C30.471 52.382 30.141 53.06 30.033 53.924H36.405ZM39.7352 50.108H40.9412L40.9592 51.656C41.2952 51.116 41.7752 50.696 42.3992 50.396C43.0232 50.084 43.7192 49.928 44.4872 49.928C45.3512 49.928 46.1192 50.126 46.7912 50.522C47.4752 50.906 48.0032 51.452 48.3752 52.16C48.7592 52.856 48.9512 53.654 48.9512 54.554C48.9512 55.454 48.7592 56.258 48.3752 56.966C48.0032 57.662 47.4752 58.208 46.7912 58.604C46.1192 58.988 45.3512 59.18 44.4872 59.18C43.7552 59.18 43.0892 59.042 42.4892 58.766C41.9012 58.49 41.4272 58.106 41.0672 57.614V63.23H39.7352V50.108ZM41.0672 54.554C41.0672 55.214 41.2052 55.802 41.4812 56.318C41.7692 56.834 42.1592 57.236 42.6512 57.524C43.1432 57.8 43.7072 57.938 44.3432 57.938C44.9792 57.938 45.5432 57.8 46.0352 57.524C46.5272 57.236 46.9112 56.834 47.1872 56.318C47.4752 55.802 47.6192 55.214 47.6192 54.554C47.6192 53.894 47.4752 53.306 47.1872 52.79C46.9112 52.274 46.5272 51.878 46.0352 51.602C45.5432 51.314 44.9792 51.17 44.3432 51.17C43.7072 51.17 43.1432 51.314 42.6512 51.602C42.1592 51.878 41.7692 52.274 41.4812 52.79C41.2052 53.306 41.0672 53.894 41.0672 54.554ZM55.1407 59.216C54.2287 59.216 53.4187 59.024 52.7107 58.64C52.0147 58.244 51.4687 57.692 51.0727 56.984C50.6887 56.276 50.4967 55.466 50.4967 54.554C50.4967 53.654 50.6827 52.856 51.0547 52.16C51.4387 51.452 51.9727 50.906 52.6567 50.522C53.3407 50.126 54.1267 49.928 55.0147 49.928C56.4187 49.928 57.5227 50.336 58.3267 51.152C59.1307 51.968 59.5327 53.078 59.5327 54.482C59.5327 54.746 59.5267 54.944 59.5147 55.076H51.8647C51.9367 55.976 52.2727 56.684 52.8727 57.2C53.4727 57.716 54.2407 57.974 55.1767 57.974C55.7527 57.974 56.3107 57.866 56.8507 57.65C57.3907 57.434 57.8047 57.146 58.0927 56.786L58.9567 57.596C58.5367 58.1 57.9847 58.496 57.3007 58.784C56.6287 59.072 55.9087 59.216 55.1407 59.216ZM58.2547 53.924C58.2067 53.084 57.8947 52.412 57.3187 51.908C56.7427 51.392 55.9867 51.134 55.0507 51.134C54.1627 51.134 53.4367 51.386 52.8727 51.89C52.3207 52.382 51.9907 53.06 51.8827 53.924H58.2547ZM61.5848 50.108H62.9168V54.338L62.8988 56.75L68.4968 50.108H69.5768V59H68.2448V54.392L68.2628 52.34L62.6828 59H61.5848V50.108ZM64.0508 46.4C64.1468 46.892 64.3148 47.264 64.5548 47.516C64.8068 47.756 65.1488 47.876 65.5808 47.876C66.4328 47.876 66.9488 47.384 67.1288 46.4L68.0828 46.706C67.7588 48.218 66.9248 48.974 65.5808 48.974C64.2488 48.974 63.4208 48.218 63.0968 46.706L64.0508 46.4ZM74.7735 51.332H71.6055V50.108H79.2555V51.332H76.1055V59H74.7735V51.332ZM81.2899 50.108H82.6219V54.338L82.6039 56.75L88.2019 50.108H89.2819V59H87.9499V54.392L87.9679 52.34L82.3879 59H81.2899V50.108Z" fill="black"/>
<a href="https://www.ozon.ru/brand/deopack-100218848/">
<rect fill="black" fill-opacity="0" x="0.355469" y="-7.344" width="76.2944" height="27.288"/>
</a>
</g>
<g clip-path="url(#clip1_208_9652)">
<path d="M316.38 91.6188H291.107L323.372 48.887C324.075 47.9487 323.879 46.5803 322.942 45.8766C322.59 45.6029 322.122 45.4466 321.653 45.4466H274.974C270.873 45.4466 267.514 48.8088 267.514 52.9139C267.514 57.0189 270.873 60.3812 274.974 60.3812H295.95L263.568 103.152C262.826 104.09 263.022 105.42 263.959 106.162C264.35 106.475 264.818 106.632 265.287 106.592H316.34C320.442 106.397 323.606 102.878 323.411 98.7343C323.215 94.9029 320.169 91.8534 316.34 91.6579V91.6188H316.38ZM479.5 45.4466C475.399 45.4466 472.039 48.8088 472.039 52.9139V77.9743L431.728 45.9548C430.83 45.212 429.462 45.3293 428.72 46.2676C428.408 46.6585 428.252 47.1277 428.252 47.6359V99.1252C428.252 103.23 431.611 106.592 435.712 106.592C439.814 106.592 443.173 103.269 443.173 99.1252V74.0647L483.484 106.123C484.422 106.866 485.789 106.71 486.531 105.771C486.844 105.381 487 104.911 487 104.442V52.9139C486.961 48.7697 483.641 45.4466 479.5 45.4466ZM372.823 93.0263C355.754 93.0263 343.019 84.0342 343.019 75.9805C343.019 67.9267 355.793 58.9346 372.823 58.9346C389.893 58.9346 402.627 67.9267 402.627 75.9805C402.627 84.0342 389.932 93.0263 372.823 93.0263ZM372.823 44C348.137 44 328.098 58.3091 328.098 75.9805C328.098 93.6518 348.137 107.961 372.823 107.961C397.51 107.961 417.549 93.6518 417.549 75.9805C417.549 58.3091 397.51 44 372.823 44ZM225.991 93.0654C216.577 93.0654 208.922 85.4417 208.922 76.0195C208.922 66.5974 216.538 58.9346 225.952 58.9346C235.366 58.9346 243.022 66.5583 243.022 75.9805V76.0195C243.022 85.4026 235.405 93.0263 225.991 93.0654ZM225.991 44C208.336 44 194.039 58.3091 194 75.9805C194 93.6518 208.296 107.961 225.952 108C243.608 108 257.905 93.6909 257.944 76.0195V75.9805C257.905 58.3091 243.608 44 225.991 44Z" fill="white"/>
</g>
<defs>
<clipPath id="clip0_208_9652">
<rect width="105" height="105" fill="white"/>
</clipPath>
<clipPath id="clip1_208_9652">
<rect width="293" height="64" fill="white" transform="translate(194 44)"/>
</clipPath>
</defs>
</svg>
