<svg width="22" height="23" viewBox="0 0 22 23" fill="none" xmlns="http://www.w3.org/2000/svg">
<path d="M19.2507 13.3333C19.0075 13.3333 18.7744 13.4298 18.6025 13.6017C18.4306 13.7736 18.334 14.0068 18.334 14.2499V17.9166C18.334 18.1597 18.2374 18.3929 18.0655 18.5648C17.8936 18.7367 17.6604 18.8333 17.4173 18.8333H4.58398C4.34087 18.8333 4.10771 18.7367 3.9358 18.5648C3.7639 18.3929 3.66732 18.1597 3.66732 17.9166V14.2499C3.66732 14.0068 3.57074 13.7736 3.39883 13.6017C3.22692 13.4298 2.99377 13.3333 2.75065 13.3333C2.50754 13.3333 2.27438 13.4298 2.10247 13.6017C1.93056 13.7736 1.83398 14.0068 1.83398 14.2499V17.9166C1.83398 18.6459 2.12372 19.3454 2.63944 19.8611C3.15517 20.3769 3.85464 20.6666 4.58398 20.6666H17.4173C18.1467 20.6666 18.8461 20.3769 19.3619 19.8611C19.8776 19.3454 20.1673 18.6459 20.1673 17.9166V14.2499C20.1673 14.0068 20.0707 13.7736 19.8988 13.6017C19.7269 13.4298 19.4938 13.3333 19.2507 13.3333ZM10.3498 14.9008C10.437 14.9842 10.5398 15.0496 10.6523 15.0933C10.762 15.1417 10.8807 15.1668 11.0007 15.1668C11.1206 15.1668 11.2393 15.1417 11.349 15.0933C11.4615 15.0496 11.5643 14.9842 11.6515 14.9008L15.3182 11.2341C15.4908 11.0615 15.5877 10.8274 15.5877 10.5833C15.5877 10.3391 15.4908 10.105 15.3182 9.93242C15.1455 9.75981 14.9114 9.66284 14.6673 9.66284C14.4232 9.66284 14.1891 9.75981 14.0165 9.93242L11.9173 12.0408V3.24992C11.9173 3.0068 11.8207 2.77365 11.6488 2.60174C11.4769 2.42983 11.2438 2.33325 11.0007 2.33325C10.7575 2.33325 10.5244 2.42983 10.3525 2.60174C10.1806 2.77365 10.084 3.0068 10.084 3.24992V12.0408L7.98482 9.93242C7.89935 9.84695 7.79788 9.77915 7.68621 9.7329C7.57454 9.68664 7.45486 9.66284 7.33398 9.66284C7.21311 9.66284 7.09343 9.68664 6.98176 9.7329C6.87009 9.77915 6.76862 9.84695 6.68315 9.93242C6.59768 10.0179 6.52989 10.1194 6.48363 10.231C6.43737 10.3427 6.41357 10.4624 6.41357 10.5833C6.41357 10.7041 6.43737 10.8238 6.48363 10.9355C6.52989 11.0472 6.59768 11.1486 6.68315 11.2341L10.3498 14.9008Z" fill="white"/>
</svg>
