<!-- Generated by IcoMoon.io -->
<svg version="1.1" xmlns="http://www.w3.org/2000/svg" width="1024" height="1024" viewBox="0 0 1024 1024">
<title></title>
<g id="icomoon-ignore">
</g>
<path fill="none" stroke-linejoin="round" stroke-linecap="round" stroke-miterlimit="4" stroke-width="42.6667" stroke="#000" d="M191.744 339.627c30.43 118.724 92.209 227.089 178.874 313.754s195.031 148.446 313.755 178.876c91.349 23.253 168.96-55.296 168.96-149.589v-42.667c0-23.552-19.157-42.453-42.581-44.8-38.848-3.827-76.983-13.005-113.323-27.264l-64.853 64.853c-105.596-50.615-190.75-135.77-241.365-241.365l64.853-64.853c-14.276-36.337-23.462-74.472-27.307-113.323-2.304-23.467-21.205-42.581-44.757-42.581h-42.667c-94.293 0-172.843 77.611-149.589 168.96z"></path>
</svg>
