<svg width="26" height="36" viewBox="0 0 26 36" fill="none" xmlns="http://www.w3.org/2000/svg">
<path d="M12.9816 0C5.81144 0 0 5.77442 0 12.9172C0 18.3085 7.4089 30.0637 11.0445 35.0079C11.9993 36.3307 13.9732 36.3307 14.9371 35.0079C18.5727 30.0637 26 18.3085 26 12.9172C26 5.77442 20.1702 0 12.9816 0ZM12.9816 19.4579C9.35523 19.4579 6.41737 16.5387 6.41737 12.9172C6.41737 9.31387 9.35523 6.38561 12.9816 6.38561C16.6264 6.38561 19.5734 9.31387 19.5734 12.9172C19.5734 16.5387 16.6264 19.4579 12.9816 19.4579Z" fill="#FF2A3C"/>
</svg>
