<svg width="207" height="60" viewBox="0 0 207 60" fill="none" xmlns="http://www.w3.org/2000/svg">
<path d="M40.2184 8.07224L36.1067 12.3666L34.111 11.9742C31.7457 11.9742 29.6485 12.57 26.8041 14.13C22.5526 16.47 18.1793 21.1597 15.2451 25.5697C13.0594 28.8397 11.7524 31.2444 11.5728 34.0044C11.453 36.1044 12.0503 36.5723 13.0982 37.7123C14.1461 38.8523 14.7267 39.2827 16.9124 39.2527C19.4873 39.2227 21.7248 38.0658 24.9285 35.9958C33.6113 30.3558 40.8098 20.789 38.8936 15.749L38.7772 15.2941L38.6534 14.6642L39.2592 15.6508C41.2123 13.9213 42.3073 12.9517 44.2604 11.2222C46.8952 8.91224 49.7939 7.3803 49.8538 7.2303C49.6115 6.98837 45.1565 3.6367 44.7972 3.6367C44.7074 3.6367 42.5837 5.70224 40.2184 8.07224ZM31.8152 18.7174C34.7493 22.3474 27.1966 31.5292 20.8791 32.1592C19.7414 32.2492 19.5293 32.4832 18.8407 31.8832C15.6969 29.1832 21.2926 21.5974 28.179 18.7174C30.185 17.8774 31.0367 17.7574 31.8152 18.7174Z" fill="#ECECEC"/>
<path d="M43.247 24.3205C37.1691 31.2805 31.6608 37.8488 31.5111 38.1188C30.9721 39.1088 32.5247 40.7486 33.5127 40.2086C33.7822 40.0286 39.7137 34.5703 45.9248 28.3074L57.139 16.8756L56.1469 14.8823C55.6978 14.0423 54.4061 12.1198 54.1067 11.7598C53.6107 12.4122 54.1155 11.8405 43.247 24.3205Z" fill="#ECECEC"/>
<path d="M38.6196 15.8856C38.6895 17.3738 38.183 19.5023 37.2848 21.5723C35.5482 25.5923 30.5182 31.5023 26.2666 34.5323C22.524 37.2323 17.0229 39.0871 14.7773 38.6371C14.953 39.2546 15.0021 39.225 18.9543 43.215L23.4247 48.2197H26.2124C27.9789 48.0997 29.3505 47.2523 30.8775 46.5323C38.8716 42.8423 47.3766 34.5323 47.9591 25.8038C46.7884 26.9594 47.255 26.5223 40.9076 32.8823C33.6919 40.0823 32.9733 40.6223 32.0152 39.4523C31.2068 38.4623 31.8954 37.4423 38.692 29.6723L45.6789 21.6195L42.0794 18.0566L38.5108 14.3352L38.6196 15.8856Z" fill="#232428"/>
<path d="M24.6772 0.42992C23.7833 0.579597 21.7574 1.14838 20.1485 1.71716C0.782299 8.36293 -6.21932 31.9823 6.23462 48.5967C10.1972 53.8954 16.6328 58.0265 23.0981 59.4934C26.3158 60.2119 34.2709 60.152 37.2801 59.4036C47.8272 56.6794 56.11 48.477 59 37.8198C59.5959 35.6046 60.0903 33.0958 60.0805 30.0263C60.0656 25.3848 59.2085 21.9837 57.5997 18.3914L56.825 16.745L52.2665 21.3252L47.708 25.9053L47.5293 27.5518C47.4101 28.6595 46.9036 30.0964 45.98 31.9524C41.779 40.4242 31.5596 48.3872 25.4816 47.9382L23.7536 47.8184L18.0629 42.1007C12.6404 36.6523 12.402 36.353 12.253 35.0358C11.6274 29.4977 18.2714 20.0379 26.3158 15.0386C29.2655 13.2125 32.0959 12.2845 34.3603 12.4342L35.9989 12.524L40.3489 8.15338L44.669 3.78274C44.669 3.78274 46.3077 4.53114 42.3153 2.70505C38.3229 0.87896 35.7554 0.121777 30.6904 0.00203323C28.2472 -0.0279007 25.571 0.280239 24.6772 0.42992Z" fill="#EC4015"/>
<path d="M44.5588 10.9523C42.0138 13.1723 39.6471 15.2788 39.5273 15.3988C39.663 15.5556 40.8761 16.8323 42.5827 18.5423L45.6666 21.6323L49.9182 16.8323C52.2236 14.1623 54.1398 11.9123 54.1398 11.7923C54.1398 11.5523 49.6188 6.87226 49.3793 6.87226C49.2894 6.87226 47.1038 8.70226 44.5588 10.9523Z" fill="#EC4015"/>
<path d="M28.3024 18.1224C25.458 19.1724 21.2963 22.8024 19.44 25.8924C17.5537 29.0424 17.1944 30.8724 18.2423 32.1924C19.4998 33.8124 22.7334 33.0324 26.5359 30.1224C31.3863 26.4624 34.5301 20.0124 32.3145 18.2424C31.5061 17.5824 29.9492 17.5224 28.3024 18.1224Z" fill="#EC4015"/>
<path d="M130.681 21.6515C129.393 23.1215 127.836 24.8615 127.238 25.5215L126.13 26.7815L126.01 23.4815C125.89 19.6115 125.711 19.3415 123.196 19.3415C120.561 19.3415 120.681 18.8615 120.681 29.9915C120.681 41.1215 120.561 40.6415 123.196 40.6415C125.711 40.6415 125.89 40.3715 126.07 36.4715L126.22 33.1415L129.363 36.7715C132.567 40.4915 133.076 40.9415 134.124 40.9415C135.052 40.9415 137.148 38.9315 137.148 38.0615C137.148 37.3115 133.735 33.2615 131.25 31.0115L130.022 29.9015L133.166 26.8115C136.19 23.7815 137.148 22.5515 137.148 21.6215C137.148 21.3815 136.669 20.6915 136.04 20.0915C135.262 19.3415 134.693 19.0415 133.974 19.0415C133.136 19.0415 132.717 19.3715 130.681 21.6515Z" fill="white"/>
<path d="M74.9011 19.7615C74.6915 20.0015 74.5717 20.8415 74.6316 21.6215C74.7514 23.5415 75.3203 23.8415 79.1527 23.8415H82.0569V31.5815C82.0569 40.7915 82.027 40.6415 84.7516 40.6415C87.4762 40.6415 87.4463 40.7915 87.4463 31.5815V23.8415H90.3805C94.1829 23.8415 94.7518 23.5415 94.8716 21.6215C94.9314 20.8415 94.8117 20.0015 94.6021 19.7615C94.3326 19.4015 92.5961 19.3415 84.7516 19.3415C76.9071 19.3415 75.1706 19.4015 74.9011 19.7615Z" fill="white"/>
<path d="M103.674 19.8515C103.045 20.3915 94.6318 37.6415 94.6318 38.3915C94.6318 39.2615 95.051 39.8015 96.1588 40.3415C98.4343 41.5115 99.2727 41.1215 100.59 38.2715L101.578 36.1415H105.351H109.153L110.351 38.4815C111.279 40.2515 111.728 40.8215 112.267 40.8815C113.315 41.0315 114.243 40.7315 115.291 39.8315C116.039 39.2015 116.219 38.8715 116.099 38.2715C115.86 37.1615 107.955 20.8415 107.237 20.0015C106.518 19.1615 104.572 19.1015 103.674 19.8515ZM106.249 29.9915C106.608 30.7415 106.908 31.4315 106.908 31.4915C106.908 31.5815 106.249 31.6415 105.411 31.6415C104.602 31.6415 103.913 31.5815 103.913 31.4915C103.913 31.1915 105.231 28.6415 105.411 28.6415C105.5 28.6415 105.89 29.2415 106.249 29.9915Z" fill="white"/>
<path d="M149.694 20.0015C148.975 20.8115 141.071 37.1615 140.831 38.2715C140.592 39.5915 142.867 41.1515 144.664 40.8815C145.203 40.8215 145.652 40.2515 146.58 38.4815L147.778 36.1415H151.58H155.383L156.52 38.4515C157.538 40.5815 157.748 40.7915 158.616 40.8815C160.323 41.0615 162.299 39.7115 162.299 38.3615C162.299 37.6115 153.916 20.3915 153.257 19.8515C152.359 19.1015 150.412 19.1615 149.694 20.0015ZM152.359 29.9915C152.718 30.7415 153.017 31.4315 153.017 31.4915C153.017 31.5815 152.359 31.6415 151.52 31.6415C150.712 31.6415 150.023 31.5815 150.023 31.4915C150.023 31.1915 151.341 28.6415 151.52 28.6415C151.61 28.6415 151.999 29.2415 152.359 29.9915Z" fill="white"/>
<path d="M167.268 19.8216C166.848 20.2116 166.789 21.5616 166.789 29.9916C166.789 39.6816 166.789 39.7116 167.447 40.1616C168.435 40.8516 170.831 40.7916 171.579 40.0416C172.058 39.5616 172.178 39.0516 172.178 37.1916V34.9416H174.364C177.058 34.9416 178.316 34.5816 180.142 33.3516C182.837 31.5516 183.945 27.8916 182.897 24.4116C182.418 22.7616 180.831 21.0216 179.004 20.1216C177.537 19.3716 177.208 19.3416 172.597 19.3416C168.585 19.3416 167.657 19.4316 167.268 19.8216ZM177.088 25.3716C177.867 25.9716 178.106 27.0816 177.687 28.1916C177.358 29.0016 175.891 29.5416 173.974 29.5416H172.178V27.1416V24.7416H174.244C175.861 24.7416 176.459 24.8616 177.088 25.3716Z" fill="white"/>
<path d="M194.064 19.8515C193.436 20.4215 185.052 37.5815 185.052 38.3615C185.052 39.2615 185.471 39.7715 186.579 40.3415C188.855 41.5115 189.693 41.0915 191.07 38.0315L191.909 36.1415H195.741H199.574L200.771 38.4815C201.879 40.6415 202.029 40.7915 203.017 40.8815C203.735 40.9415 204.424 40.7615 205.113 40.2815C206.999 39.0215 206.879 38.5715 202.118 28.7615C199.813 23.9915 197.687 19.9115 197.418 19.7015C196.699 19.1615 194.813 19.2515 194.064 19.8515ZM196.669 29.9915C197.029 30.7415 197.328 31.4315 197.328 31.4915C197.328 31.5815 196.669 31.6415 195.831 31.6415C195.023 31.6415 194.334 31.5815 194.334 31.4915C194.334 31.1915 195.651 28.6415 195.831 28.6415C195.921 28.6415 196.31 29.2415 196.669 29.9915Z" fill="white"/>
</svg>
