<svg width="133" height="22" viewBox="0 0 133 22" fill="none" xmlns="http://www.w3.org/2000/svg">
<path d="M56.6807 2.65147C55.3933 4.12147 53.8364 5.86147 53.2375 6.52147L52.1297 7.78147L52.01 4.48147C51.8902 0.611467 51.7106 0.341467 49.1955 0.341467C46.5608 0.341467 46.6805 -0.138533 46.6805 10.9915C46.6805 22.1215 46.5608 21.6415 49.1955 21.6415C51.7106 21.6415 51.8902 21.3715 52.0699 17.4715L52.2196 14.1415L55.3633 17.7715C58.567 21.4915 59.076 21.9415 60.1239 21.9415C61.0521 21.9415 63.1479 19.9315 63.1479 19.0615C63.1479 18.3115 59.7347 14.2615 57.2496 12.0115L56.022 10.9015L59.1658 7.81147C62.1898 4.78147 63.1479 3.55147 63.1479 2.62147C63.1479 2.38147 62.6689 1.69147 62.0401 1.09147C61.2617 0.341467 60.6928 0.0414677 59.9742 0.0414677C59.1359 0.0414677 58.7167 0.371468 56.6807 2.65147Z" fill="white"/>
<path d="M0.901092 0.761452C0.691507 1.00145 0.571744 1.84145 0.631626 2.62145C0.751388 4.54145 1.32026 4.84145 5.15268 4.84145H8.05693V12.5815C8.05693 21.7915 8.02699 21.6415 10.7516 21.6415C13.4762 21.6415 13.4463 21.7915 13.4463 12.5815V4.84145H16.3805C20.1829 4.84145 20.7518 4.54145 20.8716 2.62145C20.9314 1.84145 20.8117 1.00145 20.6021 0.761452C20.3326 0.401451 18.5961 0.341452 10.7516 0.341452C2.90712 0.341452 1.17056 0.401451 0.901092 0.761452Z" fill="white"/>
<path d="M29.6739 0.851467C29.0452 1.39147 20.6318 18.6415 20.6318 19.3915C20.6318 20.2615 21.051 20.8015 22.1588 21.3415C24.4343 22.5115 25.2727 22.1215 26.59 19.2715L27.5781 17.1415H31.3506H35.1531L36.3507 19.4815C37.2789 21.2515 37.728 21.8215 38.2669 21.8815C39.3149 22.0315 40.243 21.7315 41.2909 20.8315C42.0395 20.2015 42.2191 19.8715 42.0993 19.2715C41.8598 18.1615 33.9555 1.84147 33.2369 1.00147C32.5183 0.161469 30.5722 0.101467 29.6739 0.851467ZM32.2488 10.9915C32.6081 11.7415 32.9075 12.4315 32.9075 12.4915C32.9075 12.5815 32.2488 12.6415 31.4105 12.6415C30.6021 12.6415 29.9135 12.5815 29.9135 12.4915C29.9135 12.1915 31.2309 9.64147 31.4105 9.64147C31.5003 9.64147 31.8896 10.2415 32.2488 10.9915Z" fill="white"/>
<path d="M75.6939 1.00147C74.9753 1.81147 67.0709 18.1615 66.8314 19.2715C66.5919 20.5915 68.8674 22.1515 70.6638 21.8815C71.2028 21.8215 71.6519 21.2515 72.58 19.4815L73.7777 17.1415H77.5801H81.3826L82.5204 19.4515C83.5383 21.5815 83.7479 21.7915 84.6162 21.8815C86.3228 22.0615 88.2989 20.7115 88.2989 19.3615C88.2989 18.6115 79.9155 1.39147 79.2568 0.851467C78.3586 0.101467 76.4124 0.161467 75.6939 1.00147ZM78.3586 10.9915C78.7179 11.7415 79.0173 12.4315 79.0173 12.4915C79.0173 12.5815 78.3586 12.6415 77.5203 12.6415C76.7119 12.6415 76.0232 12.5815 76.0232 12.4915C76.0232 12.1915 77.3406 9.64147 77.5203 9.64147C77.6101 9.64147 77.9993 10.2415 78.3586 10.9915Z" fill="white"/>
<path d="M93.2676 0.821569C92.8485 1.21157 92.7886 2.56157 92.7886 10.9916C92.7886 20.6816 92.7886 20.7116 93.4473 21.1616C94.4353 21.8516 96.8306 21.7916 97.5791 21.0416C98.0581 20.5616 98.1779 20.0516 98.1779 18.1916V15.9416H100.364C103.058 15.9416 104.316 15.5816 106.142 14.3516C108.837 12.5516 109.945 8.89157 108.897 5.41157C108.418 3.76157 106.831 2.02157 105.004 1.12157C103.537 0.371571 103.208 0.34157 98.5971 0.34157C94.585 0.34157 93.6569 0.43157 93.2676 0.821569ZM103.088 6.37157C103.867 6.97157 104.106 8.08157 103.687 9.19157C103.358 10.0016 101.891 10.5416 99.9744 10.5416H98.1779V8.14157V5.74157H100.244C101.861 5.74157 102.459 5.86157 103.088 6.37157Z" fill="white"/>
<path d="M120.064 0.851498C119.436 1.4215 111.052 18.5815 111.052 19.3615C111.052 20.2615 111.471 20.7715 112.579 21.3415C114.855 22.5115 115.693 22.0915 117.07 19.0315L117.909 17.1415H121.741H125.574L126.771 19.4815C127.879 21.6415 128.029 21.7915 129.017 21.8815C129.735 21.9415 130.424 21.7615 131.113 21.2815C132.999 20.0215 132.879 19.5715 128.118 9.7615C125.813 4.9915 123.687 0.911499 123.418 0.701498C122.699 0.161499 120.813 0.251497 120.064 0.851498ZM122.669 10.9915C123.029 11.7415 123.328 12.4315 123.328 12.4915C123.328 12.5815 122.669 12.6415 121.831 12.6415C121.023 12.6415 120.334 12.5815 120.334 12.4915C120.334 12.1915 121.651 9.6415 121.831 9.6415C121.921 9.6415 122.31 10.2415 122.669 10.9915Z" fill="white"/>
</svg>
