<svg width="48" height="48" viewBox="0 0 48 48" fill="none" xmlns="http://www.w3.org/2000/svg">
<g clip-path="url(#clip0_212_4137)">
<path fill-rule="evenodd" clip-rule="evenodd" d="M24 12.75C15.8538 12.75 9.25 19.3538 9.25 27.5C9.25 35.6462 15.8538 42.25 24 42.25C32.1462 42.25 38.75 35.6462 38.75 27.5C38.75 19.3538 32.1462 12.75 24 12.75ZM5.75 27.5C5.75 17.4208 13.9208 9.25 24 9.25C34.0792 9.25 42.25 17.4208 42.25 27.5C42.25 37.5792 34.0792 45.75 24 45.75C13.9208 45.75 5.75 37.5792 5.75 27.5Z" fill="#8B8E9E"/>
<path fill-rule="evenodd" clip-rule="evenodd" d="M32.6621 18.8378C33.3455 19.5212 33.3455 20.6292 32.6621 21.3126L25.2374 28.7373C24.554 29.4207 23.446 29.4207 22.7626 28.7373C22.0791 28.0538 22.0791 26.9458 22.7626 26.2624L30.1872 18.8378C30.8706 18.1543 31.9786 18.1543 32.6621 18.8378Z" fill="#EC4015"/>
<path fill-rule="evenodd" clip-rule="evenodd" d="M17.75 5C17.75 4.0335 18.5335 3.25 19.5 3.25H28.5C29.4665 3.25 30.25 4.0335 30.25 5C30.25 5.9665 29.4665 6.75 28.5 6.75H19.5C18.5335 6.75 17.75 5.9665 17.75 5Z" fill="#8B8E9E"/>
</g>
<defs>
<clipPath id="clip0_212_4137">
<rect width="48" height="48" fill="white"/>
</clipPath>
</defs>
</svg>
