<svg width="48" height="48" viewBox="0 0 48 48" fill="none" xmlns="http://www.w3.org/2000/svg">
<g clip-path="url(#clip0_212_4147)">
<path d="M25.6148 24.6076V23.3003C25.6148 22.4088 24.8921 21.686 24.0006 21.686C23.109 21.686 22.3863 22.4088 22.3863 23.3003V24.6076C17.5423 25.3703 13.7237 29.5187 13.1439 34.7063H12.556C11.6099 34.7063 10.843 35.4732 10.843 36.4193C10.843 37.3653 11.6099 38.1323 12.556 38.1323H35.444C36.39 38.1323 37.157 37.3653 37.157 36.4193C37.157 35.4732 36.39 34.7063 35.444 34.7063H34.8573C34.2775 29.5187 30.4588 25.3715 25.6148 24.6076ZM16.4046 34.7075C17.0234 30.8527 20.1945 27.908 24.0006 27.908C27.8066 27.908 30.9777 30.8527 31.5966 34.7075H16.4046Z" fill="#EC4015"/>
<path fill-rule="evenodd" clip-rule="evenodd" d="M22.3876 0.0939911C23.1789 -0.0247429 24.7385 -0.0377492 25.6161 0.0939911C30.903 0.887652 34.2775 4.98609 34.8573 10.1737H43.7355C45.5521 10.1737 47.0248 11.6464 47.0248 13.463V44.7108C47.0248 46.5274 45.5521 48 43.7355 48H4.26459C2.44799 48 0.975342 46.5274 0.975342 44.7108V13.463C0.975342 11.6464 2.44798 10.1737 4.26458 10.1737H13.1439C13.7237 4.98609 17.1006 0.887212 22.3876 0.0939911ZM31.5964 10.1737H16.4048C17.0241 6.31951 20.195 3.2388 24.0006 3.2388C27.8063 3.2388 30.9771 6.31951 31.5964 10.1737ZM43.8075 43.2711C43.8076 44.1795 43.0712 44.9158 42.1629 44.9158H5.83713C4.92883 44.9158 4.19251 44.1795 4.19251 43.2712V14.9026C4.19251 13.9943 4.92883 13.258 5.83713 13.258H42.1619C43.0702 13.258 43.8065 13.9942 43.8065 14.9025L43.8075 43.2711Z" fill="#8B8E9E"/>
</g>
<defs>
<clipPath id="clip0_212_4147">
<rect width="48" height="48" fill="white"/>
</clipPath>
</defs>
</svg>
