<svg width="29" height="26" viewBox="0 0 29 26" fill="none" xmlns="http://www.w3.org/2000/svg">
<path d="M27.7941 0.412109H1.02941C0.756395 0.412109 0.49456 0.517981 0.301508 0.706434C0.108456 0.894886 0 1.15048 0 1.41699V19.5049C0 19.7714 0.108456 20.027 0.301508 20.2155C0.49456 20.4039 0.756395 20.5098 1.02941 20.5098H18.5294L22.9486 24.8237C23.0926 24.9642 23.276 25.0599 23.4757 25.0987C23.6753 25.1375 23.8823 25.1176 24.0704 25.0415C24.2585 24.9654 24.4193 24.8367 24.5324 24.6714C24.6455 24.5062 24.7059 24.3119 24.7059 24.1131V20.5098H27.7941C28.0671 20.5098 28.329 20.4039 28.522 20.2155C28.7151 20.027 28.8235 19.7714 28.8235 19.5049V1.41699C28.8235 1.15048 28.7151 0.894886 28.522 0.706434C28.329 0.517981 28.0671 0.412109 27.7941 0.412109ZM17.5 14.4805H7.20588C6.93287 14.4805 6.67103 14.3746 6.47798 14.1862C6.28493 13.9977 6.17647 13.7421 6.17647 13.4756C6.17647 13.2091 6.28493 12.9535 6.47798 12.7651C6.67103 12.5766 6.93287 12.4707 7.20588 12.4707H17.5C17.773 12.4707 18.0349 12.5766 18.2279 12.7651C18.421 12.9535 18.5294 13.2091 18.5294 13.4756C18.5294 13.7421 18.421 13.9977 18.2279 14.1862C18.0349 14.3746 17.773 14.4805 17.5 14.4805ZM21.6176 8.45119H7.20588C6.93287 8.45119 6.67103 8.34532 6.47798 8.15686C6.28493 7.96841 6.17647 7.71282 6.17647 7.4463C6.17647 7.17979 6.28493 6.92419 6.47798 6.73574C6.67103 6.54729 6.93287 6.44142 7.20588 6.44142H21.6176C21.8907 6.44142 22.1525 6.54729 22.3456 6.73574C22.5386 6.92419 22.6471 7.17979 22.6471 7.4463C22.6471 7.71282 22.5386 7.96841 22.3456 8.15686C22.1525 8.34532 21.8907 8.45119 21.6176 8.45119Z" fill="white"/>
</svg>
