<svg width="25" height="29" viewBox="0 0 25 29" fill="none" xmlns="http://www.w3.org/2000/svg">
<g id="Frame" clip-path="url(#clip0_1_892)">
<g id="Group">
<g id="Layer 1">
<g id="Group_2">
<path id="Vector" fill-rule="evenodd" clip-rule="evenodd" d="M0.251465 11.6919H24.7483L24.4823 25.5646L8.92024 29L0.41679 23.216L0.251465 11.6919Z" fill="#AB5500"/>
<path id="Vector_2" fill-rule="evenodd" clip-rule="evenodd" d="M8.92024 29V11.6919H0.251465L0.41679 23.216L8.92024 29Z" fill="url(#paint0_radial_1_892)"/>
<path id="Vector_3" fill-rule="evenodd" clip-rule="evenodd" d="M8.92041 11.6919V29L24.4825 25.5646L24.7485 11.6919H8.92041Z" fill="url(#paint1_radial_1_892)"/>
<path id="Vector_4" style="mix-blend-mode:multiply" opacity="0.5" fill-rule="evenodd" clip-rule="evenodd" d="M1.89756 23.9455C0.891239 23.1869 0.546213 22.6472 0.395264 21.8157L0.416828 23.2161L8.92028 28.9927V27.3954C8.74777 27.833 8.14397 27.8768 7.648 27.658C6.09538 26.9651 3.29923 24.9958 1.90475 23.9455H1.89756Z" fill="url(#paint2_radial_1_892)"/>
<path id="Vector_5" style="mix-blend-mode:multiply" fill-rule="evenodd" clip-rule="evenodd" d="M8.92041 27.3954V28.9927L24.4825 25.5646L24.5256 23.2379C24.2884 24.1642 23.8356 24.6967 22.513 25.302C19.9828 26.4618 14.6708 27.6944 11.9106 27.9934C10.5377 28.1393 9.12886 28.1174 8.92041 27.3954Z" fill="url(#paint3_radial_1_892)"/>
<path id="Vector_6" style="mix-blend-mode:multiply" opacity="0.4" fill-rule="evenodd" clip-rule="evenodd" d="M0.273165 13.3841L0.258789 12.2317L8.92038 17.1331V19.2337C8.33815 17.2425 1.9336 12.91 0.273165 13.3841Z" fill="url(#paint4_radial_1_892)"/>
<path id="Vector_7" style="mix-blend-mode:multiply" opacity="0.75" fill-rule="evenodd" clip-rule="evenodd" d="M8.92041 19.2264C10.4011 16.5423 21.4348 14.5584 24.691 15.1638L24.7197 13.6029L8.9276 16.8486V19.2337L8.92041 19.2264Z" fill="url(#paint5_radial_1_892)"/>
<path id="Vector_8" fill-rule="evenodd" clip-rule="evenodd" d="M0.0575043 12.115L8.80535 17.1477L24.9209 14.1499L25 9.68614L0 7.72412L0.0575043 12.115Z" fill="#AB5500"/>
<path id="Vector_9" fill-rule="evenodd" clip-rule="evenodd" d="M0 7.72412L8.80535 12.5453V17.1477L0.0575043 12.115L0 7.72412Z" fill="url(#paint6_radial_1_892)"/>
<path id="Vector_10" fill-rule="evenodd" clip-rule="evenodd" d="M8.80542 12.5453L25.0001 9.68616L24.921 14.1499L8.80542 17.1477V12.5453Z" fill="url(#paint7_radial_1_892)"/>
<path id="Vector_11" fill-rule="evenodd" clip-rule="evenodd" d="M0 7.72411L8.80535 12.5453L25 9.68613L15.4974 5.20776L0 7.72411Z" fill="url(#paint8_radial_1_892)"/>
<path id="Vector_12" style="mix-blend-mode:screen" opacity="0.2" fill-rule="evenodd" clip-rule="evenodd" d="M10.667 16.4766C10.1135 15.9587 10.2214 14.5729 10.703 14.0259C11.9034 12.6473 22.3476 10.0726 24.0511 10.7801C24.8059 11.0938 24.9496 12.589 24.8706 13.3111C24.8203 13.7414 24.6693 14.0113 24.4752 14.2374L24.9209 14.1571L25 9.69336L8.8125 12.5525V17.1549L11.1558 16.7173C10.9761 16.6735 10.8036 16.6078 10.667 16.4839V16.4766Z" fill="url(#paint9_radial_1_892)"/>
<path id="Vector_13" style="mix-blend-mode:screen" opacity="0.5" fill-rule="evenodd" clip-rule="evenodd" d="M0.510351 12.1004C0.287522 11.5096 0.0718804 10.0144 0.531915 9.49651C1.27228 8.65772 3.28493 9.75908 3.98936 10.1165C5.21133 10.7364 7.38212 12.0347 7.98591 13.2674C8.17999 13.6612 8.32375 14.0916 8.39563 14.5292C8.4747 15.0033 8.41719 16.2214 7.87809 16.4183C7.79183 16.4475 7.69839 16.4548 7.61213 16.4548L8.81973 17.1477V12.5453L0 7.72412L0.0575043 12.115L0.725992 12.5015C0.632547 12.3775 0.560667 12.2463 0.510351 12.1077V12.1004Z" fill="url(#paint10_radial_1_892)"/>
<path id="Vector_14" style="mix-blend-mode:screen" opacity="0.3" fill-rule="evenodd" clip-rule="evenodd" d="M2.41507 7.87727C2.62353 7.51987 3.24889 7.26459 3.84549 7.10413L0.00708008 7.7241L8.81243 12.5453L24.9999 9.68612L22.7141 8.61394C22.9369 9.08803 22.5991 9.48919 21.7293 9.75176C18.6169 10.7145 13.6212 11.4877 10.4082 11.6554C9.88345 11.6846 9.35153 11.6554 8.8268 11.5825C6.88603 11.298 4.63618 10.1894 3.062 9.01509C2.45101 8.56288 2.221 8.1909 2.40789 7.87727H2.41507Z" fill="url(#paint11_radial_1_892)"/>
<path id="Vector_15" fill-rule="evenodd" clip-rule="evenodd" d="M3.42857 9.59863C4.35583 10.153 8.31644 12.4505 8.52489 12.6912C8.74772 12.9392 8.74772 13.9238 8.80523 16.2578C8.87711 15.2805 8.95618 12.9756 9.10713 12.7568C9.32996 12.5818 22.3259 10.1748 24.1876 9.82474C21.4202 10.277 9.27245 12.2754 8.85554 12.29C8.20862 12.1733 4.72242 10.2551 3.42139 9.59863H3.42857Z" fill="#FF6A66"/>
<path id="Vector_16" fill-rule="evenodd" clip-rule="evenodd" d="M15.7203 15.8639L15.3752 27.5777L18.6027 26.8702L18.9836 15.2658C18.998 13.7633 19.0124 12.2535 19.0268 10.751L15.749 11.3272C15.7418 12.8443 15.7275 14.3541 15.7203 15.8712V15.8639Z" fill="url(#paint12_radial_1_892)"/>
<path id="Vector_17" fill-rule="evenodd" clip-rule="evenodd" d="M6.08835 27.0744L5.8224 15.4336C5.8224 13.9238 5.80802 12.414 5.80083 10.9042L2.90405 9.32141C2.91843 10.8093 2.92562 12.29 2.93999 13.7779L3.24908 25.1489L6.08117 27.0744H6.08835Z" fill="url(#paint13_radial_1_892)"/>
<path id="Vector_18" fill-rule="evenodd" clip-rule="evenodd" d="M19.0267 10.7437C17.3087 9.87576 15.3392 9.12451 13.5997 8.26384C12.2484 7.59282 10.9545 6.85615 9.79005 6.14136L6.74951 6.63733C8.40276 7.42506 10.0057 8.16902 11.5439 8.97134C13.0031 9.72989 14.297 10.5687 15.7561 11.3272L19.0339 10.751L19.0267 10.7437Z" fill="url(#paint14_radial_1_892)"/>
<path id="Vector_19" style="mix-blend-mode:multiply" opacity="0.65" fill-rule="evenodd" clip-rule="evenodd" d="M14.3401 10.5395C13.5206 9.39438 15.6771 9.45273 16.6474 9.64236C15.6124 9.19015 14.5701 8.74523 13.5997 8.26384C12.2484 7.59282 10.9545 6.85615 9.79005 6.14136L6.74951 6.63733C8.40276 7.42506 10.0057 8.16902 11.5439 8.97134C12.5143 9.47461 13.42 10.0216 14.3401 10.5468V10.5395Z" fill="url(#paint15_radial_1_892)"/>
<path id="Vector_20" fill-rule="evenodd" clip-rule="evenodd" d="M5.80072 10.9041C8.58968 10.4228 11.0408 9.75173 13.8298 9.27764C16.36 8.84001 19.2927 8.42427 21.751 8.16169L18.6314 6.68835C16.5253 7.03846 14.5342 7.54172 12.4281 7.89912C9.29411 8.42427 6.04512 8.79625 2.91113 9.3214L5.80791 10.9041H5.80072Z" fill="url(#paint16_radial_1_892)"/>
<g id="Vector_21" style="mix-blend-mode:multiply" opacity="0.35">
<path fill-rule="evenodd" clip-rule="evenodd" d="M2.93981 13.778V13.5154C3.25608 13.9603 5.21841 15.2659 5.81502 15.0908V15.4263L5.84377 16.7465C5.78627 16.4548 5.63532 15.9953 5.18247 15.5066C4.47086 14.7407 3.29921 14.0259 2.95418 14.5584L2.93262 13.7707L2.93981 13.778Z" fill="#F39200"/>
</g>
<g id="Vector_22" style="mix-blend-mode:multiply" opacity="0.2">
<path fill-rule="evenodd" clip-rule="evenodd" d="M15.7203 15.864V15.4482C16.0438 16.0245 18.8112 15.3972 18.9837 14.7772V15.2586L18.9406 16.4694C18.8615 16.2068 18.7537 15.9734 18.4518 15.9223C17.8408 15.8275 16.8129 16.0901 16.1948 16.6225C15.8497 16.9216 15.6916 17.3446 15.6628 17.7312L15.7132 15.864H15.7203Z" fill="#F39200"/>
</g>
<g id="Vector_23" style="mix-blend-mode:multiply" opacity="0.5">
<path fill-rule="evenodd" clip-rule="evenodd" d="M6.08111 26.8192C5.15385 26.2576 4.13315 25.5646 3.24902 24.9374V25.1489L6.0883 27.0745V26.8192H6.08111Z" fill="#936037"/>
</g>
<g id="Vector_24" style="mix-blend-mode:multiply" opacity="0.5">
<path fill-rule="evenodd" clip-rule="evenodd" d="M18.6098 26.6295C17.5531 26.9213 16.439 27.1838 15.3823 27.41V27.5704L18.6026 26.8629V26.6295H18.6098Z" fill="#B17F4A"/>
</g>
<path id="Vector_25" style="mix-blend-mode:screen" fill-rule="evenodd" clip-rule="evenodd" d="M2.90405 9.31412C2.90405 9.31412 2.90405 9.93409 2.90405 9.95597C3.20595 9.85386 5.07484 10.7218 5.80083 11.6117C5.80083 11.5168 5.80083 10.9917 5.80083 10.8969C5.80083 10.8969 6.21055 10.8239 6.24649 10.8166C5.21141 10.3863 4.21228 9.81739 3.37128 9.23389C3.21314 9.26306 3.06219 9.28494 2.90405 9.31412Z" fill="url(#paint17_radial_1_892)"/>
<path id="Vector_26" style="mix-blend-mode:screen" fill-rule="evenodd" clip-rule="evenodd" d="M18.6169 10.5322C17.589 10.7437 16.4317 10.9553 15.3679 11.1157C15.4973 11.1814 15.6267 11.2543 15.7561 11.32L19.0338 10.7437L18.6241 10.5322H18.6169Z" fill="url(#paint18_radial_1_892)"/>
<path id="Vector_27" style="mix-blend-mode:multiply" opacity="0.5" fill-rule="evenodd" clip-rule="evenodd" d="M15.749 11.9982C16.82 11.6991 17.9486 11.4293 19.0268 11.2105C19.0268 11.0573 19.0268 10.8968 19.0268 10.7437L15.749 11.3199C15.749 11.546 15.749 11.7721 15.749 11.9982Z" fill="url(#paint19_radial_1_892)"/>
<path id="Vector_28" style="mix-blend-mode:multiply" fill-rule="evenodd" clip-rule="evenodd" d="M3.6731 9.19008C6.26798 10.2914 8.99943 9.9851 12.2197 9.57665C12.7516 9.46725 13.2835 9.36513 13.837 9.27032C16.3672 8.83269 19.2999 8.41695 21.7582 8.15437L18.6386 6.68103C16.5325 7.03113 14.5414 7.5344 12.4353 7.89179C9.55291 8.37318 6.57706 8.73058 3.68028 9.19008H3.6731Z" fill="url(#paint20_radial_1_892)"/>
<path id="Vector_29" fill-rule="evenodd" clip-rule="evenodd" d="M11.9464 7.44693L13.1828 7.69491C14.2035 4.95975 15.2673 3.70523 17.0715 1.35663C15.9717 1.55357 14.8935 1.80885 13.916 2.27565C13.7291 1.6265 13.4847 1.05759 13.1612 0.583496C12.0615 1.67756 11.5799 2.89562 11.4577 4.05533C11.3498 5.08375 11.5439 6.17052 11.9464 7.45422V7.44693Z" fill="url(#paint21_radial_1_892)"/>
<path id="Vector_30" style="mix-blend-mode:multiply" fill-rule="evenodd" clip-rule="evenodd" d="M13.7579 5.75483C13.2188 5.98094 12.1693 5.97364 11.7668 5.47037C11.6158 5.28073 11.5368 5.14215 11.429 4.86499C11.4577 5.65272 11.6446 6.49879 11.9465 7.44698L13.1828 7.69497C13.5494 6.71031 13.9232 5.91529 14.3401 5.19321C14.1245 5.44849 13.8945 5.69648 13.7579 5.75483Z" fill="url(#paint22_radial_1_892)"/>
<path id="Vector_31" style="mix-blend-mode:screen" fill-rule="evenodd" clip-rule="evenodd" d="M11.4434 4.17931C11.5512 4.02614 11.7453 3.86568 12.0903 3.85109C12.6581 3.8365 14.2108 3.98967 14.5558 4.44188C14.6061 4.50753 14.6348 4.58047 14.6564 4.6607C15.023 4.0699 15.4255 3.51558 15.8784 2.91019C15.6484 2.96125 15.4327 2.99772 15.1811 3.00501C14.3689 3.02689 13.2044 2.91019 12.4928 2.50904C12.2484 2.37046 12.1406 2.17352 12.1118 1.95471C11.7309 2.64762 11.5296 3.35511 11.4577 4.04802C11.4577 4.09178 11.4505 4.12825 11.4434 4.17202V4.17931Z" fill="url(#paint23_radial_1_892)"/>
<path id="Vector_32" fill-rule="evenodd" clip-rule="evenodd" d="M11.7453 7.93561L12.7517 7.16248C11.4219 4.5659 11.2062 2.9248 10.6815 0C10.0921 0.962777 9.56017 1.94743 9.25109 2.99774C8.65448 2.70599 8.07225 2.50905 7.50439 2.44341C7.57627 4.00428 8.15132 5.17857 8.92044 6.04653C9.6033 6.81237 10.5306 7.38858 11.7453 7.93561Z" fill="url(#paint24_radial_1_892)"/>
<path id="Vector_33" style="mix-blend-mode:multiply" opacity="0.65" fill-rule="evenodd" clip-rule="evenodd" d="M11.7022 5.43384C11.5081 5.99546 10.8037 6.78319 10.1712 6.75402C9.92678 6.73943 9.77583 6.71025 9.50269 6.60814C10.1065 7.11141 10.8468 7.52715 11.7454 7.93561L12.7517 7.16247C12.2701 6.22886 11.9394 5.41196 11.6807 4.61694C11.7238 4.94516 11.7525 5.28797 11.7022 5.43384Z" fill="url(#paint25_radial_1_892)"/>
<path id="Vector_34" style="mix-blend-mode:screen" fill-rule="evenodd" clip-rule="evenodd" d="M9.00669 6.14139C8.96356 5.95905 8.97794 5.70377 9.19358 5.4339C9.56017 4.99627 10.7031 3.9168 11.2709 3.96056C11.35 3.96056 11.4219 3.98973 11.5009 4.0262C11.3141 3.35518 11.1703 2.68415 11.0265 1.94019C10.9115 2.14441 10.7965 2.34134 10.6312 2.53098C10.1065 3.15824 9.2439 3.96785 8.47478 4.23043C8.20882 4.31795 8.00037 4.27419 7.81348 4.1502C8.06506 4.90145 8.4604 5.52142 8.92043 6.03928C8.94919 6.06846 8.97794 6.09763 9.00669 6.1341V6.14139Z" fill="url(#paint26_radial_1_892)"/>
<path id="Vector_35" fill-rule="evenodd" clip-rule="evenodd" d="M12.2484 7.50524C11.4146 6.25801 7.53306 2.5236 5.887 3.06334C4.72253 3.44261 2.81052 6.31636 3.34243 7.72405C3.50057 8.14709 3.91747 8.44614 4.31282 8.6066C6.7855 9.62773 9.56008 9.40891 11.9178 8.78894C12.0328 8.35861 12.1406 7.93557 12.2556 7.50524H12.2484Z" fill="url(#paint27_radial_1_892)"/>
<path id="Vector_36" fill-rule="evenodd" clip-rule="evenodd" d="M12.7588 7.39586L13.3913 8.65768C15.2027 8.85461 18.6674 8.73061 20.7806 7.38856C21.0035 7.24269 21.2047 6.9874 21.1472 6.62272C20.8669 5.01079 18.9693 2.88831 17.5676 2.72785C16.1947 2.56738 13.226 6.00275 12.7588 7.39586Z" fill="url(#paint28_radial_1_892)"/>
<path id="Vector_37" fill-rule="evenodd" clip-rule="evenodd" d="M11.1054 8.38785L11.0623 8.85466C9.02088 9.32875 5.9444 9.43816 4.0827 8.20551C3.26326 7.65848 3.68736 6.14867 4.1402 5.97362C5.57062 5.43388 9.84032 7.44696 11.0982 8.38785H11.1054Z" fill="url(#paint29_linear_1_892)"/>
<path id="Vector_38" style="mix-blend-mode:multiply" fill-rule="evenodd" clip-rule="evenodd" d="M5.5564 5.96631C6.66335 7.67305 8.12253 8.57018 10.1424 9.02969C10.4658 8.97863 10.7749 8.92028 11.0696 8.85464L11.1128 8.38784C10.1496 7.66576 7.43247 6.3237 5.56358 5.96631H5.5564Z" fill="url(#paint30_radial_1_892)"/>
<path id="Vector_39" fill-rule="evenodd" clip-rule="evenodd" d="M13.9807 8.3295L14.067 8.55561C15.7274 8.62855 17.7616 8.51914 19.6449 7.80435C20.2631 7.57095 21.2191 7.17709 20.9531 6.41124C20.795 5.95174 20.3565 5.43388 20.1337 5.40471C18.7823 5.24424 15.1452 7.37402 13.9807 8.32221V8.3295Z" fill="url(#paint31_linear_1_892)"/>
<path id="Vector_40" style="mix-blend-mode:multiply" fill-rule="evenodd" clip-rule="evenodd" d="M19.9971 5.75482C19.8102 5.53601 19.6305 5.48495 19.3789 5.47766C17.7401 5.86423 14.9727 7.51991 13.9807 8.32952C15.519 8.15447 18.0851 7.70226 19.6377 6.89994C19.954 6.73948 20.1912 6.55714 20.2343 6.32374C20.2631 6.17786 20.1984 5.99552 19.9971 5.75482Z" fill="url(#paint32_radial_1_892)"/>
<path id="Vector_41" style="mix-blend-mode:screen" fill-rule="evenodd" clip-rule="evenodd" d="M4.14743 5.96627C4.77279 5.73287 5.93006 5.98086 7.14484 6.41119C6.87888 6.09756 6.82138 5.55782 7.15922 5.03267C7.64081 4.28141 8.51057 4.22306 9.17187 4.45646C8.30211 3.78544 7.39642 3.23111 6.67043 3.06335C6.33259 3.1217 6.1457 3.18005 5.81505 3.42075C5.0028 4.01884 4.08992 5.37548 3.81678 6.15591C3.75927 6.31637 3.72333 6.48413 3.69458 6.65189C3.78802 6.30908 3.96773 6.03921 4.14743 5.96627Z" fill="url(#paint33_radial_1_892)"/>
<path id="Vector_42" style="mix-blend-mode:screen" fill-rule="evenodd" clip-rule="evenodd" d="M17.7833 2.88837C17.4957 2.79355 17.1939 2.80814 16.7913 2.91025C16.2666 3.15824 15.6628 3.64692 15.0806 4.21583C15.4112 3.96785 15.7419 3.89491 16.3888 3.99702C17.1651 4.11372 17.7761 4.66805 17.9055 5.39013C17.9773 5.7767 17.8552 5.96634 17.6323 6.14139C18.6315 5.67459 19.5731 5.34637 20.1338 5.4193C20.2919 5.44119 20.5507 5.69647 20.7447 6.00281C20.2488 4.90874 19.0771 3.30411 17.7833 2.89566V2.88837Z" fill="url(#paint34_radial_1_892)"/>
<path id="Vector_43" style="mix-blend-mode:multiply" opacity="0.5" fill-rule="evenodd" clip-rule="evenodd" d="M13.7148 6.13401C13.7435 5.98813 13.7938 5.83496 13.8585 5.68909C13.9017 5.58698 13.9592 5.49216 14.0095 5.39734C13.9232 5.49945 13.8442 5.60156 13.7651 5.70368C13.7004 5.78391 13.6429 5.86414 13.5854 5.94437C13.2332 6.42576 12.96 6.88527 12.8091 7.24266C12.9816 7.62194 13.5782 8.05956 14.1245 8.21273C14.412 7.98662 14.8145 7.71675 15.2674 7.4323C15.4615 7.3083 15.6627 7.18431 15.8784 7.06032C15.5693 7.17702 15.2818 7.25725 14.9655 7.25725C14.297 7.25725 13.571 6.92903 13.7076 6.13401H13.7148Z" fill="url(#paint35_radial_1_892)"/>
<path id="Vector_44" style="mix-blend-mode:multiply" opacity="0.5" fill-rule="evenodd" clip-rule="evenodd" d="M11.0265 6.51331C10.9978 6.95094 10.358 7.35209 9.95552 7.35939C9.61768 7.35939 9.25828 7.24998 8.93481 7.16246C9.64643 7.49797 10.2934 7.84807 10.7534 8.14711C11.3572 8.045 11.846 7.68761 12.0472 7.23539C11.7669 6.878 11.3428 6.41849 10.8468 5.92981C10.969 6.11215 11.0481 6.30908 11.0337 6.5206L11.0265 6.51331Z" fill="url(#paint36_radial_1_892)"/>
<path id="Vector_45" d="M10.5592 8.54097C10.5161 8.30028 10.8755 8.00124 11.2924 7.71678C11.7883 7.37397 12.2196 7.15516 12.4281 7.17704C12.9672 7.23539 14.8792 8.42427 14.3832 9.10259C14.0166 9.59128 12.8665 9.62774 12.2987 9.58398C11.7596 9.54022 10.6886 9.19012 10.5664 8.54097H10.5592Z" fill="#C45800"/>
<path id="Vector_46" fill-rule="evenodd" clip-rule="evenodd" d="M11.0263 8.72337C11.3067 8.96407 11.738 9.10265 12.2124 9.16829C12.694 9.22664 13.2043 9.20476 13.6356 9.12453C14.3903 8.98595 14.4622 8.5775 14.1459 8.2274C13.7794 7.81895 13.1468 7.39591 12.7012 7.18439C12.5071 7.09686 12.3058 7.09686 12.1189 7.19168C11.7739 7.36673 11.357 7.6366 11.0695 7.86271C10.6382 8.20552 10.6238 8.35868 11.0335 8.71608L11.0263 8.72337Z" fill="url(#paint37_radial_1_892)"/>
<path id="Vector_47" style="mix-blend-mode:screen" fill-rule="evenodd" clip-rule="evenodd" d="M13.8729 7.96483C13.5135 7.65119 13.0462 7.35215 12.7012 7.18439C12.5071 7.08958 12.2987 7.09687 12.1118 7.19169C11.7883 7.35944 11.393 7.60743 11.1055 7.83354C11.1055 8.60668 14.0382 8.76714 13.9447 8.10341C13.9376 8.04506 13.916 8.0013 13.8729 7.96483Z" fill="url(#paint38_radial_1_892)"/>
</g>
</g>
</g>
</g>
<defs>
<radialGradient id="paint0_radial_1_892" cx="0" cy="0" r="1" gradientUnits="userSpaceOnUse" gradientTransform="translate(0.445542 14.4489) scale(17.1219 17.3737)">
<stop stop-color="#FF6163"/>
<stop offset="1" stop-color="#8F0000"/>
</radialGradient>
<radialGradient id="paint1_radial_1_892" cx="0" cy="0" r="1" gradientUnits="userSpaceOnUse" gradientTransform="translate(3.86722 1.69944) scale(30.5348 30.9839)">
<stop stop-color="#E60E10"/>
<stop offset="1" stop-color="#730000"/>
</radialGradient>
<radialGradient id="paint2_radial_1_892" cx="0" cy="0" r="1" gradientUnits="userSpaceOnUse" gradientTransform="translate(8.21585 19.4525) scale(10.0058 10.1529)">
<stop offset="0.54" stop-color="white"/>
<stop offset="0.58" stop-color="#F9F4F6"/>
<stop offset="0.66" stop-color="#E9D9DE"/>
<stop offset="0.76" stop-color="#D0ADB8"/>
<stop offset="0.87" stop-color="#AD6F83"/>
<stop offset="1" stop-color="#822341"/>
</radialGradient>
<radialGradient id="paint3_radial_1_892" cx="0" cy="0" r="1" gradientUnits="userSpaceOnUse" gradientTransform="translate(10.9978 13.3257) scale(20.3781 20.6778)">
<stop offset="0.54" stop-color="white"/>
<stop offset="0.58" stop-color="#F9F4F6"/>
<stop offset="0.66" stop-color="#E9D9DE"/>
<stop offset="0.76" stop-color="#D0ADB8"/>
<stop offset="0.87" stop-color="#AD6F83"/>
<stop offset="1" stop-color="#822341"/>
</radialGradient>
<radialGradient id="paint4_radial_1_892" cx="0" cy="0" r="1" gradientUnits="userSpaceOnUse" gradientTransform="translate(-1.7323 26.4837) scale(15.7993 16.0317)">
<stop offset="0.54" stop-color="white"/>
<stop offset="0.58" stop-color="#FAF6F4"/>
<stop offset="0.65" stop-color="#ECDED9"/>
<stop offset="0.73" stop-color="#D6B7AD"/>
<stop offset="0.84" stop-color="#B8816F"/>
<stop offset="0.95" stop-color="#923E22"/>
<stop offset="1" stop-color="#822000"/>
</radialGradient>
<radialGradient id="paint5_radial_1_892" cx="0" cy="0" r="1" gradientUnits="userSpaceOnUse" gradientTransform="translate(18.5524 26.1482) scale(14.3401 14.5511)">
<stop offset="0.54" stop-color="white"/>
<stop offset="0.58" stop-color="#FAF6F4"/>
<stop offset="0.65" stop-color="#ECDED9"/>
<stop offset="0.73" stop-color="#D6B7AD"/>
<stop offset="0.84" stop-color="#B8816F"/>
<stop offset="0.95" stop-color="#923E22"/>
<stop offset="1" stop-color="#822000"/>
</radialGradient>
<radialGradient id="paint6_radial_1_892" cx="0" cy="0" r="1" gradientUnits="userSpaceOnUse" gradientTransform="translate(2.08453 8.1034) scale(18.9692 19.2482)">
<stop stop-color="#FF6163"/>
<stop offset="1" stop-color="#8F0000"/>
</radialGradient>
<radialGradient id="paint7_radial_1_892" cx="0" cy="0" r="1" gradientUnits="userSpaceOnUse" gradientTransform="translate(12.155 -6.16319) scale(24.5184 24.879)">
<stop stop-color="#E60E10"/>
<stop offset="1" stop-color="#730000"/>
</radialGradient>
<radialGradient id="paint8_radial_1_892" cx="0" cy="0" r="1" gradientUnits="userSpaceOnUse" gradientTransform="translate(6.44767 15.791) scale(37.3922 37.9422)">
<stop stop-color="#F23559"/>
<stop offset="1" stop-color="#C40000"/>
</radialGradient>
<radialGradient id="paint9_radial_1_892" cx="0" cy="0" r="1" gradientUnits="userSpaceOnUse" gradientTransform="translate(23.9289 16.6516) scale(22.4482 22.7784)">
<stop/>
<stop offset="1" stop-color="#FF9A8A"/>
</radialGradient>
<radialGradient id="paint10_radial_1_892" cx="0" cy="0" r="1" gradientUnits="userSpaceOnUse" gradientTransform="translate(5.98045 23.5735) scale(26.3298 26.7171)">
<stop/>
<stop offset="1" stop-color="#FF9A8A"/>
</radialGradient>
<radialGradient id="paint11_radial_1_892" cx="0" cy="0" r="1" gradientUnits="userSpaceOnUse" gradientTransform="translate(15.332 -3.69064) scale(20.9244 21.2321)">
<stop/>
<stop offset="1" stop-color="#CA9E67"/>
</radialGradient>
<radialGradient id="paint12_radial_1_892" cx="0" cy="0" r="1" gradientUnits="userSpaceOnUse" gradientTransform="translate(5.05322 6.62271) scale(25.23 25.6011)">
<stop stop-color="#FFCC00"/>
<stop offset="1" stop-color="#B35100"/>
</radialGradient>
<radialGradient id="paint13_radial_1_892" cx="0" cy="0" r="1" gradientUnits="userSpaceOnUse" gradientTransform="translate(1.29393 3.23112) scale(23.0161 23.3546)">
<stop stop-color="#FCF80D"/>
<stop offset="1" stop-color="#F78A0C"/>
</radialGradient>
<radialGradient id="paint14_radial_1_892" cx="0" cy="0" r="1" gradientUnits="userSpaceOnUse" gradientTransform="translate(13.3625 8.24925) scale(13.7651 13.9676)">
<stop stop-color="#FC9C0D"/>
<stop offset="1" stop-color="#FCF80D"/>
</radialGradient>
<radialGradient id="paint15_radial_1_892" cx="0" cy="0" r="1" gradientUnits="userSpaceOnUse" gradientTransform="translate(14.8001 12.3046) scale(3.82404 3.88028)">
<stop stop-color="#B85E16"/>
<stop offset="1" stop-color="white"/>
</radialGradient>
<radialGradient id="paint16_radial_1_892" cx="0" cy="0" r="1" gradientUnits="userSpaceOnUse" gradientTransform="translate(12.3275 8.79625) scale(6.82145 6.92178)">
<stop stop-color="#FC9C0D"/>
<stop offset="1" stop-color="#FCF80D"/>
</radialGradient>
<radialGradient id="paint17_radial_1_892" cx="0" cy="0" r="1" gradientUnits="userSpaceOnUse" gradientTransform="translate(2.50871 7.47609) scale(5.80794 5.89336)">
<stop stop-color="#FFF385"/>
<stop offset="1"/>
</radialGradient>
<radialGradient id="paint18_radial_1_892" cx="0" cy="0" r="1" gradientUnits="userSpaceOnUse" gradientTransform="translate(16.6618 12.9829) scale(6.10983 6.1997)">
<stop stop-color="#F24C7C"/>
<stop offset="1"/>
</radialGradient>
<radialGradient id="paint19_radial_1_892" cx="0" cy="0" r="1" gradientUnits="userSpaceOnUse" gradientTransform="translate(17.812 9.23384) scale(6.52674 6.62274)">
<stop stop-color="#7C0000"/>
<stop offset="1" stop-color="white"/>
</radialGradient>
<radialGradient id="paint20_radial_1_892" cx="0" cy="0" r="1" gradientUnits="userSpaceOnUse" gradientTransform="translate(17.5532 6.35281) scale(19.4652 19.7515)">
<stop stop-color="#B85E16"/>
<stop offset="1" stop-color="white"/>
</radialGradient>
<radialGradient id="paint21_radial_1_892" cx="0" cy="0" r="1" gradientUnits="userSpaceOnUse" gradientTransform="translate(13.4056 7.4761) scale(15.5046 15.7326)">
<stop stop-color="#F78A0C"/>
<stop offset="1" stop-color="#FCDC0D"/>
</radialGradient>
<radialGradient id="paint22_radial_1_892" cx="0" cy="0" r="1" gradientUnits="userSpaceOnUse" gradientTransform="translate(13.456 3.63964) scale(4.6291 4.69718)">
<stop stop-color="white"/>
<stop offset="1" stop-color="#BA5700"/>
</radialGradient>
<radialGradient id="paint23_radial_1_892" cx="0" cy="0" r="1" gradientUnits="userSpaceOnUse" gradientTransform="translate(13.7723 1.18887) scale(4.8663 4.93788)">
<stop stop-color="#FFF48F"/>
<stop offset="1"/>
</radialGradient>
<radialGradient id="paint24_radial_1_892" cx="0" cy="0" r="1" gradientUnits="userSpaceOnUse" gradientTransform="translate(12.1335 6.71026) scale(8.50345 8.62852)">
<stop stop-color="#F78A0C"/>
<stop offset="1" stop-color="#FCDC0D"/>
</radialGradient>
<radialGradient id="paint25_radial_1_892" cx="0" cy="0" r="1" gradientUnits="userSpaceOnUse" gradientTransform="translate(9.74708 4.37625) scale(4.39908 4.46378)">
<stop stop-color="white"/>
<stop offset="1" stop-color="#BA5700"/>
</radialGradient>
<radialGradient id="paint26_radial_1_892" cx="0" cy="0" r="1" gradientUnits="userSpaceOnUse" gradientTransform="translate(10.1065 1.20352) scale(5.2904 5.36821)">
<stop stop-color="#FFF48F"/>
<stop offset="1"/>
</radialGradient>
<radialGradient id="paint27_radial_1_892" cx="0" cy="0" r="1" gradientUnits="userSpaceOnUse" gradientTransform="translate(6.04513 4.23034) scale(7.13772 7.24271)">
<stop stop-color="#FCDC0D"/>
<stop offset="1" stop-color="#F78A0C"/>
</radialGradient>
<radialGradient id="paint28_radial_1_892" cx="0" cy="0" r="1" gradientUnits="userSpaceOnUse" gradientTransform="translate(19.8749 3.43534) scale(6.99396 7.09683)">
<stop stop-color="#FCDC0D"/>
<stop offset="1" stop-color="#F78A0C"/>
</radialGradient>
<linearGradient id="paint29_linear_1_892" x1="3.62266" y1="7.52719" x2="11.1054" y2="7.52719" gradientUnits="userSpaceOnUse">
<stop stop-color="#D46D17"/>
<stop offset="1" stop-color="#FF9D00"/>
</linearGradient>
<radialGradient id="paint30_radial_1_892" cx="0" cy="0" r="1" gradientUnits="userSpaceOnUse" gradientTransform="translate(12.2916 4.59508) scale(6.60581 6.70297)">
<stop stop-color="#BA5700"/>
<stop offset="1" stop-color="white"/>
</radialGradient>
<linearGradient id="paint31_linear_1_892" x1="13.9807" y1="6.98745" x2="29.2769" y2="6.98745" gradientUnits="userSpaceOnUse">
<stop stop-color="#D46D17"/>
<stop offset="1" stop-color="#FF9D00"/>
</linearGradient>
<radialGradient id="paint32_radial_1_892" cx="0" cy="0" r="1" gradientUnits="userSpaceOnUse" gradientTransform="translate(13.4129 8.61398) scale(7.33899 7.44693)">
<stop stop-color="#BA5700"/>
<stop offset="1" stop-color="white"/>
</radialGradient>
<radialGradient id="paint33_radial_1_892" cx="0" cy="0" r="1" gradientUnits="userSpaceOnUse" gradientTransform="translate(5.58503 6.88529) scale(6.33985 6.4331)">
<stop stop-color="#FFF48F"/>
<stop offset="1"/>
</radialGradient>
<radialGradient id="paint34_radial_1_892" cx="0" cy="0" r="1" gradientUnits="userSpaceOnUse" gradientTransform="translate(15.2603 7.27192) scale(7.18804 7.29376)">
<stop stop-color="#FFF48F"/>
<stop offset="1"/>
</radialGradient>
<radialGradient id="paint35_radial_1_892" cx="0" cy="0" r="1" gradientUnits="userSpaceOnUse" gradientTransform="translate(15.4974 5.60886) scale(3.83123 3.88758)">
<stop stop-color="white"/>
<stop offset="1" stop-color="#BA5700"/>
</radialGradient>
<radialGradient id="paint36_radial_1_892" cx="0" cy="0" r="1" gradientUnits="userSpaceOnUse" gradientTransform="translate(10.0633 5.92981) scale(3.34963 3.39889)">
<stop stop-color="white"/>
<stop offset="1" stop-color="#BA5700"/>
</radialGradient>
<radialGradient id="paint37_radial_1_892" cx="0" cy="0" r="1" gradientUnits="userSpaceOnUse" gradientTransform="translate(12.0255 5.92986) scale(3.87435 3.93134)">
<stop stop-color="#FCDC0D"/>
<stop offset="1" stop-color="#F78A0C"/>
</radialGradient>
<radialGradient id="paint38_radial_1_892" cx="0" cy="0" r="1" gradientUnits="userSpaceOnUse" gradientTransform="translate(12.7875 5.69647) scale(3.32087 3.36972)">
<stop stop-color="#FFF48F"/>
<stop offset="1"/>
</radialGradient>
<clipPath id="clip0_1_892">
<rect width="25" height="29" fill="white"/>
</clipPath>
</defs>
</svg>
