<svg width="21" height="21" viewBox="0 0 21 21" fill="none" xmlns="http://www.w3.org/2000/svg">
<g clip-path="url(#clip0_71_3573)">
<path d="M21 1.64062V10.5C21 10.9351 20.8271 11.3524 20.5195 11.6601C20.2118 11.9678 19.7945 12.1406 19.3594 12.1406C18.9243 12.1406 18.507 11.9678 18.1993 11.6601C17.8916 11.3524 17.7188 10.9351 17.7188 10.5V5.60146L5.60142 17.7188H10.5C10.9351 17.7188 11.3524 17.8916 11.6601 18.1993C11.9678 18.507 12.1406 18.9243 12.1406 19.3594C12.1406 19.7945 11.9678 20.2118 11.6601 20.5195C11.3524 20.8271 10.9351 21 10.5 21H1.64062C1.2055 21 0.788205 20.8271 0.480528 20.5195C0.172851 20.2118 0 19.7945 0 19.3594L0 10.5C0 10.0649 0.172851 9.64758 0.480528 9.3399C0.788205 9.03223 1.2055 8.85938 1.64062 8.85938C2.07575 8.85938 2.49305 9.03223 2.80072 9.3399C3.1084 9.64758 3.28125 10.0649 3.28125 10.5V15.3986L15.3986 3.28125H10.5C10.0649 3.28125 9.64758 3.1084 9.3399 2.80072C9.03223 2.49305 8.85938 2.07575 8.85938 1.64062C8.85938 1.2055 9.03223 0.788205 9.3399 0.480528C9.64758 0.172851 10.0649 0 10.5 0L19.3594 0C19.7945 0 20.2118 0.172851 20.5195 0.480528C20.8271 0.788205 21 1.2055 21 1.64062Z" fill="white"/>
</g>
<defs>
<clipPath id="clip0_71_3573">
<rect width="21" height="21" fill="white"/>
</clipPath>
</defs>
</svg>
