<svg width="32" height="30" viewBox="0 0 32 30" fill="none" xmlns="http://www.w3.org/2000/svg">
<path d="M3.75376 7.50342C1.69813 7.50342 0 9.19177 0 11.2475V21.2469C0 23.3026 1.69813 24.9934 3.75376 24.9934H13.3676L16.8065 27.29C17.3828 27.6699 18.158 27.5107 18.5378 26.9344C18.5624 26.8972 18.5849 26.8586 18.6053 26.819L19.5474 24.9934H21.2437C23.2993 24.9934 24.9999 23.3026 24.9999 21.2469V11.2475C24.9999 9.19183 23.2993 7.50342 21.2437 7.50342H3.75376ZM6.12857 17.5005C6.17092 17.4992 6.21321 17.5 6.25551 17.503H18.7445C19.4346 17.4875 20.0067 18.0344 20.0222 18.7246C20.0377 19.4147 19.4908 19.9868 18.8006 20.0022C18.7819 20.0027 18.7632 20.0027 18.7445 20.0022H6.25551C5.56454 20.0226 4.98791 19.479 4.96753 18.7881C4.94778 18.1188 5.4584 17.5525 6.12617 17.503C6.12699 17.5021 6.12787 17.5013 6.12869 17.5004L6.12857 17.5005Z" fill="white"/>
<rect x="17" width="15" height="15" rx="7.5" fill="#228583"/>
<path d="M23.712 7.276C23.712 7.132 23.68 7.008 23.616 6.904C23.556 6.796 23.472 6.714 23.364 6.658C23.26 6.598 23.142 6.568 23.01 6.568C22.874 6.568 22.752 6.598 22.644 6.658C22.54 6.714 22.456 6.796 22.392 6.904C22.332 7.008 22.302 7.132 22.302 7.276C22.302 7.416 22.332 7.54 22.392 7.648C22.456 7.756 22.54 7.84 22.644 7.9C22.752 7.96 22.874 7.99 23.01 7.99C23.142 7.99 23.26 7.96 23.364 7.9C23.472 7.84 23.556 7.756 23.616 7.648C23.68 7.54 23.712 7.416 23.712 7.276ZM23.016 9.982H21.732L23.094 8.464L23.298 8.374C23.186 8.482 23.078 8.554 22.974 8.59C22.874 8.622 22.748 8.638 22.596 8.638C22.44 8.638 22.284 8.608 22.128 8.548C21.976 8.484 21.838 8.394 21.714 8.278C21.59 8.158 21.49 8.014 21.414 7.846C21.338 7.678 21.3 7.488 21.3 7.276C21.3 6.928 21.376 6.638 21.528 6.406C21.684 6.174 21.89 6 22.146 5.884C22.406 5.764 22.694 5.704 23.01 5.704C23.322 5.704 23.606 5.764 23.862 5.884C24.122 6 24.328 6.174 24.48 6.406C24.636 6.638 24.714 6.928 24.714 7.276C24.714 7.5 24.666 7.708 24.57 7.9C24.478 8.092 24.364 8.272 24.228 8.44L23.016 9.982ZM27.7257 7.276C27.7257 7.132 27.6937 7.008 27.6297 6.904C27.5697 6.796 27.4857 6.714 27.3777 6.658C27.2737 6.598 27.1557 6.568 27.0237 6.568C26.8877 6.568 26.7657 6.598 26.6577 6.658C26.5537 6.714 26.4697 6.796 26.4057 6.904C26.3457 7.008 26.3157 7.132 26.3157 7.276C26.3157 7.416 26.3457 7.54 26.4057 7.648C26.4697 7.756 26.5537 7.84 26.6577 7.9C26.7657 7.96 26.8877 7.99 27.0237 7.99C27.1557 7.99 27.2737 7.96 27.3777 7.9C27.4857 7.84 27.5697 7.756 27.6297 7.648C27.6937 7.54 27.7257 7.416 27.7257 7.276ZM27.0297 9.982H25.7457L27.1077 8.464L27.3117 8.374C27.1997 8.482 27.0917 8.554 26.9877 8.59C26.8877 8.622 26.7617 8.638 26.6097 8.638C26.4537 8.638 26.2977 8.608 26.1417 8.548C25.9897 8.484 25.8517 8.394 25.7277 8.278C25.6037 8.158 25.5037 8.014 25.4277 7.846C25.3517 7.678 25.3137 7.488 25.3137 7.276C25.3137 6.928 25.3897 6.638 25.5417 6.406C25.6977 6.174 25.9037 6 26.1597 5.884C26.4197 5.764 26.7077 5.704 27.0237 5.704C27.3357 5.704 27.6197 5.764 27.8757 5.884C28.1357 6 28.3417 6.174 28.4937 6.406C28.6497 6.638 28.7277 6.928 28.7277 7.276C28.7277 7.5 28.6797 7.708 28.5837 7.9C28.4917 8.092 28.3777 8.272 28.2417 8.44L27.0297 9.982Z" fill="white"/>
</svg>
