<svg width="185" height="132" viewBox="0 0 185 132" fill="none" xmlns="http://www.w3.org/2000/svg">
<path d="M138.541 130L-14.5762 130C-21.6089 130 -28.3164 127.038 -33.0537 121.84L-54.6905 98.0992C-58.4869 93.9336 -60.7644 88.6073 -61.1534 82.9847L-64.246 38.2838C-65.1602 25.0692 -55.6085 13.4352 -42.4687 11.7592L27.2064 2.87213C29.081 2.63301 30.9767 2.60722 32.8571 2.79527L141.559 13.6655C149.289 14.4384 156.221 18.7609 160.316 25.3622L178.734 55.0518C183.367 62.5198 183.739 71.872 179.713 79.6839L160.763 116.453C156.475 124.772 147.9 130 138.541 130Z" fill="url(#paint0_linear_1_870)" stroke="#64ABAD" stroke-width="4"/>
<defs>
<linearGradient id="paint0_linear_1_870" x1="50.4528" y1="26.5774" x2="15.4576" y2="214.255" gradientUnits="userSpaceOnUse">
<stop stop-color="#1B626A"/>
<stop offset="1" stop-color="#031517"/>
</linearGradient>
</defs>
</svg>
