<svg width="61" height="60" viewBox="0 0 61 60" fill="none" xmlns="http://www.w3.org/2000/svg">
<path d="M40.2184 8.07224L36.1067 12.3666L34.111 11.9742C31.7457 11.9742 29.6485 12.57 26.8041 14.13C22.5526 16.47 18.1793 21.1597 15.2451 25.5697C13.0594 28.8397 11.7524 31.2444 11.5728 34.0044C11.453 36.1044 12.0503 36.5723 13.0982 37.7123C14.1461 38.8523 14.7267 39.2827 16.9124 39.2527C19.4873 39.2227 21.7248 38.0658 24.9285 35.9958C33.6113 30.3558 40.8098 20.789 38.8936 15.749L38.7772 15.2941L38.6534 14.6642L39.2592 15.6508C41.2123 13.9213 42.3073 12.9517 44.2604 11.2222C46.8952 8.91224 49.7939 7.3803 49.8538 7.2303C49.6115 6.98837 45.1565 3.6367 44.7972 3.6367C44.7074 3.6367 42.5837 5.70224 40.2184 8.07224ZM31.8152 18.7174C34.7493 22.3474 27.1966 31.5292 20.8791 32.1592C19.7414 32.2492 19.5293 32.4832 18.8407 31.8832C15.6969 29.1832 21.2926 21.5974 28.179 18.7174C30.185 17.8774 31.0367 17.7574 31.8152 18.7174Z" fill="#ECECEC"/>
<path d="M43.247 24.3205C37.1691 31.2805 31.6608 37.8488 31.5111 38.1188C30.9721 39.1088 32.5247 40.7486 33.5127 40.2086C33.7822 40.0286 39.7137 34.5703 45.9248 28.3074L57.139 16.8756L56.1469 14.8823C55.6978 14.0423 54.4061 12.1198 54.1067 11.7598C53.6107 12.4122 54.1155 11.8405 43.247 24.3205Z" fill="#ECECEC"/>
<path d="M38.6196 15.8856C38.6895 17.3738 38.183 19.5023 37.2848 21.5723C35.5482 25.5923 30.5182 31.5023 26.2666 34.5323C22.524 37.2323 17.0229 39.0871 14.7773 38.6371C14.953 39.2546 15.0021 39.225 18.9543 43.215L23.4247 48.2197H26.2124C27.9789 48.0997 29.3505 47.2523 30.8775 46.5323C38.8716 42.8423 47.3766 34.5323 47.9591 25.8038C46.7884 26.9594 47.255 26.5223 40.9076 32.8823C33.6919 40.0823 32.9733 40.6223 32.0152 39.4523C31.2068 38.4623 31.8954 37.4423 38.692 29.6723L45.6789 21.6195L42.0794 18.0566L38.5108 14.3352L38.6196 15.8856Z" fill="#232428"/>
<path d="M24.6772 0.42992C23.7833 0.579597 21.7574 1.14838 20.1485 1.71716C0.782299 8.36293 -6.21932 31.9823 6.23462 48.5967C10.1972 53.8954 16.6328 58.0265 23.0981 59.4934C26.3158 60.2119 34.2709 60.152 37.2801 59.4036C47.8272 56.6794 56.11 48.477 59 37.8198C59.5959 35.6046 60.0903 33.0958 60.0805 30.0263C60.0656 25.3848 59.2085 21.9837 57.5997 18.3914L56.825 16.745L52.2665 21.3252L47.708 25.9053L47.5293 27.5518C47.4101 28.6595 46.9036 30.0964 45.98 31.9524C41.779 40.4242 31.5596 48.3872 25.4816 47.9382L23.7536 47.8184L18.0629 42.1007C12.6404 36.6523 12.402 36.353 12.253 35.0358C11.6274 29.4977 18.2714 20.0379 26.3158 15.0386C29.2655 13.2125 32.0959 12.2845 34.3603 12.4342L35.9989 12.524L40.3489 8.15338L44.669 3.78274C44.669 3.78274 46.3077 4.53114 42.3153 2.70505C38.3229 0.87896 35.7554 0.121777 30.6904 0.00203323C28.2472 -0.0279007 25.571 0.280239 24.6772 0.42992Z" fill="#EC4015"/>
<path d="M44.5588 10.9523C42.0138 13.1723 39.6471 15.2788 39.5273 15.3988C39.663 15.5556 40.8761 16.8323 42.5827 18.5423L45.6666 21.6323L49.9182 16.8323C52.2236 14.1623 54.1398 11.9123 54.1398 11.7923C54.1398 11.5523 49.6188 6.87226 49.3793 6.87226C49.2894 6.87226 47.1038 8.70226 44.5588 10.9523Z" fill="#EC4015"/>
<path d="M28.3024 18.1224C25.458 19.1724 21.2963 22.8024 19.44 25.8924C17.5537 29.0424 17.1944 30.8724 18.2423 32.1924C19.4998 33.8124 22.7334 33.0324 26.5359 30.1224C31.3863 26.4624 34.5301 20.0124 32.3145 18.2424C31.5061 17.5824 29.9492 17.5224 28.3024 18.1224Z" fill="#EC4015"/>
</svg>
